<svg width="20" height="22" fill="none" xmlns="http://www.w3.org/2000/svg"><path d="M9.94 22C4.534 22 .164 17.72.2 12.57.238 7.493 4.608 3.3 9.95 3.3c5.414-.01 9.793 4.21 9.783 9.411C19.714 17.834 15.326 22 9.94 22zm7.63-9.333c-.027-4.078-3.426-7.333-7.63-7.324-4.242.009-7.54 3.272-7.622 7.105-.092 4.333 3.508 7.526 7.64 7.508 4.223-.017 7.64-3.298 7.613-7.289zM6.751 1.984C6.458 1.475 6.156.975 5.863.475 5.579.001 5.12-.12 4.635.16L.43 2.528c-.421.236-.55.675-.311 1.087.32.553.641 1.097.962 1.64.155.255.384.386.705.422.147-.053.312-.097.449-.176 1.402-.79 2.803-1.579 4.205-2.377.449-.263.568-.693.311-1.14zm12.872.579C18.175 1.738 16.728.923 15.28.107a.84.84 0 0 0-1.117.28c-.33.553-.66 1.105-.98 1.658-.22.377-.092.807.293 1.026 1.438.816 2.885 1.632 4.324 2.448.11.06.256.087.375.131.302-.026.55-.123.687-.36.357-.578.706-1.175 1.045-1.771.201-.334.064-.763-.284-.956z" fill="#61B7F2"/><path d="M7.081 9.124c.476-.237.944-.474 1.43-.72.585 1.062 1.163 2.097 1.749 3.167.76-.412 1.502-.825 2.281-1.246.266.448.531.886.806 1.334-.055.035-.1.07-.156.096-.925.509-1.85 1.026-2.775 1.535-.495.272-.98.15-1.237-.333-.687-1.237-1.365-2.483-2.043-3.72-.027-.026-.037-.07-.055-.113z" fill="#61B7F2"/></svg>