<svg width="24" height="22" fill="none" xmlns="http://www.w3.org/2000/svg"><path d="M11.997.002h7.558a4.207 4.207 0 0 1 2.412.667 4.343 4.343 0 0 1 1.636 1.93c.262.533.398 1.12.397 1.717v9.052a4.485 4.485 0 0 1-1.074 2.762 4.313 4.313 0 0 1-2.54 1.448c-.308.054-.62.08-.933.08h-3.83a.323.323 0 0 0-.307.172c-.711 1.157-1.434 2.314-2.15 3.47a1.335 1.335 0 0 1-.485.512 1.297 1.297 0 0 1-1.344 0c-.203-.123-.37-.3-.484-.511-.723-1.157-1.452-2.32-2.168-3.483a.323.323 0 0 0-.308-.173H4.463a4.295 4.295 0 0 1-2.641-.83 4.452 4.452 0 0 1-1.623-2.284A4.82 4.82 0 0 1 0 13.301V4.427a4.507 4.507 0 0 1 1.024-2.802A4.336 4.336 0 0 1 3.554.12c.322-.054.648-.081.975-.08l7.468-.037zm0 19.84l.127-.19c.662-1.065 1.336-2.124 1.969-3.2.102-.184.253-.335.435-.435.182-.1.388-.146.595-.132h4.324c.37.014.74-.05 1.086-.189a2.7 2.7 0 0 0 .922-.616 2.77 2.77 0 0 0 .605-.94c.136-.354.2-.731.187-1.11V4.655c.003-.29-.032-.58-.102-.862a2.674 2.674 0 0 0-.971-1.465 2.575 2.575 0 0 0-1.655-.523H4.282a2.587 2.587 0 0 0-1.765.775 2.698 2.698 0 0 0-.77 1.798v8.787c-.01.661.227 1.301.662 1.791.263.307.59.55.957.71.367.161.764.236 1.163.22h4.39c.195-.015.39.029.56.125.172.096.312.24.404.416.301.51.602 1.009.928 1.507l1.186 1.908z" fill="#005B9A"/></svg>