<svg xmlns="http://www.w3.org/2000/svg" width="81.3" height="26.3" class="header__create__text-vector"><path d="M2.8 8.9c-.7-.3-1.4-.8-1.9-1.5C-.6 5.3-.2 2.5 1.9 1 4-.6 6.8-.1 8.3 2c.5.7.8 1.5.9 2.3L8.1 5c.1-.8-.1-1.6-.7-2.4C6.3 1.1 4.2.8 2.6 1.9 1 3.1.7 5.1 1.8 6.7c.5.8 1.3 1.2 2 1.4l-1 .8zm7.8-4l1.9 1.8c1.2 1.1 1.4 2.6.3 3.7-.9.9-2 .9-2.9.4.4 1.1.1 2.8-1.1 4.6l-.8-.7c1.2-1.9 1.4-3.8.6-4.6l-.7-.6-2.5 2.7-.8-.8 6-6.5zm1.2 2.6l-1.1-1-2.1 2.2 1.1 1c.7.6 1.6.7 2.2 0 .7-.7.6-1.5-.1-2.2zm-.7 9.7L16 9.7l4 2.6-.6.9-3.1-2-1.5 2.4 2.9 1.9-.6.9-2.9-1.9-1.6 2.4 3.1 2-.6.9-4-2.6zm12.2 3.6L20 19.5l-1.8 1.9-1.2-.5 6.5-6.9 1.2.5-.3 9.5-1.2-.5.1-2.7zm-2.6-2.2l2.6 1.1.2-4.1-2.8 3zm8.8-1.5l-2.3-.6.2-1 5.7 1.4-.2 1-2.3-.5-1.8 7.6-1.1-.3 1.8-7.6zm4.1 8.8l.6-8.9 4.8.3-.1 1.1-3.7-.3-.1 2.9 3.4.2-.1 1.1-3.4-.2-.2 2.9 3.7.3-.1 1.1-4.8-.5zm15.7-3.3l-3.5.7-.4 2.6-1.3.2 1.7-9.4 1.3-.2 4.9 8.2-1.3.2-1.4-2.3zm-3.3-.5l2.8-.5-2.1-3.5-.7 4zm7.8-7.5l2.4-1.1c1.5-.7 3-.3 3.7 1.2.7 1.5.1 2.9-1.4 3.6l-1.4.6 1.5 3.2-1 .5-3.8-8zm2.9-.2l-1.4.6 1.4 2.9 1.4-.6c.8-.4 1.3-1.1.8-2.1s-1.4-1.2-2.2-.8zm6.2-5.2c2.1-1.6 4.9-1.2 6.4.9 1.6 2.1 1.2 4.9-.9 6.4-2.1 1.6-4.9 1.2-6.4-.9-1.6-2-1.2-4.8.9-6.4zm4.9 6.4c1.6-1.2 1.8-3.3.6-4.8-1.2-1.5-3.3-1.9-4.8-.7s-1.8 3.3-.6 4.8c1.1 1.6 3.2 1.9 4.8.7zm6.3-4.2l-6.7-5.9.7-.8L74 9.8 76.4 7l.8.7-3.1 3.7zm4.6-5.6L71.2 1l.6-1 6.6 4.2 2-3.1.9.6-2.6 4.1z" fill="#144b71"/></svg>