<svg id="Layer_1" xmlns="http://www.w3.org/2000/svg" viewBox="0 0 114.6 57.1" class="header__create__text-vector"><style>.st0{enable-background:new}.st1{fill:#005b9a}</style><g class="st0"><path class="st1" d="M14.5 25.5c-.7-.2-1.3-.7-1.9-1.2-1.9-2-1.9-5 .1-6.9 2-1.9 5-1.9 6.9.1.5.6.9 1.2 1.2 1.9L19.2 21c0-.7-.3-1.5-.9-2.1-1.1-1.2-2.9-1.1-4.1 0-1.2 1.1-1.3 2.9-.1 4.1.6.6 1.4 1 2.1 1l-1.7 1.5z"/></g><g class="st0"><path class="st1" d="M22.2 20.1l2.6 2c1.5 1.1 1.9 2.7.9 4.1-.8 1.1-1.9 1.2-2.8.9.6 1.2.1 3-.9 4.8l-1.6-1.2c1-1.9 1.2-3.5.3-4.2l-.4-.3-2.1 2.8-1.6-1.2 5.6-7.7zm1.5 3.5l-1-.8-1.3 1.7 1 .8c.5.4 1.1.4 1.5-.2.4-.5.3-1.1-.2-1.5z"/></g><g class="st0"><path class="st1" d="M24.2 33.2l4.6-8.3 4.7 2.6-.9 1.7-3-1.7-.9 1.6 2.8 1.5-.9 1.7-2.8-1.5-.9 1.7 3 1.7-.9 1.7-4.8-2.7z"/></g><g class="st0"><path class="st1" d="M37.4 37.2L34.2 36l-1.4 1.7-2.1-.8 6.6-7.7 2.1.8v10.2l-2.1-.8.1-2.2zm-1.9-2.8l2 .7.1-3.2-2.1 2.5z"/></g><g class="st0"><path class="st1" d="M44.2 33.3l-2.3-.5.4-1.9 6.5 1.4-.4 1.9-2.3-.5-1.6 7.4-1.9-.4 1.6-7.4z"/></g><g class="st0"><path class="st1" d="M49.2 42l.8-9.5 5.4.5-.2 1.9-3.4-.3-.2 1.8 3.2.3-.2 1.9-3.2-.3-.2 1.9 3.4.3-.2 1.9-5.2-.4z"/></g><g class="st0"><path class="st1" d="M67.6 39.6l-3.4.5-.4 2.1-2.2.3 2.1-9.9 2.2-.3 4.8 8.9-2.2.3-.9-1.9zm-3-1.5l2.1-.3-1.5-2.8-.6 3.1z"/></g><g class="st0"><path class="st1" d="M74.4 30.3l3-1.2c1.7-.7 3.3-.1 4 1.6.7 1.8-.1 3.3-1.8 4l-1.2.5 1.3 3.2-1.8.7-3.5-8.8zm3.7.6l-1.1.5.8 2 1.1-.5c.6-.2.9-.8.6-1.4-.2-.7-.8-.9-1.4-.6z"/></g><g class="st0"><path class="st1" d="M85.2 25c2.4-1.4 5.3-.7 6.7 1.7s.7 5.3-1.7 6.7c-2.4 1.4-5.3.7-6.7-1.7-1.4-2.3-.7-5.2 1.7-6.7zm4.1 6.8c1.4-.8 1.8-2.6.9-4-.8-1.4-2.6-1.9-3.9-1-1.4.8-1.8 2.6-.9 4 .7 1.3 2.5 1.8 3.9 1z"/></g><g class="st0"><path class="st1" d="M96.6 28.9l-6.1-7.2 1.5-1.3 4.9 5.8 2.6-2.2 1.2 1.5-4.1 3.4z"/></g><g class="st0"><path class="st1" d="M102.4 23.7l-7-6.4 1.3-1.5 5.6 5.1 2.3-2.5 1.4 1.3-3.6 4z"/></g></svg>