<svg id="Layer_1" data-name="Layer 1" xmlns="http://www.w3.org/2000/svg" viewBox="0 0 114.6 57.07" class="header__create__text-vector"><defs><style>.cls-1{font-size:20px;fill:#005b9a;font-family:NiveauGroteskBold,Niveau Grotesk;font-weight:700}</style></defs><text class="cls-1" transform="rotate(45.88 -19.499 20.775) scale(.7)">C</text><text class="cls-1" transform="rotate(36.9 -32.74 36.98) scale(.7)">R</text><text class="cls-1" transform="rotate(29.16 -51.261 61.173) scale(.7)">E</text><text class="cls-1" transform="rotate(20.51 -86.519 103.588) scale(.7)">A</text><text class="cls-1" transform="rotate(12.5 -163.567 202.815) scale(.7)">T</text><text class="cls-1" transform="matrix(.7 .06 -.06 .7 48.17 41.94)">E</text><text class="cls-1" transform="rotate(-1.04 2370.617 -3081.993)"></text><text class="cls-1" transform="matrix(.69 -.1 .1 .69 61.69 42.5)">A</text><text class="cls-1" transform="matrix(.97 -.26 .26 .97 71.82 40.85)"></text><text class="cls-1" transform="matrix(.65 -.26 .26 .65 76.94 39.51)">P</text><text class="cls-1" transform="matrix(.6 -.36 .36 .6 85.61 36.08)">O</text><text class="cls-1" transform="matrix(.53 -.45 .45 .53 95.8 29.56)">L</text><text class="cls-1" transform="rotate(-47.43 78.68 -103.532) scale(.7)">L</text></svg>