<svg width="19" height="19" fill="none" xmlns="http://www.w3.org/2000/svg"><path d="M18.999 9.357c.078 5.01-3.774 9.241-8.792 9.616-5.37.403-9.964-3.73-10.197-9.065A9.487 9.487 0 0 1 9.056.01c5.356-.24 9.83 3.921 9.943 9.347zm-9.484-.883c-.07-.064-.113-.106-.163-.155L6.504 5.47c-.07-.07-.141-.141-.226-.198a.687.687 0 0 0-.749-.035.674.674 0 0 0-.375.65c0 .24.128.424.29.587.961.953 1.915 1.914 2.877 2.868.049.05.12.07.183.106l-.02.085c-.057.035-.114.063-.156.113-.954.954-1.908 1.907-2.863 2.854-.056.057-.113.12-.162.184a.721.721 0 0 0 .318 1.11c.332.12.608.013.848-.227.961-.968 1.93-1.929 2.897-2.897.043-.042.092-.085.142-.134.05.05.092.085.134.127.742.742 1.484 1.484 2.226 2.219.262.261.516.537.792.777a.718.718 0 0 0 1.173-.346c.085-.311-.021-.559-.248-.785-.968-.96-1.936-1.928-2.897-2.896-.05-.05-.092-.1-.155-.17.07-.063.127-.099.176-.148.954-.954 1.915-1.9 2.855-2.862a1.03 1.03 0 0 0 .276-.508c.063-.311-.085-.566-.368-.714-.275-.148-.55-.127-.791.07-.19.163-.368.347-.544.524-.877.89-1.739 1.759-2.622 2.649z" fill="#4F4F4F"/></svg>