<svg width="16" height="25" fill="none" xmlns="http://www.w3.org/2000/svg"><path d="M9.608 8.167h5.58c.549 0 .906.412.79.907-.033.124-.1.24-.175.347-3.642 5.065-7.284 10.138-10.926 15.203-.258.354-.632.47-.973.297-.35-.174-.499-.528-.374-.94 1.04-3.507 2.07-7.02 3.11-10.527l.058-.23H.927c-.141 0-.283 0-.407-.042-.425-.115-.624-.536-.466-.99.382-1.155.773-2.301 1.164-3.456.915-2.706 1.83-5.412 2.736-8.117C4.112.173 4.353 0 4.81 0h8.233c.565 0 .923.38.823.883-.025.132-.1.255-.166.37-1.323 2.236-2.645 4.464-3.967 6.7-.033.057-.066.115-.125.214z" fill="#61B7F2"/></svg>