<svg width="26" height="16" viewBox="0 0 26 16" fill="none" xmlns="http://www.w3.org/2000/svg">
<path fill-rule="evenodd" clip-rule="evenodd" d="M7.80005 9.33334H18.2V6.66667H7.80005V9.33334ZM2.47 8C2.47 4.93333 4.81 2.53333 7.8 2.53333H11.7V0H7.8C3.51 0 0 3.6 0 8C0 12.4 3.51 16 7.8 16H11.7V13.4667H7.8C4.81 13.4667 2.47 11.0667 2.47 8ZM18.2 0H14.3V2.53333H18.2C21.19 2.53333 23.53 4.93333 23.53 8C23.53 11.0667 21.19 13.4667 18.2 13.4667H14.3V16H18.2C22.49 16 26 12.4 26 8C26 3.6 22.49 0 18.2 0Z" fill="#005B9A"/>
</svg>
