<svg width="148" height="111" fill="none" xmlns="http://www.w3.org/2000/svg"><g filter="url(#filter0_d)"><path d="M129.15 101H67.52c-.737 0-1.37-.635-1.37-1.377V37.561c0-.742.633-1.377 1.37-1.377h61.628c.738 0 1.37.635 1.37 1.377v62.062c.105.742-.527 1.377-1.37 1.377z" fill="#FCB92C"/><path d="M36.45 73.289c20.131 0 36.45-16.407 36.45-36.645C72.9 16.406 56.581 0 36.45 0 16.32 0 0 16.406 0 36.644 0 56.883 16.32 73.29 36.45 73.29z" transform="translate(20.01 8.118)" fill="url(#paint0_radial)"/><path d="M54.247 79.289c20.131 0 36.45-16.407 36.45-36.645C90.697 22.406 74.378 6 54.247 6c-20.13 0-36.45 16.406-36.45 36.644 0 20.239 16.32 36.645 36.45 36.645z" fill="#61B7F2"/><path d="M16.85 60.967c2.738 0 4.74 2.118 4.74 4.765 0 2.648-2.002 4.766-4.74 4.766-2.845 0-4.741-2.118-4.741-4.766 0-2.647 1.896-4.765 4.74-4.765zm0 7.413c1.58 0 2.527-1.165 2.527-2.648 0-1.482-1.053-2.647-2.528-2.647-1.58 0-2.528 1.165-2.528 2.647 0 1.483.948 2.648 2.528 2.648zm6.53-7.096h3.688c1.896 0 3.16 1.165 3.16 2.86 0 1.588-.737 2.436-2.107 2.753l2.423 3.284h-2.739l-2.212-3.284v3.284h-2.212v-8.897zm3.899 3.813c.526 0 .842-.53.842-1.06a.833.833 0 0 0-.842-.846h-1.686v2.012h1.686v-.106zm55.834-21.394c.105.106.21.106.21.318.211 1.377 1.37 2.436 2.74 2.436 1.685 0 2.738-.953 2.738-2.33 0-2.012-2.633-2.648-4.846-3.389-4.53-1.589-7.058-3.813-7.058-8.473 0-4.766 4.109-8.79 9.165-8.79 5.794 0 8.639 3.6 9.166 8.367 0 .211 0 .317-.106.423-.105.106-.21.106-.21.106h-5.373s-.21 0-.21-.106c-.106-.106-.212-.212-.212-.317-.21-1.377-1.053-2.436-2.739-2.436-1.475 0-2.844.847-2.844 2.647 0 2.013 2.528 2.436 4.74 3.072 4.847 1.482 7.059 4.13 7.059 8.472 0 4.766-4.109 8.79-9.165 8.79-5.69 0-9.06-3.812-9.27-8.472 0-.106 0-.212.104-.318.106-.106.316-.106.316-.106h5.479s.21 0 .316.106zm-16.54-18.216a3.38 3.38 0 0 0 3.371-3.389 3.38 3.38 0 0 0-3.371-3.389 3.38 3.38 0 0 0-3.371 3.39 3.38 3.38 0 0 0 3.371 3.388zM26.12 24.322H8.737a.722.722 0 0 0-.737.742v4.554c0 .423.316.741.737.741h5.373v20.652c-.105.212.21.53.632.53h5.268a.722.722 0 0 0 .737-.742V30.253h5.478a.722.722 0 0 0 .737-.741v-4.448c-.105-.424-.42-.742-.842-.742zm29.602 0h-5.267a.722.722 0 0 0-.737.742v9.955H39.183v-9.955a.722.722 0 0 0-.738-.742h-5.267a.722.722 0 0 0-.737.742v25.841c0 .424.316.742.737.742h5.267a.722.722 0 0 0 .738-.742V40.844h10.535v9.955c0 .424.316.742.737.742h5.267a.722.722 0 0 0 .738-.742V24.958c-.106-.318-.422-.636-.738-.636zM63.307 50.8V29.83c0-.424.316-.742.738-.742h5.267c.421 0 .738.318.738.741v21.076a.722.722 0 0 1-.738.742h-5.267c-.422-.106-.738-.424-.738-.848zm-5.899 10.59H39.92a.722.722 0 0 0-.737.742v4.554c0 .423.316.741.737.741h5.373v20.652c0 .424.316.742.737.742h5.268a.722.722 0 0 0 .737-.742V67.321h5.478a.722.722 0 0 0 .737-.741v-4.554c-.21-.318-.526-.636-.842-.636zm81.749 0H121.67a.722.722 0 0 0-.737.742v4.554c0 .423.316.741.737.741h5.373v20.652c0 .424.316.742.738.742h5.267a.722.722 0 0 0 .737-.742V67.321h5.478a.722.722 0 0 0 .738-.741v-4.554c-.21-.318-.527-.636-.843-.636zm-52.252-.106h-5.267a.722.722 0 0 0-.738.742v9.955H70.366v-9.955a.722.722 0 0 0-.738-.742h-5.267a.722.722 0 0 0-.738.742v25.841c0 .424.316.742.738.742h5.267a.722.722 0 0 0 .738-.742V77.806H80.9v9.955c0 .424.316.742.738.742h5.267a.722.722 0 0 0 .738-.742V62.026a.722.722 0 0 0-.738-.742zm19.489-.529c.21-.106.843-.212 1.16 0 .315.212.42.423.42.423l12.642 26.901s.106.212 0 .424c-.105.212-.421.212-.421.212h-6.426l-1.475-2.86h-10.746l-1.264 2.86h-6.637s-.21 0-.21-.106c-.106-.106-.106-.318-.106-.318l12.642-27.113s.21-.317.421-.423zm3.687 20.334l-3.16-6.884h-.105l-3.16 6.884h6.425z" fill="#000"/></g><defs><filter id="filter0_d" x="0" y="0" width="148" height="111" filterUnits="userSpaceOnUse" color-interpolation-filters="sRGB"><feFlood flood-opacity="0" result="BackgroundImageFix"/><feColorMatrix in="SourceAlpha" values="0 0 0 0 0 0 0 0 0 0 0 0 0 0 0 0 0 0 255 0"/><feOffset dy="2"/><feGaussianBlur stdDeviation="4"/><feColorMatrix values="0 0 0 0 0 0 0 0 0 0 0 0 0 0 0 0 0 0 0.25 0"/><feBlend in2="BackgroundImageFix" result="effect1_dropShadow"/><feBlend in="SourceGraphic" in2="effect1_dropShadow" result="shape"/></filter><radialGradient id="paint0_radial" cx=".5" cy=".5" r=".5" gradientUnits="userSpaceOnUse" gradientTransform="matrix(72.8265 0 0 73.2146 .039 .073)"><stop/><stop offset=".855" stop-color="#2B2728"/><stop offset="1" stop-color="#fff" stop-opacity="0"/></radialGradient></defs></svg>