<svg width="148" height="111" viewBox="0 0 148 111" fill="none" xmlns="http://www.w3.org/2000/svg">
<g filter="url(#filter0_d)">
<path d="M62.9976 64.816H1.36951C0.632083 64.816 8.03735e-07 64.1806 8.03735e-07 63.4392V1.37681C8.03735e-07 0.635451 0.632083 0 1.36951 0H62.9976C63.735 0 64.3671 0.635451 64.3671 1.37681V63.4392C64.4725 64.1806 63.8404 64.816 62.9976 64.816Z" transform="translate(66.1516 36.184)" fill="#FCB92C"/>
<path d="M36.4501 73.2887C56.581 73.2887 72.9002 56.8825 72.9002 36.6444C72.9002 16.4062 56.581 0 36.4501 0C16.3193 0 0 16.4062 0 36.6444C0 56.8825 16.3193 73.2887 36.4501 73.2887Z" transform="translate(20.0096 8.11816)" fill="url(#paint0_radial)"/>
<path d="M36.4501 73.2887C56.581 73.2887 72.9002 56.8825 72.9002 36.6444C72.9002 16.4062 56.581 0 36.4501 0C16.3193 0 0 16.4062 0 36.6444C0 56.8825 16.3193 73.2887 36.4501 73.2887Z" transform="translate(17.7972 6)" fill="#61B7F2"/>
<path d="M4.74062 1.61604e-06C7.47965 1.61604e-06 9.48125 2.11817 9.48125 4.76589C9.48125 7.4136 7.47965 9.53177 4.74062 9.53177C1.89625 9.53177 1.00467e-07 7.4136 1.00467e-07 4.76589C1.00467e-07 2.11817 1.89625 1.61604e-06 4.74062 1.61604e-06ZM4.74062 7.4136C6.32083 7.4136 7.26896 6.24861 7.26896 4.76589C7.26896 3.28317 6.21548 2.11817 4.74062 2.11817C3.16041 2.11817 2.21229 3.28317 2.21229 4.76589C2.21229 6.24861 3.16041 7.4136 4.74062 7.4136Z" transform="translate(12.1085 60.9666)" fill="black"/>
<path d="M4.01868e-07 8.08018e-07H3.68715C5.5834 8.08018e-07 6.84757 1.165 6.84757 2.85953C6.84757 4.44816 6.11014 5.29543 4.74062 5.61316L7.16361 8.89632H4.42458L2.21229 5.61316V8.89632H4.01868e-07V8.08018e-07ZM3.89784 3.81271C4.42458 3.81271 4.74062 3.28317 4.74062 2.75362C4.74062 2.22408 4.31923 1.90635 3.89784 1.90635H2.21229V3.91862H3.89784V3.81271Z" transform="translate(23.3807 61.2843)" fill="black"/>
<path d="M6.21549 20.2285C6.32083 20.3344 6.42618 20.3344 6.42618 20.5463C6.63687 21.9231 7.79569 22.9822 9.1652 22.9822C10.8508 22.9822 11.9042 22.029 11.9042 20.6522C11.9042 18.6399 9.27055 18.0045 7.05826 17.2631C2.52833 15.6745 1.60747e-06 13.4504 1.60747e-06 8.79041C1.60747e-06 4.02453 4.10854 0 9.1652 0C14.9593 0 17.8037 3.60089 18.3304 8.36678C18.3304 8.5786 18.3304 8.6845 18.2251 8.79041C18.1197 8.89632 18.0144 8.89632 18.0144 8.89632H12.6417C12.6417 8.89632 12.431 8.89632 12.431 8.79041C12.3256 8.6845 12.2203 8.5786 12.2203 8.47269C12.0096 7.09588 11.1668 6.03679 9.48125 6.03679C8.00639 6.03679 6.63687 6.88406 6.63687 8.6845C6.63687 10.6968 9.1652 11.1204 11.3775 11.7559C16.2235 13.2386 18.4358 15.8863 18.4358 20.2285C18.4358 24.9944 14.3272 29.019 9.27055 29.019C3.5818 29.019 0.210696 25.2062 1.60747e-06 20.5463C1.60747e-06 20.4404 0 20.3344 0.105347 20.2285C0.210694 20.1226 0.421392 20.1226 0.421392 20.1226H5.89944C5.89944 20.1226 6.11014 20.1226 6.21549 20.2285Z" transform="translate(76.8971 23.4749)" fill="black"/>
<path d="M3.37111 6.77815C5.23292 6.77815 6.74222 5.26081 6.74222 3.38907C6.74222 1.51734 5.23292 0 3.37111 0C1.5093 0 0 1.51734 0 3.38907C0 5.26081 1.5093 6.77815 3.37111 6.77815Z" transform="translate(63.2019 18.709)" fill="black"/>
<path d="M18.1197 -8.08018e-07H0.73743C0.316042 -8.08018e-07 0 0.317726 0 0.74136V5.29543C0 5.71906 0.316042 6.03679 0.73743 6.03679H6.11014V26.689C6.00479 26.9008 6.32083 27.2185 6.74222 27.2185H12.0096C12.431 27.2185 12.747 26.9008 12.747 26.4771V5.93088H18.2251C18.6465 5.93088 18.9625 5.61316 18.9625 5.18952V0.74136C18.8571 0.317726 18.5411 -8.08018e-07 18.1197 -8.08018e-07Z" transform="translate(8 24.3222)" fill="black"/>
<path d="M23.2817 -8.08018e-07H18.0144C17.593 -8.08018e-07 17.2769 0.317726 17.2769 0.74136V10.6968H6.74222V0.74136C6.74222 0.317726 6.42618 -8.08018e-07 6.00479 -8.08018e-07H0.73743C0.316041 -8.08018e-07 8.03735e-07 0.317726 8.03735e-07 0.74136V26.5831C8.03735e-07 27.0067 0.316041 27.3244 0.73743 27.3244H6.00479C6.42618 27.3244 6.74222 27.0067 6.74222 26.5831V16.5217H17.2769V26.4771C17.2769 26.9008 17.593 27.2185 18.0144 27.2185H23.2817C23.7031 27.2185 24.0192 26.9008 24.0192 26.4771V0.635451C23.9138 0.317725 23.5978 -8.08018e-07 23.2817 -8.08018e-07Z" transform="translate(32.4406 24.3222)" fill="black"/>
<path d="M0 21.7113V0.74136C0 0.317726 0.316042 -8.08018e-07 0.737431 -8.08018e-07H6.00479C6.42618 -8.08018e-07 6.74222 0.317726 6.74222 0.74136V21.8172C6.74222 22.2408 6.42618 22.5585 6.00479 22.5585H0.737431C0.316042 22.4526 0 22.1349 0 21.7113Z" transform="translate(63.3073 29.0881)" fill="black"/>
<path d="M18.2251 -8.08018e-07H0.737429C0.316041 -8.08018e-07 4.01868e-07 0.317726 4.01868e-07 0.74136V5.29543C4.01868e-07 5.71906 0.316041 6.03679 0.737429 6.03679H6.11014V26.689C6.11014 27.1126 6.42618 27.4303 6.84756 27.4303H12.1149C12.5363 27.4303 12.8524 27.1126 12.8524 26.689V5.93088H18.3304C18.7518 5.93088 19.0678 5.61316 19.0678 5.18952V0.635453C18.8571 0.317727 18.5411 -8.08018e-07 18.2251 -8.08018e-07Z" transform="translate(39.1827 61.3902)" fill="black"/>
<path d="M18.2251 -8.08018e-07H0.737432C0.316043 -8.08018e-07 -3.21494e-06 0.317726 -3.21494e-06 0.74136V5.29543C-3.21494e-06 5.71906 0.316043 6.03679 0.737432 6.03679H6.11014V26.689C6.11014 27.1126 6.42617 27.4303 6.84756 27.4303H12.1149C12.5363 27.4303 12.8524 27.1126 12.8524 26.689V5.93088H18.3304C18.7518 5.93088 19.0678 5.61316 19.0678 5.18952V0.635453C18.8571 0.317727 18.5411 -8.08018e-07 18.2251 -8.08018e-07Z" transform="translate(120.932 61.3902)" fill="black"/>
<path d="M23.2817 8.08018e-07H18.0144C17.593 8.08018e-07 17.2769 0.317727 17.2769 0.741362V10.6968H6.74222V0.741362C6.74222 0.317727 6.42618 8.08018e-07 6.00479 8.08018e-07H0.73743C0.316041 8.08018e-07 -8.03735e-07 0.317727 -8.03735e-07 0.741362V26.5831C-8.03735e-07 27.0067 0.316041 27.3244 0.73743 27.3244H6.00479C6.42618 27.3244 6.74222 27.0067 6.74222 26.5831V16.5217H17.2769V26.4771C17.2769 26.9008 17.593 27.2185 18.0144 27.2185H23.2817C23.7031 27.2185 24.0192 26.9008 24.0192 26.4771V0.741362C24.0192 0.317727 23.7031 8.08018e-07 23.2817 8.08018e-07Z" transform="translate(63.6233 61.2843)" fill="black"/>
<path d="M13.0631 0.122294C13.2737 0.0163849 13.9058 -0.0895237 14.2219 0.122294C14.5379 0.334111 14.6433 0.545925 14.6433 0.545925L27.2849 27.4467C27.2849 27.4467 27.3903 27.6585 27.2849 27.8703C27.1796 28.0822 26.8635 28.0822 26.8635 28.0822H20.4374L18.9625 25.2226H8.21708L6.95291 28.0822H0.316045C0.316045 28.0822 0.105346 28.0822 0.105346 27.9762C-1.60904e-06 27.8703 0 27.6585 0 27.6585L12.6417 0.545925C12.6417 0.545925 12.8524 0.228202 13.0631 0.122294ZM16.7502 20.4567L13.5898 13.5727H13.4844L10.324 20.4567H16.7502Z" transform="translate(93.3312 60.6324)" fill="black"/>
</g>
<defs>
<filter id="filter0_d" x="0" y="0" width="148" height="111" filterUnits="userSpaceOnUse" color-interpolation-filters="sRGB">
<feFlood flood-opacity="0" result="BackgroundImageFix"/>
<feColorMatrix in="SourceAlpha" type="matrix" values="0 0 0 0 0 0 0 0 0 0 0 0 0 0 0 0 0 0 255 0"/>
<feOffset dy="2"/>
<feGaussianBlur stdDeviation="4"/>
<feColorMatrix type="matrix" values="0 0 0 0 0 0 0 0 0 0 0 0 0 0 0 0 0 0 0.25 0"/>
<feBlend mode="normal" in2="BackgroundImageFix" result="effect1_dropShadow"/>
<feBlend mode="normal" in="SourceGraphic" in2="effect1_dropShadow" result="shape"/>
</filter>
<radialGradient id="paint0_radial" cx="0.5" cy="0.5" r="0.5" gradientUnits="userSpaceOnUse" gradientTransform="translate(0.0387678 0.0733946) scale(72.8265 73.2146)">
<stop/>
<stop offset="0.8549" stop-color="#2B2728"/>
<stop offset="1" stop-color="white" stop-opacity="0"/>
</radialGradient>
</defs>
</svg>
