<svg width="420" height="436" viewBox="0 0 420 436" fill="none" xmlns="http://www.w3.org/2000/svg">
<rect width="203" height="129" transform="translate(1 116)" fill="#C4C4C4"/>
<path d="M78.6195 26H82.5955V10.796H87.2155V6.96H73.9995V10.796H78.6195V26ZM102.552 26H106.528V6.96H102.552V14.492H93.8436V6.96H89.8676V26H93.8436V18.328H102.552V26ZM110.704 26H114.68V6.96H110.704V26ZM128.651 7.52C127.475 6.988 125.991 6.652 124.563 6.652C119.635 6.652 117.927 9.536 117.927 12.196C117.927 14.352 118.711 15.976 121.231 17.432L123.835 18.972C124.899 19.588 125.347 20.176 125.347 20.82C125.347 21.856 124.507 22.584 122.995 22.584C121.231 22.584 119.383 21.744 118.347 20.932V25.328C119.551 25.832 121.287 26.308 123.163 26.308C127.587 26.308 129.575 23.592 129.575 20.596C129.575 18.468 128.595 16.816 126.131 15.332L123.611 13.82C122.687 13.288 122.183 12.7 122.183 12.084C122.183 11.104 122.939 10.376 124.535 10.376C125.991 10.376 127.671 11.048 128.651 11.748V7.52Z" transform="translate(0 164)" fill="white"/>
<rect width="203" height="129" transform="translate(216 116)" fill="#FCB92C"/>
<path d="M73.848 26H77.824V10.796H82.444V6.96H69.228V10.796H73.848V26ZM97.7801 26H101.756V6.96H97.7801V14.492H89.0721V6.96H85.0961V26H89.0721V18.328H97.7801V26ZM117.832 26H122.284L115.228 6.96H110.776L103.72 26H108.172L109.6 21.94H116.404L117.832 26ZM113.016 12.168L115.116 18.104H110.916L113.016 12.168ZM126.184 26H130.16V10.796H134.78V6.96H121.564V10.796H126.184V26Z" transform="translate(216 164)" fill="white"/>
<path d="M29.9283 48.7251C30.0747 49.048 30.1625 49.3123 30.2797 49.5471C33.7059 57.0043 37.1028 64.4614 40.5291 71.9186C41.4369 73.915 40.9098 75.3242 38.9477 76.2343C36.5464 77.35 34.1159 78.4656 31.7146 79.5519C29.6354 80.4914 28.2591 79.9629 27.3513 77.8784C24.1007 70.3038 20.8209 62.7293 17.5704 55.1547C17.4826 54.9198 17.3654 54.7143 17.2483 54.4207C16.0184 55.5657 14.8177 56.652 13.6463 57.7676C10.7179 60.498 7.78955 63.2284 4.86115 65.9881C3.92406 66.8982 2.86983 67.2212 1.66919 66.7221C0.43926 66.1936 0 65.1661 0 63.8743C0 43.5873 0 23.3003 0 3.01335C0 1.78028 0.380692 0.811433 1.55205 0.282973C2.7527 -0.274845 3.80692 0.0187436 4.77329 0.928868C13.3535 8.9732 21.963 17.0175 30.5432 25.0619C36.6343 30.7575 42.7254 36.4237 48.7872 42.1487C49.3143 42.6478 49.7535 43.3524 49.9292 44.0277C50.2806 45.4663 49.285 46.8461 47.7915 47.0516C45.8002 47.3159 43.8089 47.4627 41.8176 47.6388C37.8935 48.0205 33.9694 48.3728 29.9283 48.7251Z" transform="translate(333 222)" fill="#005B9A"/>
<path d="M0.24 5.156L2.028 11H3.096L4.536 7.04L6.156 11H7.212L9.012 5.156H7.968L6.624 9.752L4.776 5.156H3.756L4.044 5.888L2.628 9.752L1.284 5.156H0.24ZM15.3081 8.444C15.3321 8.324 15.3561 8.084 15.3561 7.904C15.3561 6.308 14.2161 5.036 12.5361 5.036C10.8681 5.036 9.62006 6.368 9.62006 8.072C9.62006 9.848 10.9041 11.12 12.5961 11.12C13.4961 11.12 14.2641 10.832 14.7681 10.508V9.476C14.2761 9.86 13.4721 10.208 12.6681 10.208C11.5641 10.208 10.7481 9.476 10.6281 8.444H15.3081ZM12.5361 5.9C13.5561 5.9 14.3721 6.596 14.3841 7.652H10.6281C10.7001 6.668 11.4921 5.9 12.5361 5.9ZM17.5388 5.156H16.5428V11H17.5388V5.156ZM16.3868 3.32C16.3868 3.692 16.6748 3.968 17.0348 3.968C17.4308 3.968 17.7068 3.692 17.7068 3.32C17.7068 2.948 17.4308 2.66 17.0348 2.66C16.6748 2.66 16.3868 2.948 16.3868 3.32ZM23.8593 5.156V6.308C23.4393 5.54 22.6593 5.036 21.6633 5.036C20.0313 5.036 18.8193 6.332 18.8193 8C18.8193 9.68 20.0313 10.952 21.6633 10.952C22.6593 10.952 23.4393 10.46 23.8593 9.728V10.676C23.8593 11.84 22.9953 12.632 21.8313 12.632C21.0393 12.632 20.2353 12.332 19.7673 11.996V13.076C20.1873 13.316 20.9553 13.58 21.8193 13.58C23.6313 13.58 24.8553 12.452 24.8553 10.556V5.156H23.8593ZM23.8113 8C23.8113 9.116 22.9833 9.98 21.8433 9.98C20.7273 9.98 19.8873 9.116 19.8873 8C19.8873 6.896 20.7273 6.032 21.8433 6.032C22.9833 6.032 23.8113 6.896 23.8113 8ZM27.5349 2.72H26.5389V11H27.5349V7.52C27.5709 6.62 28.1109 6.02 29.0109 6.02C29.9229 6.02 30.4869 6.668 30.4869 7.592V11H31.4829V7.352C31.4829 6.02 30.6309 5.036 29.2869 5.036C28.4469 5.036 27.8589 5.456 27.5349 6.08V2.72ZM36.8865 5.156H35.8905V11H36.8865V5.156ZM35.7345 3.32C35.7345 3.692 36.0225 3.968 36.3825 3.968C36.7785 3.968 37.0545 3.692 37.0545 3.32C37.0545 2.948 36.7785 2.66 36.3825 2.66C36.0225 2.66 35.7345 2.948 35.7345 3.32ZM39.5349 5.156H38.5389V11H39.5349V7.52C39.5709 6.62 40.1109 6.02 41.0109 6.02C41.9229 6.02 42.4869 6.668 42.4869 7.592V11H43.4829V7.352C43.4829 6.02 42.6309 5.036 41.2869 5.036C40.4349 5.036 39.8589 5.456 39.5349 6.08V5.156ZM47.5065 8.072C47.5065 9.8 48.8385 11.12 50.5425 11.12C52.2705 11.12 53.5785 9.8 53.5785 8.072C53.5785 6.368 52.2705 5.036 50.5425 5.036C48.8385 5.036 47.5065 6.368 47.5065 8.072ZM48.5385 8.072C48.5385 6.932 49.4025 6.02 50.5425 6.02C51.6945 6.02 52.5585 6.932 52.5585 8.072C52.5585 9.224 51.6945 10.148 50.5425 10.148C49.4025 10.148 48.5385 9.224 48.5385 8.072ZM55.8592 5.156H54.8632V11H55.8592V7.52C55.8952 6.62 56.4352 6.02 57.3352 6.02C58.2472 6.02 58.8112 6.668 58.8112 7.592V11H59.8072V7.352C59.8072 6.02 58.9552 5.036 57.6112 5.036C56.7592 5.036 56.1832 5.456 55.8592 6.08V5.156ZM63.8307 8.072C63.8307 9.8 65.1627 11.12 66.8667 11.12C68.5947 11.12 69.9027 9.8 69.9027 8.072C69.9027 6.368 68.5947 5.036 66.8667 5.036C65.1627 5.036 63.8307 6.368 63.8307 8.072ZM64.8627 8.072C64.8627 6.932 65.7267 6.02 66.8667 6.02C68.0187 6.02 68.8827 6.932 68.8827 8.072C68.8827 9.224 68.0187 10.148 66.8667 10.148C65.7267 10.148 64.8627 9.224 64.8627 8.072ZM72.5342 11V6.02H73.6862V5.156H72.5342V3.476L71.5862 3.728V5.156H70.4462V6.02H71.5382V11H72.5342ZM75.6638 2.72H74.6678V11H75.6638V7.52C75.6998 6.62 76.2398 6.02 77.1398 6.02C78.0518 6.02 78.6158 6.668 78.6158 7.592V11H79.6118V7.352C79.6118 6.02 78.7598 5.036 77.4158 5.036C76.5758 5.036 75.9878 5.456 75.6638 6.08V2.72ZM86.5229 8.444C86.5469 8.324 86.5709 8.084 86.5709 7.904C86.5709 6.308 85.4309 5.036 83.7509 5.036C82.0829 5.036 80.8349 6.368 80.8349 8.072C80.8349 9.848 82.1189 11.12 83.8109 11.12C84.7109 11.12 85.4789 10.832 85.9829 10.508V9.476C85.4909 9.86 84.6869 10.208 83.8829 10.208C82.7789 10.208 81.9629 9.476 81.8429 8.444H86.5229ZM83.7509 5.9C84.7709 5.9 85.5869 6.596 85.5989 7.652H81.8429C81.9149 6.668 82.7069 5.9 83.7509 5.9ZM88.7537 5.156H87.7577V11H88.7537V7.52C88.7897 6.62 89.2097 6.02 90.0497 6.02C90.3137 6.02 90.5657 6.08 90.7577 6.164V5.096C90.6017 5.06 90.4217 5.036 90.2657 5.036C89.5217 5.036 89.0297 5.408 88.7537 5.948V5.156ZM92.4972 5.72L93.0972 2.84H91.9572L91.5852 5.72H92.4972ZM97.3093 5.336C96.9733 5.168 96.4813 5.036 95.9653 5.036C94.6813 5.036 93.9853 5.732 93.9853 6.644C93.9853 7.196 94.2373 7.688 94.8493 8.048L95.9293 8.696C96.3733 8.96 96.5293 9.188 96.5293 9.488C96.5293 9.932 96.1693 10.244 95.5093 10.244C94.9093 10.244 94.3453 9.956 94.0453 9.692V10.772C94.4053 10.952 94.9573 11.12 95.5573 11.12C96.7933 11.12 97.5613 10.484 97.5613 9.488C97.5613 8.936 97.3333 8.432 96.5773 7.976L95.5453 7.364C95.1973 7.148 95.0293 6.98 95.0293 6.668C95.0293 6.248 95.3533 5.924 95.9773 5.924C96.4573 5.924 96.9373 6.116 97.3093 6.392V5.336ZM1.824 19.156H0.828V27.46H1.824V23.836C2.244 24.616 3.036 25.12 4.032 25.12C5.712 25.12 6.936 23.8 6.936 22.072C6.936 20.368 5.712 19.036 4.044 19.036C3.036 19.036 2.244 19.552 1.824 20.38V19.156ZM1.824 22.072C1.824 20.944 2.7 20.02 3.864 20.02C5.016 20.02 5.892 20.944 5.892 22.072C5.892 23.224 5.016 24.136 3.864 24.136C2.7 24.136 1.824 23.224 1.824 22.072ZM7.83853 22.072C7.83853 23.8 9.17053 25.12 10.8745 25.12C12.6025 25.12 13.9105 23.8 13.9105 22.072C13.9105 20.368 12.6025 19.036 10.8745 19.036C9.17053 19.036 7.83853 20.368 7.83853 22.072ZM8.87053 22.072C8.87053 20.932 9.73453 20.02 10.8745 20.02C12.0265 20.02 12.8905 20.932 12.8905 22.072C12.8905 23.224 12.0265 24.148 10.8745 24.148C9.73453 24.148 8.87053 23.224 8.87053 22.072ZM16.2032 16.72H15.2072V25H16.2032V16.72ZM18.8868 16.72H17.8908V25H18.8868V16.72ZM23.5984 19.336C23.2624 19.168 22.7704 19.036 22.2544 19.036C20.9704 19.036 20.2744 19.732 20.2744 20.644C20.2744 21.196 20.5264 21.688 21.1384 22.048L22.2184 22.696C22.6624 22.96 22.8184 23.188 22.8184 23.488C22.8184 23.932 22.4584 24.244 21.7984 24.244C21.1984 24.244 20.6344 23.956 20.3344 23.692V24.772C20.6944 24.952 21.2464 25.12 21.8464 25.12C23.0824 25.12 23.8504 24.484 23.8504 23.488C23.8504 22.936 23.6224 22.432 22.8664 21.976L21.8344 21.364C21.4864 21.148 21.3184 20.98 21.3184 20.668C21.3184 20.248 21.6424 19.924 22.2664 19.924C22.7464 19.924 23.2264 20.116 23.5984 20.392V19.336ZM28.9529 23.836C29.3729 24.616 30.1769 25.12 31.1729 25.12C32.8409 25.12 34.0649 23.8 34.0649 22.072C34.0649 20.368 32.8409 19.036 31.1729 19.036C30.1769 19.036 29.3729 19.552 28.9529 20.332V16.72H27.9569V25H28.9529V23.836ZM28.9529 22.072C28.9529 20.944 29.8289 20.02 30.9929 20.02C32.1449 20.02 33.0209 20.944 33.0209 22.072C33.0209 23.224 32.1449 24.136 30.9929 24.136C29.8289 24.136 28.9529 23.224 28.9529 22.072ZM40.6674 22.444C40.6914 22.324 40.7154 22.084 40.7154 21.904C40.7154 20.308 39.5754 19.036 37.8954 19.036C36.2274 19.036 34.9794 20.368 34.9794 22.072C34.9794 23.848 36.2634 25.12 37.9554 25.12C38.8554 25.12 39.6234 24.832 40.1274 24.508V23.476C39.6354 23.86 38.8314 24.208 38.0274 24.208C36.9234 24.208 36.1074 23.476 35.9874 22.444H40.6674ZM37.8954 19.9C38.9154 19.9 39.7314 20.596 39.7434 21.652H35.9874C36.0594 20.668 36.8514 19.9 37.8954 19.9ZM42.9102 16.72H41.9142V25H42.9102V16.72ZM44.2018 22.072C44.2018 23.8 45.5338 25.12 47.2378 25.12C48.9658 25.12 50.2738 23.8 50.2738 22.072C50.2738 20.368 48.9658 19.036 47.2378 19.036C45.5338 19.036 44.2018 20.368 44.2018 22.072ZM45.2338 22.072C45.2338 20.932 46.0978 20.02 47.2378 20.02C48.3898 20.02 49.2538 20.932 49.2538 22.072C49.2538 23.224 48.3898 24.148 47.2378 24.148C46.0978 24.148 45.2338 23.224 45.2338 22.072ZM50.8767 19.156L52.6647 25H53.7327L55.1727 21.04L56.7927 25H57.8487L59.6487 19.156H58.6047L57.2607 23.752L55.4127 19.156H54.3927L54.6807 19.888L53.2647 23.752L51.9207 19.156H50.8767ZM64.2967 23.836C64.7167 24.616 65.5207 25.12 66.5167 25.12C68.1847 25.12 69.4087 23.8 69.4087 22.072C69.4087 20.368 68.1847 19.036 66.5167 19.036C65.5207 19.036 64.7167 19.552 64.2967 20.332V16.72H63.3007V25H64.2967V23.836ZM64.2967 22.072C64.2967 20.944 65.1727 20.02 66.3367 20.02C67.4887 20.02 68.3647 20.944 68.3647 22.072C68.3647 23.224 67.4887 24.136 66.3367 24.136C65.1727 24.136 64.2967 23.224 64.2967 22.072ZM70.796 27.46H71.948L75.512 19.156H74.372L72.656 23.296L70.988 19.156H69.848L72.104 24.556L70.796 27.46ZM5.028 37.632C4.656 37.932 4.104 38.148 3.516 38.148C2.352 38.148 1.476 37.224 1.476 36.072C1.476 34.932 2.352 34.02 3.516 34.02C4.116 34.02 4.644 34.224 5.028 34.536V33.432C4.62 33.192 4.032 33.036 3.516 33.036C1.74 33.036 0.456 34.356 0.456 36.072C0.456 37.8 1.74 39.12 3.516 39.12C4.044 39.12 4.62 38.964 5.028 38.712V37.632ZM7.36725 30.72H6.37125V39H7.36725V30.72ZM10.0388 33.156H9.04284V39H10.0388V33.156ZM8.88684 31.32C8.88684 31.692 9.17484 31.968 9.53484 31.968C9.93084 31.968 10.2068 31.692 10.2068 31.32C10.2068 30.948 9.93084 30.66 9.53484 30.66C9.17484 30.66 8.88684 30.948 8.88684 31.32ZM15.8913 37.632C15.5193 37.932 14.9673 38.148 14.3793 38.148C13.2153 38.148 12.3393 37.224 12.3393 36.072C12.3393 34.932 13.2153 34.02 14.3793 34.02C14.9793 34.02 15.5073 34.224 15.8913 34.536V33.432C15.4833 33.192 14.8953 33.036 14.3793 33.036C12.6033 33.036 11.3193 34.356 11.3193 36.072C11.3193 37.8 12.6033 39.12 14.3793 39.12C14.9073 39.12 15.4833 38.964 15.8913 38.712V37.632ZM17.2225 39H18.2185V37.212L19.0825 36.204L20.6425 39H21.8185L19.8265 35.496L21.7705 33.156H20.5705L18.2185 35.94V30.72H17.2225V39ZM23.7732 33.156H22.7772V39H23.7732V33.156ZM22.6212 31.32C22.6212 31.692 22.9092 31.968 23.2692 31.968C23.6652 31.968 23.9412 31.692 23.9412 31.32C23.9412 30.948 23.6652 30.66 23.2692 30.66C22.9092 30.66 22.6212 30.948 22.6212 31.32ZM26.4217 33.156H25.4257V39H26.4217V35.52C26.4577 34.62 26.9977 34.02 27.8977 34.02C28.8097 34.02 29.3737 34.668 29.3737 35.592V39H30.3697V35.352C30.3697 34.02 29.5177 33.036 28.1737 33.036C27.3217 33.036 26.7457 33.456 26.4217 34.08V33.156ZM36.6327 33.156V34.308C36.2127 33.54 35.4327 33.036 34.4367 33.036C32.8047 33.036 31.5927 34.332 31.5927 36C31.5927 37.68 32.8047 38.952 34.4367 38.952C35.4327 38.952 36.2127 38.46 36.6327 37.728V38.676C36.6327 39.84 35.7687 40.632 34.6047 40.632C33.8127 40.632 33.0087 40.332 32.5407 39.996V41.076C32.9607 41.316 33.7287 41.58 34.5927 41.58C36.4047 41.58 37.6287 40.452 37.6287 38.556V33.156H36.6327ZM36.5847 36C36.5847 37.116 35.7567 37.98 34.6167 37.98C33.5007 37.98 32.6607 37.116 32.6607 36C32.6607 34.896 33.5007 34.032 34.6167 34.032C35.7567 34.032 36.5847 34.896 36.5847 36ZM42.2929 34.428C42.7609 34.14 43.3009 33.948 43.8769 33.948C44.5729 33.948 45.2329 34.332 45.2329 35.268V35.94C44.9449 35.58 44.3449 35.256 43.7089 35.256C42.5089 35.256 41.6569 36.096 41.6569 37.176C41.6569 38.232 42.4129 39.12 43.6969 39.12C44.3689 39.12 44.9209 38.82 45.2329 38.364V39H46.2289V35.28C46.2289 33.708 45.2929 33.036 43.9729 33.036C43.3249 33.036 42.7249 33.228 42.2929 33.444V34.428ZM42.6529 37.176C42.6529 36.54 43.2289 36.024 43.9369 36.024C44.6209 36.024 45.2209 36.54 45.2209 37.176C45.2209 37.836 44.6449 38.352 43.9369 38.352C43.2409 38.352 42.6529 37.836 42.6529 37.176ZM48.8162 33.156H47.8202V39H48.8162V35.52C48.8522 34.62 49.3922 34.02 50.2922 34.02C51.2042 34.02 51.7682 34.668 51.7682 35.592V39H52.7642V35.352C52.7642 34.02 51.9122 33.036 50.5682 33.036C49.7162 33.036 49.1402 33.456 48.8162 34.08V33.156ZM56.7878 36.072C56.7878 37.8 58.1198 39.12 59.8237 39.12C61.5517 39.12 62.8597 37.8 62.8597 36.072C62.8597 34.368 61.5517 33.036 59.8237 33.036C58.1198 33.036 56.7878 34.368 56.7878 36.072ZM57.8198 36.072C57.8198 34.932 58.6837 34.02 59.8237 34.02C60.9758 34.02 61.8398 34.932 61.8398 36.072C61.8398 37.224 60.9758 38.148 59.8237 38.148C58.6837 38.148 57.8198 37.224 57.8198 36.072ZM65.1404 33.156H64.1444V41.46H65.1404V37.836C65.5604 38.616 66.3524 39.12 67.3484 39.12C69.0284 39.12 70.2524 37.8 70.2524 36.072C70.2524 34.368 69.0284 33.036 67.3604 33.036C66.3524 33.036 65.5604 33.552 65.1404 34.38V33.156ZM65.1404 36.072C65.1404 34.944 66.0164 34.02 67.1804 34.02C68.3324 34.02 69.2084 34.944 69.2084 36.072C69.2084 37.224 68.3324 38.136 67.1804 38.136C66.0164 38.136 65.1404 37.224 65.1404 36.072ZM72.8857 39V34.02H74.0378V33.156H72.8857V31.476L71.9378 31.728V33.156H70.7978V34.02H71.8898V39H72.8857ZM76.0154 33.156H75.0194V39H76.0154V33.156ZM74.8634 31.32C74.8634 31.692 75.1514 31.968 75.5114 31.968C75.9074 31.968 76.1834 31.692 76.1834 31.32C76.1834 30.948 75.9074 30.66 75.5114 30.66C75.1514 30.66 74.8634 30.948 74.8634 31.32ZM77.2838 36.072C77.2838 37.8 78.6158 39.12 80.3198 39.12C82.0478 39.12 83.3558 37.8 83.3558 36.072C83.3558 34.368 82.0478 33.036 80.3198 33.036C78.6158 33.036 77.2838 34.368 77.2838 36.072ZM78.3158 36.072C78.3158 34.932 79.1798 34.02 80.3198 34.02C81.4718 34.02 82.3358 34.932 82.3358 36.072C82.3358 37.224 81.4718 38.148 80.3198 38.148C79.1798 38.148 78.3158 37.224 78.3158 36.072ZM85.6365 33.156H84.6405V39H85.6365V35.52C85.6725 34.62 86.2125 34.02 87.1125 34.02C88.0245 34.02 88.5885 34.668 88.5885 35.592V39H89.5845V35.352C89.5845 34.02 88.7325 33.036 87.3885 33.036C86.5365 33.036 85.9605 33.456 85.6365 34.08V33.156Z" transform="translate(3 25)" fill="#005B9A"/>
<path d="M3.472 13H5.698L9.226 3.48H7L4.592 10.69L2.17 3.48H-0.056L3.472 13ZM9.38973 8.24C9.38973 11.026 11.5037 13.154 14.2897 13.154C17.0757 13.154 19.1897 11.026 19.1897 8.24C19.1897 5.454 17.0757 3.326 14.2897 3.326C11.5037 3.326 9.38973 5.454 9.38973 8.24ZM11.4337 8.24C11.4337 6.63 12.6657 5.314 14.2897 5.314C15.8997 5.314 17.1317 6.63 17.1317 8.24C17.1317 9.864 15.8997 11.166 14.2897 11.166C12.6657 11.166 11.4337 9.864 11.4337 8.24ZM22.0451 13H24.0331V5.398H26.3431V3.48H19.7351V5.398H22.0451V13ZM33.0871 13V11.082H29.6571V9.164H32.8071V7.246H29.6571V5.398H33.0871V3.48H27.6691V13H33.0871Z" transform="translate(3)" fill="#005B9A"/>
<path d="M5.208 7.712V6.728H2.088V3.824H5.448V2.84H1.056V11H2.088V7.712H5.208ZM6.27994 8.072C6.27994 9.8 7.61194 11.12 9.31594 11.12C11.0439 11.12 12.3519 9.8 12.3519 8.072C12.3519 6.368 11.0439 5.036 9.31594 5.036C7.61194 5.036 6.27994 6.368 6.27994 8.072ZM7.31194 8.072C7.31194 6.932 8.17594 6.02 9.31594 6.02C10.4679 6.02 11.3319 6.932 11.3319 8.072C11.3319 9.224 10.4679 10.148 9.31594 10.148C8.17594 10.148 7.31194 9.224 7.31194 8.072ZM14.6446 2.72H13.6486V11H14.6446V2.72ZM17.3282 2.72H16.3322V11H17.3282V2.72ZM18.6198 8.072C18.6198 9.8 19.9518 11.12 21.6558 11.12C23.3838 11.12 24.6918 9.8 24.6918 8.072C24.6918 6.368 23.3838 5.036 21.6558 5.036C19.9518 5.036 18.6198 6.368 18.6198 8.072ZM19.6518 8.072C19.6518 6.932 20.5158 6.02 21.6558 6.02C22.8078 6.02 23.6718 6.932 23.6718 8.072C23.6718 9.224 22.8078 10.148 21.6558 10.148C20.5158 10.148 19.6518 9.224 19.6518 8.072ZM25.2947 5.156L27.0827 11H28.1507L29.5907 7.04L31.2107 11H32.2667L34.0667 5.156H33.0227L31.6787 9.752L29.8307 5.156H28.8107L29.0987 5.888L27.6827 9.752L26.3387 5.156H25.2947ZM39.0654 11V6.02H40.2174V5.156H39.0654V3.476L38.1174 3.728V5.156H36.9774V6.02H38.0694V11H39.0654ZM40.7096 8.072C40.7096 9.8 42.0416 11.12 43.7456 11.12C45.4736 11.12 46.7816 9.8 46.7816 8.072C46.7816 6.368 45.4736 5.036 43.7456 5.036C42.0416 5.036 40.7096 6.368 40.7096 8.072ZM41.7416 8.072C41.7416 6.932 42.6056 6.02 43.7456 6.02C44.8976 6.02 45.7616 6.932 45.7616 8.072C45.7616 9.224 44.8976 10.148 43.7456 10.148C42.6056 10.148 41.7416 9.224 41.7416 8.072ZM50.8788 11H51.8748V9.212L52.7388 8.204L54.2988 11H55.4748L53.4828 7.496L55.4268 5.156H54.2268L51.8748 7.94V2.72H50.8788V11ZM61.5737 8.444C61.5977 8.324 61.6217 8.084 61.6217 7.904C61.6217 6.308 60.4817 5.036 58.8017 5.036C57.1337 5.036 55.8857 6.368 55.8857 8.072C55.8857 9.848 57.1697 11.12 58.8617 11.12C59.7617 11.12 60.5297 10.832 61.0337 10.508V9.476C60.5417 9.86 59.7377 10.208 58.9337 10.208C57.8297 10.208 57.0137 9.476 56.8937 8.444H61.5737ZM58.8017 5.9C59.8217 5.9 60.6377 6.596 60.6497 7.652H56.8937C56.9657 6.668 57.7577 5.9 58.8017 5.9ZM68.1245 8.444C68.1485 8.324 68.1725 8.084 68.1725 7.904C68.1725 6.308 67.0325 5.036 65.3525 5.036C63.6845 5.036 62.4365 6.368 62.4365 8.072C62.4365 9.848 63.7205 11.12 65.4125 11.12C66.3125 11.12 67.0805 10.832 67.5845 10.508V9.476C67.0925 9.86 66.2885 10.208 65.4845 10.208C64.3805 10.208 63.5645 9.476 63.4445 8.444H68.1245ZM65.3525 5.9C66.3725 5.9 67.1885 6.596 67.2005 7.652H63.4445C63.5165 6.668 64.3085 5.9 65.3525 5.9ZM70.3552 5.156H69.3592V13.46H70.3552V9.836C70.7753 10.616 71.5672 11.12 72.5632 11.12C74.2433 11.12 75.4673 9.8 75.4673 8.072C75.4673 6.368 74.2433 5.036 72.5753 5.036C71.5672 5.036 70.7753 5.552 70.3552 6.38V5.156ZM70.3552 8.072C70.3552 6.944 71.2312 6.02 72.3952 6.02C73.5473 6.02 74.4232 6.944 74.4232 8.072C74.4232 9.224 73.5473 10.136 72.3952 10.136C71.2312 10.136 70.3552 9.224 70.3552 8.072ZM80.9131 11V6.02H82.0651V5.156H80.9131V3.476L79.9651 3.728V5.156H78.8251V6.02H79.9171V11H80.9131ZM83.1796 6.428C83.6476 6.14 84.1876 5.948 84.7636 5.948C85.4596 5.948 86.1196 6.332 86.1196 7.268V7.94C85.8316 7.58 85.2316 7.256 84.5956 7.256C83.3956 7.256 82.5436 8.096 82.5436 9.176C82.5436 10.232 83.2996 11.12 84.5836 11.12C85.2556 11.12 85.8076 10.82 86.1196 10.364V11H87.1156V7.28C87.1156 5.708 86.1796 5.036 84.8596 5.036C84.2116 5.036 83.6116 5.228 83.1796 5.444V6.428ZM83.5396 9.176C83.5396 8.54 84.1156 8.024 84.8236 8.024C85.5076 8.024 86.1076 8.54 86.1076 9.176C86.1076 9.836 85.5316 10.352 84.8236 10.352C84.1276 10.352 83.5396 9.836 83.5396 9.176ZM89.7029 9.836C90.1229 10.616 90.9269 11.12 91.9229 11.12C93.5909 11.12 94.8149 9.8 94.8149 8.072C94.8149 6.368 93.5909 5.036 91.9229 5.036C90.9269 5.036 90.1229 5.552 89.7029 6.332V2.72H88.7069V11H89.7029V9.836ZM89.7029 8.072C89.7029 6.944 90.5789 6.02 91.7429 6.02C92.8949 6.02 93.7709 6.944 93.7709 8.072C93.7709 9.224 92.8949 10.136 91.7429 10.136C90.5789 10.136 89.7029 9.224 89.7029 8.072ZM99.1374 5.336C98.8014 5.168 98.3094 5.036 97.7934 5.036C96.5094 5.036 95.8134 5.732 95.8134 6.644C95.8134 7.196 96.0654 7.688 96.6774 8.048L97.7574 8.696C98.2014 8.96 98.3574 9.188 98.3574 9.488C98.3574 9.932 97.9974 10.244 97.3374 10.244C96.7374 10.244 96.1734 9.956 95.8734 9.692V10.772C96.2334 10.952 96.7854 11.12 97.3854 11.12C98.6214 11.12 99.3894 10.484 99.3894 9.488C99.3894 8.936 99.1614 8.432 98.4054 7.976L97.3734 7.364C97.0254 7.148 96.8574 6.98 96.8574 6.668C96.8574 6.248 97.1814 5.924 97.8054 5.924C98.2854 5.924 98.7654 6.116 99.1374 6.392V5.336ZM103.112 8.072C103.112 9.8 104.444 11.12 106.148 11.12C107.876 11.12 109.184 9.8 109.184 8.072C109.184 6.368 107.876 5.036 106.148 5.036C104.444 5.036 103.112 6.368 103.112 8.072ZM104.144 8.072C104.144 6.932 105.008 6.02 106.148 6.02C107.3 6.02 108.164 6.932 108.164 8.072C108.164 9.224 107.3 10.148 106.148 10.148C105.008 10.148 104.144 9.224 104.144 8.072ZM111.465 5.156H110.469V11H111.465V7.52C111.501 6.62 112.041 6.02 112.941 6.02C113.853 6.02 114.417 6.668 114.417 7.592V11H115.413V7.352C115.413 6.02 114.561 5.036 113.217 5.036C112.365 5.036 111.789 5.456 111.465 6.08V5.156ZM1.824 19.156H0.828V27.46H1.824V23.836C2.244 24.616 3.036 25.12 4.032 25.12C5.712 25.12 6.936 23.8 6.936 22.072C6.936 20.368 5.712 19.036 4.044 19.036C3.036 19.036 2.244 19.552 1.824 20.38V19.156ZM1.824 22.072C1.824 20.944 2.7 20.02 3.864 20.02C5.016 20.02 5.892 20.944 5.892 22.072C5.892 23.224 5.016 24.136 3.864 24.136C2.7 24.136 1.824 23.224 1.824 22.072ZM7.83853 22.072C7.83853 23.8 9.17053 25.12 10.8745 25.12C12.6025 25.12 13.9105 23.8 13.9105 22.072C13.9105 20.368 12.6025 19.036 10.8745 19.036C9.17053 19.036 7.83853 20.368 7.83853 22.072ZM8.87053 22.072C8.87053 20.932 9.73453 20.02 10.8745 20.02C12.0265 20.02 12.8905 20.932 12.8905 22.072C12.8905 23.224 12.0265 24.148 10.8745 24.148C9.73453 24.148 8.87053 23.224 8.87053 22.072ZM16.2032 16.72H15.2072V25H16.2032V16.72ZM18.8868 16.72H17.8908V25H18.8868V16.72ZM23.5984 19.336C23.2624 19.168 22.7704 19.036 22.2544 19.036C20.9704 19.036 20.2744 19.732 20.2744 20.644C20.2744 21.196 20.5264 21.688 21.1384 22.048L22.2184 22.696C22.6624 22.96 22.8184 23.188 22.8184 23.488C22.8184 23.932 22.4584 24.244 21.7984 24.244C21.1984 24.244 20.6344 23.956 20.3344 23.692V24.772C20.6944 24.952 21.2464 25.12 21.8464 25.12C23.0824 25.12 23.8504 24.484 23.8504 23.488C23.8504 22.936 23.6224 22.432 22.8664 21.976L21.8344 21.364C21.4864 21.148 21.3184 20.98 21.3184 20.668C21.3184 20.248 21.6424 19.924 22.2664 19.924C22.7464 19.924 23.2264 20.116 23.5984 20.392V19.336ZM28.1249 20.428C28.5929 20.14 29.1329 19.948 29.7089 19.948C30.4049 19.948 31.0649 20.332 31.0649 21.268V21.94C30.7769 21.58 30.1769 21.256 29.5409 21.256C28.3409 21.256 27.4889 22.096 27.4889 23.176C27.4889 24.232 28.2449 25.12 29.5289 25.12C30.2009 25.12 30.7529 24.82 31.0649 24.364V25H32.0609V21.28C32.0609 19.708 31.1249 19.036 29.8049 19.036C29.1569 19.036 28.5569 19.228 28.1249 19.444V20.428ZM28.4849 23.176C28.4849 22.54 29.0609 22.024 29.7689 22.024C30.4529 22.024 31.0529 22.54 31.0529 23.176C31.0529 23.836 30.4769 24.352 29.7689 24.352C29.0729 24.352 28.4849 23.836 28.4849 23.176ZM34.6482 19.156H33.6522V25H34.6482V21.52C34.6842 20.62 35.2242 20.02 36.1242 20.02C37.0362 20.02 37.6002 20.668 37.6002 21.592V25H38.5962V21.352C38.5962 20.02 37.7442 19.036 36.4002 19.036C35.5482 19.036 34.9722 19.456 34.6482 20.08V19.156ZM44.9193 25H45.9273V16.72H44.9193V20.332C44.4993 19.552 43.7073 19.036 42.7233 19.036C41.0313 19.036 39.8193 20.368 39.8193 22.072C39.8193 23.8 41.0313 25.12 42.7233 25.12C43.7073 25.12 44.4993 24.616 44.9193 23.836V25ZM44.9193 22.072C44.9193 23.224 44.0553 24.136 42.8913 24.136C41.7393 24.136 40.8513 23.224 40.8513 22.072C40.8513 20.944 41.7393 20.02 42.8913 20.02C44.0553 20.02 44.9193 20.944 44.9193 22.072ZM53.2423 19.156H51.7783V18.484C51.7783 17.92 52.0663 17.584 52.6423 17.584C52.9183 17.584 53.1943 17.656 53.3143 17.716V16.696C53.1703 16.648 52.8343 16.6 52.6183 16.6C51.4903 16.6 50.7823 17.26 50.7823 18.424V19.156H49.8703V20.02H50.7823V25H51.7783V20.02H53.2423V19.156ZM55.5343 19.156H54.5383V25H55.5343V19.156ZM54.3823 17.32C54.3823 17.692 54.6703 17.968 55.0303 17.968C55.4263 17.968 55.7023 17.692 55.7023 17.32C55.7023 16.948 55.4263 16.66 55.0303 16.66C54.6703 16.66 54.3823 16.948 54.3823 17.32ZM58.1912 19.156H57.1952V25H58.1912V21.52C58.2272 20.62 58.7672 20.02 59.6672 20.02C60.5792 20.02 61.1432 20.668 61.1432 21.592V25H62.1392V21.352C62.1392 20.02 61.2872 19.036 59.9432 19.036C59.0912 19.036 58.5152 19.456 58.1912 20.08V19.156ZM68.4622 25H69.4702V16.72H68.4622V20.332C68.0423 19.552 67.2502 19.036 66.2663 19.036C64.5742 19.036 63.3622 20.368 63.3622 22.072C63.3622 23.8 64.5742 25.12 66.2663 25.12C67.2502 25.12 68.0423 24.616 68.4622 23.836V25ZM68.4622 22.072C68.4622 23.224 67.5983 24.136 66.4342 24.136C65.2822 24.136 64.3942 23.224 64.3942 22.072C64.3942 20.944 65.2822 20.02 66.4342 20.02C67.5983 20.02 68.4622 20.944 68.4622 22.072ZM73.5573 22.072C73.5573 23.8 74.8893 25.12 76.5933 25.12C78.3213 25.12 79.6293 23.8 79.6293 22.072C79.6293 20.368 78.3213 19.036 76.5933 19.036C74.8893 19.036 73.5573 20.368 73.5573 22.072ZM74.5893 22.072C74.5893 20.932 75.4533 20.02 76.5933 20.02C77.7453 20.02 78.6093 20.932 78.6093 22.072C78.6093 23.224 77.7453 24.148 76.5933 24.148C75.4533 24.148 74.5893 23.224 74.5893 22.072ZM84.8019 25H85.8099V19.156H84.8019V22.66C84.7659 23.548 84.2259 24.148 83.3379 24.148C82.4139 24.148 81.8739 23.5 81.8739 22.576V19.156H80.8779V22.804C80.8779 24.148 81.7299 25.12 83.0619 25.12C83.9139 25.12 84.5019 24.712 84.8019 24.088V25ZM88.9522 25V20.02H90.1042V19.156H88.9522V17.476L88.0042 17.728V19.156H86.8642V20.02H87.9562V25H88.9522ZM95.1397 25V20.02H96.2917V19.156H95.1397V17.476L94.1917 17.728V19.156H93.0517V20.02H94.1437V25H95.1397ZM98.2693 16.72H97.2733V25H98.2693V21.52C98.3053 20.62 98.8453 20.02 99.7453 20.02C100.657 20.02 101.221 20.668 101.221 21.592V25H102.217V21.352C102.217 20.02 101.365 19.036 100.021 19.036C99.1813 19.036 98.5933 19.456 98.2693 20.08V16.72ZM109.128 22.444C109.152 22.324 109.176 22.084 109.176 21.904C109.176 20.308 108.036 19.036 106.356 19.036C104.688 19.036 103.44 20.368 103.44 22.072C103.44 23.848 104.724 25.12 106.416 25.12C107.316 25.12 108.084 24.832 108.588 24.508V23.476C108.096 23.86 107.292 24.208 106.488 24.208C105.384 24.208 104.568 23.476 104.448 22.444H109.128ZM106.356 19.9C107.376 19.9 108.192 20.596 108.204 21.652H104.448C104.52 20.668 105.312 19.9 106.356 19.9ZM3.672 33.156H2.208V32.484C2.208 31.92 2.496 31.584 3.072 31.584C3.348 31.584 3.624 31.656 3.744 31.716V30.696C3.6 30.648 3.264 30.6 3.048 30.6C1.92 30.6 1.212 31.26 1.212 32.424V33.156H0.3V34.02H1.212V39H2.208V34.02H3.672V33.156ZM5.964 33.156H4.968V39H5.964V33.156ZM4.812 31.32C4.812 31.692 5.1 31.968 5.46 31.968C5.856 31.968 6.132 31.692 6.132 31.32C6.132 30.948 5.856 30.66 5.46 30.66C5.1 30.66 4.812 30.948 4.812 31.32ZM8.62087 33.156H7.62487V39H8.62087V35.52C8.65688 34.62 9.19688 34.02 10.0969 34.02C11.0089 34.02 11.5729 34.668 11.5729 35.592V39H12.5689V35.352C12.5689 34.02 11.7169 33.036 10.3729 33.036C9.52087 33.036 8.94488 33.456 8.62087 34.08V33.156ZM14.3319 34.428C14.7999 34.14 15.3399 33.948 15.9159 33.948C16.6119 33.948 17.2719 34.332 17.2719 35.268V35.94C16.9839 35.58 16.3839 35.256 15.7479 35.256C14.5479 35.256 13.6959 36.096 13.6959 37.176C13.6959 38.232 14.4519 39.12 15.7359 39.12C16.4079 39.12 16.9599 38.82 17.2719 38.364V39H18.2679V35.28C18.2679 33.708 17.3319 33.036 16.0119 33.036C15.3639 33.036 14.7639 33.228 14.3319 33.444V34.428ZM14.6919 37.176C14.6919 36.54 15.2679 36.024 15.9759 36.024C16.6599 36.024 17.2599 36.54 17.2599 37.176C17.2599 37.836 16.6839 38.352 15.9759 38.352C15.2799 38.352 14.6919 37.836 14.6919 37.176ZM20.8672 30.72H19.8713V39H20.8672V30.72ZM26.3513 33.156H25.3553V39H26.3513V35.52C26.3873 34.62 26.8073 34.02 27.6473 34.02C27.9113 34.02 28.1633 34.08 28.3553 34.164V33.096C28.1993 33.06 28.0193 33.036 27.8633 33.036C27.1193 33.036 26.6273 33.408 26.3513 33.948V33.156ZM34.4799 36.444C34.5039 36.324 34.5279 36.084 34.5279 35.904C34.5279 34.308 33.3879 33.036 31.7079 33.036C30.0399 33.036 28.7919 34.368 28.7919 36.072C28.7919 37.848 30.0759 39.12 31.7679 39.12C32.6679 39.12 33.4359 38.832 33.9399 38.508V37.476C33.4479 37.86 32.6439 38.208 31.8399 38.208C30.7359 38.208 29.9199 37.476 29.7999 36.444H34.4799ZM31.7079 33.9C32.7279 33.9 33.5439 34.596 33.5559 35.652H29.7999C29.8719 34.668 30.6639 33.9 31.7079 33.9ZM38.7507 33.336C38.4147 33.168 37.9227 33.036 37.4067 33.036C36.1227 33.036 35.4267 33.732 35.4267 34.644C35.4267 35.196 35.6787 35.688 36.2907 36.048L37.3707 36.696C37.8147 36.96 37.9707 37.188 37.9707 37.488C37.9707 37.932 37.6107 38.244 36.9507 38.244C36.3507 38.244 35.7867 37.956 35.4867 37.692V38.772C35.8467 38.952 36.3987 39.12 36.9987 39.12C38.2347 39.12 39.0027 38.484 39.0027 37.488C39.0027 36.936 38.7747 36.432 38.0187 35.976L36.9867 35.364C36.6387 35.148 36.4707 34.98 36.4707 34.668C36.4707 34.248 36.7947 33.924 37.4187 33.924C37.8987 33.924 38.3787 34.116 38.7507 34.392V33.336ZM44.1848 39H45.1927V33.156H44.1848V36.66C44.1487 37.548 43.6087 38.148 42.7207 38.148C41.7968 38.148 41.2568 37.5 41.2568 36.576V33.156H40.2607V36.804C40.2607 38.148 41.1127 39.12 42.4447 39.12C43.2968 39.12 43.8848 38.712 44.1848 38.088V39ZM47.879 30.72H46.883V39H47.879V30.72ZM51.0186 39V34.02H52.1706V33.156H51.0186V31.476L50.0706 31.728V33.156H48.9306V34.02H50.0226V39H51.0186ZM56.1882 33.336C55.8522 33.168 55.3602 33.036 54.8442 33.036C53.5602 33.036 52.8642 33.732 52.8642 34.644C52.8642 35.196 53.1162 35.688 53.7282 36.048L54.8082 36.696C55.2522 36.96 55.4082 37.188 55.4082 37.488C55.4082 37.932 55.0482 38.244 54.3882 38.244C53.7882 38.244 53.2242 37.956 52.9242 37.692V38.772C53.2842 38.952 53.8362 39.12 54.4362 39.12C55.6722 39.12 56.4402 38.484 56.4402 37.488C56.4402 36.936 56.2122 36.432 55.4562 35.976L54.4242 35.364C54.0762 35.148 53.9082 34.98 53.9082 34.668C53.9082 34.248 54.2322 33.924 54.8562 33.924C55.3362 33.924 55.8162 34.116 56.1882 34.392V33.336Z" transform="translate(264 375)" fill="#005B9A"/>
<path d="M6.188 9.57V7.652H3.038V5.398H6.468V3.48H1.05V13H3.038V9.57H6.188ZM7.462 8.24C7.462 11.026 9.576 13.154 12.362 13.154C15.148 13.154 17.262 11.026 17.262 8.24C17.262 5.454 15.148 3.326 12.362 3.326C9.576 3.326 7.462 5.454 7.462 8.24ZM9.506 8.24C9.506 6.63 10.738 5.314 12.362 5.314C13.972 5.314 15.204 6.63 15.204 8.24C15.204 9.864 13.972 11.166 12.362 11.166C10.738 11.166 9.506 9.864 9.506 8.24ZM24.1868 13V11.082H20.7567V3.48H18.7688V13H24.1868ZM30.9133 13V11.082H27.4833V3.48H25.4953V13H30.9133ZM31.4698 8.24C31.4698 11.026 33.5838 13.154 36.3698 13.154C39.1558 13.154 41.2698 11.026 41.2698 8.24C41.2698 5.454 39.1558 3.326 36.3698 3.326C33.5838 3.326 31.4698 5.454 31.4698 8.24ZM33.5138 8.24C33.5138 6.63 34.7458 5.314 36.3698 5.314C37.9798 5.314 39.2118 6.63 39.2118 8.24C39.2118 9.864 37.9798 11.166 36.3698 11.166C34.7458 11.166 33.5138 9.864 33.5138 8.24ZM44.2772 13H46.5032L48.4772 7.33L50.1572 13H52.3832L54.9312 3.48H52.7192L51.1232 10.508L49.1772 3.48H47.1752L47.4972 4.642L45.5512 10.508L43.9412 3.48H41.7292L44.2772 13Z" transform="translate(264 350)" fill="#005B9A"/>
<path d="M5.304 8.06V6.416H2.604V4.484H5.544V2.84H0.9V11H2.604V8.06H5.304ZM6.20709 8.012C6.20709 9.764 7.56309 11.132 9.31509 11.132C11.0671 11.132 12.4231 9.764 12.4231 8.012C12.4231 6.26 11.0671 4.904 9.31509 4.904C7.56309 4.904 6.20709 6.26 6.20709 8.012ZM7.86309 8.012C7.86309 7.184 8.48709 6.5 9.31509 6.5C10.1551 6.5 10.7551 7.184 10.7551 8.012C10.7551 8.84 10.1551 9.536 9.31509 9.536C8.48709 9.536 7.86309 8.84 7.86309 8.012ZM15.0897 2.72H13.4457V11H15.0897V2.72ZM18.1014 2.72H16.4574V11H18.1014V2.72ZM19.1212 8.012C19.1212 9.764 20.4772 11.132 22.2292 11.132C23.9812 11.132 25.3372 9.764 25.3372 8.012C25.3372 6.26 23.9812 4.904 22.2292 4.904C20.4772 4.904 19.1212 6.26 19.1212 8.012ZM20.7772 8.012C20.7772 7.184 21.4012 6.5 22.2292 6.5C23.0692 6.5 23.6692 7.184 23.6692 8.012C23.6692 8.84 23.0692 9.536 22.2292 9.536C21.4012 9.536 20.7772 8.84 20.7772 8.012ZM25.6783 5.024L27.4423 11H29.1583L30.2623 7.724L31.4503 11H33.1543L34.9303 5.024H33.2383L32.2063 8.996L30.8143 5.024H29.1943L29.4823 5.84L28.4263 8.996L27.3703 5.024H25.6783Z" transform="translate(240 256)" fill="#005B9A"/>
<path d="M7.5 0L9.18386 5.18237H14.6329L10.2245 8.38525L11.9084 13.5676L7.5 10.3647L3.09161 13.5676L4.77547 8.38525L0.367076 5.18237H5.81614L7.5 0Z" transform="translate(219 256)" fill="#005B9A"/>
<path d="M7.62939e-07 15.2V-3.8147e-07L9.8 7.6L7.62939e-07 15.2Z" transform="translate(132.99 63) scale(-1 1) rotate(90)" fill="#61B7F2"/>
<path d="M59 20L6.67317 20C2.98537 20 0 16.6667 0 12.6667V0" transform="translate(120.99 5) scale(-1 1) rotate(90)" stroke="#61B7F2" stroke-width="5" stroke-miterlimit="10"/>
<path d="M7.62939e-07 15.2V-3.8147e-07L9.8 7.6L7.62939e-07 15.2Z" transform="translate(234.199 323.8) scale(1 -1) rotate(90)" fill="#61B7F2"/>
<path d="M59 20L6.67317 20C2.98537 20 0 16.6667 0 12.6667V0" transform="translate(246.199 381.8) scale(1 -1) rotate(90)" stroke="#61B7F2" stroke-width="5" stroke-miterlimit="10"/>
</svg>
