<svg width="533" height="465" fill="none" xmlns="http://www.w3.org/2000/svg"><path d="M122.128 130.182h-1.162V137h1.162v-4.228c.042-1.022.672-1.582 1.582-1.582.896 0 1.54.588 1.54 1.68V137h1.162v-4.13c0-1.078.658-1.68 1.568-1.68s1.554.588 1.554 1.68V137h1.162v-4.41c0-1.568-1.036-2.548-2.394-2.548-1.05 0-1.778.546-2.086 1.414-.364-.91-1.19-1.414-2.198-1.414-.882 0-1.526.42-1.89 1.078v-.938zm10.628 1.484c.546-.336 1.176-.56 1.848-.56.812 0 1.582.448 1.582 1.54v.784c-.336-.42-1.036-.798-1.778-.798-1.4 0-2.394.98-2.394 2.24 0 1.232.882 2.268 2.38 2.268.784 0 1.428-.35 1.792-.882V137h1.162v-4.34c0-1.834-1.092-2.618-2.632-2.618-.756 0-1.456.224-1.96.476v1.148zm.42 3.206c0-.742.672-1.344 1.498-1.344.798 0 1.498.602 1.498 1.344 0 .77-.672 1.372-1.498 1.372-.812 0-1.498-.602-1.498-1.372zm6.028 2.128h1.162v-2.086l1.008-1.176 1.82 3.262h1.372l-2.324-4.088 2.268-2.73h-1.4l-2.744 3.248v-6.09h-1.162V137zm12.478-2.982c.028-.14.056-.42.056-.63 0-1.862-1.33-3.346-3.29-3.346-1.946 0-3.402 1.554-3.402 3.542 0 2.072 1.498 3.556 3.472 3.556 1.05 0 1.946-.336 2.534-.714v-1.204c-.574.448-1.512.854-2.45.854-1.288 0-2.24-.854-2.38-2.058h5.46zm-3.234-2.968c1.19 0 2.142.812 2.156 2.044h-4.382c.084-1.148 1.008-2.044 2.226-2.044zm8.151.616c.547-.336 1.177-.56 1.849-.56.811 0 1.581.448 1.581 1.54v.784c-.336-.42-1.036-.798-1.778-.798-1.4 0-2.394.98-2.394 2.24 0 1.232.882 2.268 2.38 2.268.784 0 1.428-.35 1.792-.882V137h1.162v-4.34c0-1.834-1.092-2.618-2.632-2.618-.756 0-1.456.224-1.96.476v1.148zm.42 3.206c0-.742.672-1.344 1.498-1.344.798 0 1.498.602 1.498 1.344 0 .77-.672 1.372-1.498 1.372-.812 0-1.498-.602-1.498-1.372zm10.472-4.69h-1.162v9.688h1.162v-4.228c.49.91 1.414 1.498 2.576 1.498 1.96 0 3.388-1.54 3.388-3.556 0-1.988-1.428-3.542-3.374-3.542-1.176 0-2.1.602-2.59 1.568v-1.428zm0 3.402c0-1.316 1.022-2.394 2.38-2.394 1.344 0 2.366 1.078 2.366 2.394 0 1.344-1.022 2.408-2.366 2.408-1.358 0-2.38-1.064-2.38-2.408zm7.017 0c0 2.016 1.554 3.556 3.542 3.556 2.016 0 3.542-1.54 3.542-3.556 0-1.988-1.526-3.542-3.542-3.542a3.502 3.502 0 0 0-3.542 3.542zm1.204 0c0-1.33 1.008-2.394 2.338-2.394 1.344 0 2.352 1.064 2.352 2.394 0 1.344-1.008 2.422-2.352 2.422-1.33 0-2.338-1.078-2.338-2.422zm8.555-6.244h-1.162V137h1.162v-9.66zm3.13 0h-1.161V137h1.162v-9.66zm6.808 9.66v-5.81h1.344v-1.008h-1.344v-1.96l-1.106.294v1.666h-1.33v1.008h1.274V137h1.162zm3.651-9.66h-1.162V137h1.163v-4.06c.041-1.05.671-1.75 1.721-1.75 1.064 0 1.722.756 1.722 1.834V137h1.162v-4.256c0-1.554-.993-2.702-2.561-2.702-.98 0-1.667.49-2.045 1.218v-3.92zm6.663 4.326c.546-.336 1.176-.56 1.848-.56.812 0 1.582.448 1.582 1.54v.784c-.336-.42-1.036-.798-1.778-.798-1.4 0-2.394.98-2.394 2.24 0 1.232.882 2.268 2.38 2.268.784 0 1.428-.35 1.792-.882V137h1.162v-4.34c0-1.834-1.092-2.618-2.632-2.618-.756 0-1.456.224-1.96.476v1.148zm.42 3.206c0-.742.672-1.344 1.498-1.344.798 0 1.498.602 1.498 1.344 0 .77-.672 1.372-1.498 1.372-.812 0-1.498-.602-1.498-1.372zm7.655 2.128v-5.81h1.344v-1.008h-1.344v-1.96l-1.106.294v1.666h-1.33v1.008h1.274V137h1.162zm5.2-3.416c0 2.016 1.553 3.556 3.541 3.556 2.016 0 3.542-1.54 3.542-3.556 0-1.988-1.526-3.542-3.542-3.542a3.502 3.502 0 0 0-3.542 3.542zm1.203 0c0-1.33 1.008-2.394 2.338-2.394 1.344 0 2.352 1.064 2.352 2.394 0 1.344-1.008 2.422-2.352 2.422-1.33 0-2.338-1.078-2.338-2.422zm8.95 3.416v-5.81h1.344v-1.008h-1.344v-1.96l-1.106.294v1.666h-1.33v1.008h1.274V137h1.162zm3.652-9.66h-1.162V137h1.162v-4.06c.042-1.05.672-1.75 1.722-1.75 1.064 0 1.722.756 1.722 1.834V137h1.162v-4.256c0-1.554-.994-2.702-2.562-2.702-.98 0-1.666.49-2.044 1.218v-3.92zm12.669 6.678c.028-.14.056-.42.056-.63 0-1.862-1.33-3.346-3.29-3.346-1.946 0-3.402 1.554-3.402 3.542 0 2.072 1.498 3.556 3.472 3.556 1.05 0 1.946-.336 2.534-.714v-1.204c-.574.448-1.512.854-2.45.854-1.288 0-2.24-.854-2.38-2.058h5.46zm-3.234-2.968c1.19 0 2.142.812 2.156 2.044h-4.382c.084-1.148 1.008-2.044 2.226-2.044zm5.836-.868h-1.162V137h1.162v-4.06c.042-1.05.532-1.75 1.512-1.75.308 0 .602.07.826.168v-1.246a2.681 2.681 0 0 0-.574-.07c-.868 0-1.442.434-1.764 1.064v-.924zM125.502 153h1.176v-6.818h-1.176v4.088c-.042 1.036-.672 1.736-1.708 1.736-1.078 0-1.708-.756-1.708-1.834v-3.99h-1.162v4.256c0 1.568.994 2.702 2.548 2.702.994 0 1.68-.476 2.03-1.204V153zm6.676-6.608a3.654 3.654 0 0 0-1.568-.35c-1.498 0-2.31.812-2.31 1.876 0 .644.294 1.218 1.008 1.638l1.26.756c.518.308.7.574.7.924 0 .518-.42.882-1.19.882-.7 0-1.358-.336-1.708-.644v1.26c.42.21 1.064.406 1.764.406 1.442 0 2.338-.742 2.338-1.904 0-.644-.266-1.232-1.148-1.764l-1.204-.714c-.406-.252-.602-.448-.602-.812 0-.49.378-.868 1.106-.868.56 0 1.12.224 1.554.546v-1.232zm8.006 3.626c.028-.14.056-.42.056-.63 0-1.862-1.33-3.346-3.29-3.346-1.946 0-3.402 1.554-3.402 3.542 0 2.072 1.498 3.556 3.472 3.556 1.05 0 1.946-.336 2.534-.714v-1.204c-.574.448-1.512.854-2.45.854-1.288 0-2.24-.854-2.38-2.058h5.46zm-3.234-2.968c1.19 0 2.142.812 2.156 2.044h-4.382c.084-1.148 1.008-2.044 2.226-2.044zm5.836-.868h-1.162V153h1.162v-4.06c.042-1.05.532-1.75 1.512-1.75.308 0 .602.07.826.168v-1.246a2.681 2.681 0 0 0-.574-.07c-.868 0-1.442.434-1.764 1.064v-.924zm7.07.21a3.654 3.654 0 0 0-1.568-.35c-1.498 0-2.31.812-2.31 1.876 0 .644.294 1.218 1.008 1.638l1.26.756c.518.308.7.574.7.924 0 .518-.42.882-1.19.882-.7 0-1.358-.336-1.708-.644v1.26c.42.21 1.064.406 1.764.406 1.442 0 2.338-.742 2.338-1.904 0-.644-.266-1.232-1.148-1.764l-1.204-.714c-.406-.252-.602-.448-.602-.812 0-.49.378-.868 1.106-.868.56 0 1.12.224 1.554.546v-1.232zm9.985 5.012a2.877 2.877 0 0 1-1.764.602c-1.358 0-2.38-1.078-2.38-2.422 0-1.33 1.022-2.394 2.38-2.394.7 0 1.316.238 1.764.602v-1.288c-.476-.28-1.162-.462-1.764-.462-2.072 0-3.57 1.54-3.57 3.542 0 2.016 1.498 3.556 3.57 3.556.616 0 1.288-.182 1.764-.476v-1.26zm1.708-3.738c.546-.336 1.176-.56 1.848-.56.812 0 1.582.448 1.582 1.54v.784c-.336-.42-1.036-.798-1.778-.798-1.4 0-2.394.98-2.394 2.24 0 1.232.882 2.268 2.38 2.268.784 0 1.428-.35 1.792-.882V153h1.162v-4.34c0-1.834-1.092-2.618-2.632-2.618-.756 0-1.456.224-1.96.476v1.148zm.42 3.206c0-.742.672-1.344 1.498-1.344.798 0 1.498.602 1.498 1.344 0 .77-.672 1.372-1.498 1.372-.812 0-1.498-.602-1.498-1.372zm7.19-4.69h-1.162V153h1.162v-4.06c.042-1.05.672-1.75 1.722-1.75 1.064 0 1.722.756 1.722 1.834V153h1.162v-4.256c0-1.554-.994-2.702-2.562-2.702-.994 0-1.666.49-2.044 1.218v-1.078zm8.637 0l2.716 6.818h1.232l2.73-6.818h-1.232l-2.114 5.39-2.1-5.39h-1.232zm7.158 3.402c0 2.016 1.553 3.556 3.542 3.556 2.016 0 3.541-1.54 3.541-3.556 0-1.988-1.525-3.542-3.541-3.542a3.502 3.502 0 0 0-3.542 3.542zm1.204 0c0-1.33 1.008-2.394 2.338-2.394 1.344 0 2.352 1.064 2.352 2.394 0 1.344-1.008 2.422-2.352 2.422-1.33 0-2.338-1.078-2.338-2.422zm8.95 3.416v-5.81h1.344v-1.008h-1.344v-1.96l-1.106.294v1.666h-1.33v1.008h1.274V153h1.162zm8.568-2.982c.028-.14.056-.42.056-.63 0-1.862-1.33-3.346-3.29-3.346-1.946 0-3.402 1.554-3.402 3.542 0 2.072 1.498 3.556 3.472 3.556 1.05 0 1.946-.336 2.534-.714v-1.204c-.574.448-1.512.854-2.45.854-1.288 0-2.24-.854-2.38-2.058h5.46zm-3.234-2.968c1.19 0 2.142.812 2.156 2.044h-4.382c.084-1.148 1.008-2.044 2.226-2.044zm7.508 2.534c0 2.016 1.554 3.556 3.542 3.556 2.016 0 3.542-1.54 3.542-3.556 0-1.988-1.526-3.542-3.542-3.542a3.502 3.502 0 0 0-3.542 3.542zm1.204 0c0-1.33 1.008-2.394 2.338-2.394 1.344 0 2.352 1.064 2.352 2.394 0 1.344-1.008 2.422-2.352 2.422-1.33 0-2.338-1.078-2.338-2.422zm8.54-3.402h-1.162V153h1.162v-4.06c.042-1.05.672-1.75 1.722-1.75 1.064 0 1.722.756 1.722 1.834V153h1.162v-4.256c0-1.554-.994-2.702-2.562-2.702-.994 0-1.666.49-2.044 1.218v-1.078zM127.532 115.396c-.504.448-1.288.77-2.17.77-1.638 0-2.856-1.302-2.856-2.926 0-1.61 1.232-2.926 2.856-2.926a3.3 3.3 0 0 1 2.17.784v-2.282a5.04 5.04 0 0 0-2.17-.49c-2.786 0-4.9 2.128-4.9 4.914 0 2.786 2.114 4.914 4.9 4.914a5.04 5.04 0 0 0 2.17-.49v-2.268zm1.666 2.604h1.988v-3.542h.49c1.162 0 1.974 1.47 2.31 3.542h2.058c-.224-2.044-.938-3.724-2.128-4.34.938-.266 1.722-1.05 1.722-2.408 0-1.764-1.288-2.772-3.15-2.772h-3.29V118zm4.396-6.524c0 .686-.476 1.064-1.106 1.064h-1.302v-2.142h1.302c.63 0 1.106.378 1.106 1.078zm9.321 6.524v-1.918h-3.43v-1.918h3.15v-1.918h-3.15v-1.848h3.43v-1.918h-5.418V118h5.418zm7.765 0h2.226l-3.528-9.52h-2.226l-3.528 9.52h2.226l.714-2.03h3.402l.714 2.03zm-2.408-6.916l1.05 2.968h-2.1l1.05-2.968zm6.584 6.916h1.988v-7.602h2.31v-1.918h-6.608v1.918h2.31V118zm11.042 0v-1.918h-3.43v-1.918h3.15v-1.918h-3.15v-1.848h3.43v-1.918h-5.418V118h5.418zm4.836 0h3.388c1.834 0 3.15-1.064 3.15-2.632 0-1.12-.56-1.862-1.4-2.268.686-.364 1.134-1.05 1.134-2.086 0-1.512-1.232-2.534-2.968-2.534h-3.304V118zm4.494-2.912c0 .686-.476.994-1.106.994h-1.4v-2.002h1.4c.63 0 1.106.322 1.106 1.008zm-.266-3.808c0 .602-.406.882-.938.882h-1.302v-1.764h1.302c.532 0 .938.28.938.882zm9.059-2.8v6.104c0 .966-.63 1.638-1.652 1.638-1.008 0-1.638-.672-1.638-1.638v-6.104h-1.988v5.936c0 2.338 1.4 3.738 3.626 3.738s3.64-1.4 3.64-3.738v-5.936h-1.988zm5.52 9.52h1.988v-7.602h2.31v-1.918h-6.608v1.918h2.31V118zm7.164 0h1.988v-7.602h2.31v-1.918h-6.608v1.918h2.31V118zm4.845-4.76c0 2.786 2.114 4.914 4.9 4.914 2.786 0 4.9-2.128 4.9-4.914 0-2.786-2.114-4.914-4.9-4.914-2.786 0-4.9 2.128-4.9 4.914zm2.044 0c0-1.61 1.232-2.926 2.856-2.926 1.61 0 2.842 1.316 2.842 2.926 0 1.624-1.232 2.926-2.842 2.926-1.624 0-2.856-1.302-2.856-2.926zm15.185 4.76h1.988v-9.52h-1.988v6.062l-4.172-6.062h-2.352v.14l.658 1.05V118h1.988v-5.502l3.878 5.502zM6.619 79.846a2.587 2.587 0 0 1-1.398-.744c-1.48-1.322-1.645-3.388-.329-4.875s3.371-1.653 4.851-.33c.411.33.74.826.905 1.239l-1.07 1.24a2.293 2.293 0 0 0-.821-1.405c-.823-.744-2.138-.661-2.878.247-.74.827-.74 2.149.164 2.892.494.414 1.07.579 1.48.579l-.904 1.157zM11.552 75.466l1.891 1.322c1.069.744 1.48 1.818.74 2.892-.493.827-1.316.91-1.973.744.493.826.246 2.066-.494 3.388l-1.233-.827c.658-1.322.74-2.561 0-2.974l-.165-.248-1.397 2.066-1.151-.744 3.782-5.619zm1.151 2.48l-.74-.58-.822 1.24.74.496c.329.248.822.248 1.069-.165.246-.33.082-.744-.247-.992zM13.115 84.555l3.042-6.032 3.454 1.736-.576 1.24-2.137-1.075-.576 1.157 1.973.991-.657 1.157-1.974-.992-.575 1.24 2.137 1.074-.575 1.24-3.536-1.736zM22.16 86.951l-2.22-.826-.987 1.157-1.48-.496 4.604-5.536 1.48.496.083 7.188-1.48-.495V86.95zm-1.398-1.983l1.397.496v-2.231l-1.397 1.735zM26.681 84.142l-1.562-.413.329-1.322 4.522 1.074-.329 1.322-1.562-.33-1.233 5.205-1.398-.33 1.233-5.206zM29.805 90.257l.822-6.693 3.782.413-.164 1.405-2.385-.248-.164 1.322 2.22.248-.165 1.322-2.22-.248-.164 1.322 2.384.248-.164 1.404-3.782-.495zM43.207 89.1l-2.384.247-.411 1.488L38.85 91l1.89-6.94 1.563-.166 3.042 6.528-1.562.165-.576-1.487zm-2.055-1.157l1.48-.165-.905-2.066-.575 2.23zM48.8 82.655l2.22-.661c1.234-.413 2.385.082 2.714 1.322.411 1.24-.246 2.313-1.48 2.726l-.822.248.74 2.314-1.316.496-2.055-6.445zm2.632.578l-.822.248.493 1.487.822-.248c.411-.165.658-.495.494-.991-.165-.496-.576-.579-.987-.496zM56.446 79.68c1.727-.826 3.782-.165 4.605 1.653.822 1.818.164 3.8-1.563 4.627-1.809.826-3.782.165-4.604-1.653-.905-1.817-.247-3.8 1.562-4.627zm2.385 4.958c.986-.496 1.397-1.735.904-2.727-.493-.991-1.644-1.487-2.713-.991-1.07.495-1.398 1.735-.905 2.726.494 1.075 1.727 1.488 2.714.992zM63.847 83.399l-3.7-5.619 1.15-.744 2.96 4.462 2.056-1.322.74 1.157-3.206 2.066zM68.123 80.424l-4.275-5.206 1.069-.908 3.37 4.13 1.892-1.569.822 1.074-2.878 2.479z" fill="#005B9A"/><rect width="75" height="75" rx="37.5" fill="#FCB92C"/><path d="M29.336 39.463h6.084v6.3h4.068v-6.3h6.156v-3.816h-6.156v-6.3H35.42v6.3h-6.084v3.816z" fill="#00548F"/><path d="M106.801 43v15.2l-9.8-7.6 9.8-7.6z" fill="#FCB92C"/><path d="M104 51.1h12.9c4.2 0 7.6 3.5 7.6 7.7v34.3" stroke="#FCB92C" stroke-width="5" stroke-miterlimit="10"/><path d="M410.076 170.164v-1.148h-3.64v-3.388h3.92v-1.148h-5.124V174h1.204v-3.836h3.64zm3.025-2.982h-1.162V174h1.162v-6.818zm-1.344-2.142c0 .434.336.756.756.756.462 0 .784-.322.784-.756s-.322-.77-.784-.77a.756.756 0 0 0-.756.77zm4.448-.7h-1.162V174h1.162v-9.66zm3.13 0h-1.162V174h1.162v-9.66zm6.399 2.842h-1.162V174h1.162v-6.818zm-1.344-2.142c0 .434.336.756.756.756.461 0 .783-.322.783-.756s-.322-.77-.784-.77a.756.756 0 0 0-.756.77zm4.433 2.142h-1.162V174h1.162v-4.06c.042-1.05.672-1.75 1.722-1.75 1.064 0 1.722.756 1.722 1.834V174h1.162v-4.256c0-1.554-.994-2.702-2.562-2.702-.994 0-1.666.49-2.044 1.218v-1.078zm11.32 6.818v-5.81h1.344v-1.008h-1.344v-1.96l-1.106.294v1.666h-1.33v1.008h1.274V174h1.162zm3.651-9.66h-1.162V174h1.162v-4.06c.042-1.05.672-1.75 1.722-1.75 1.064 0 1.722.756 1.722 1.834V174h1.162v-4.256c0-1.554-.994-2.702-2.562-2.702-.98 0-1.666.49-2.044 1.218v-3.92zm12.669 6.678c.028-.14.056-.42.056-.63 0-1.862-1.33-3.346-3.29-3.346-1.946 0-3.402 1.554-3.402 3.542 0 2.072 1.498 3.556 3.472 3.556 1.05 0 1.946-.336 2.534-.714v-1.204c-.574.448-1.512.854-2.45.854-1.288 0-2.24-.854-2.38-2.058h5.46zm-3.234-2.968c1.19 0 2.142.812 2.156 2.044h-4.382c.084-1.148 1.008-2.044 2.226-2.044zm9.118 4.592c.49.91 1.428 1.498 2.59 1.498 1.946 0 3.374-1.54 3.374-3.556 0-1.988-1.428-3.542-3.374-3.542-1.162 0-2.1.602-2.59 1.512v-4.214h-1.162V174h1.162v-1.358zm0-2.058c0-1.316 1.022-2.394 2.38-2.394 1.344 0 2.366 1.078 2.366 2.394 0 1.344-1.022 2.408-2.366 2.408-1.358 0-2.38-1.064-2.38-2.408zm8.64-6.244h-1.161V174h1.162v-9.66zm2.152 4.326c.546-.336 1.176-.56 1.848-.56.812 0 1.582.448 1.582 1.54v.784c-.336-.42-1.036-.798-1.778-.798-1.4 0-2.394.98-2.394 2.24 0 1.232.882 2.268 2.38 2.268.784 0 1.428-.35 1.792-.882V174h1.162v-4.34c0-1.834-1.092-2.618-2.632-2.618-.756 0-1.456.224-1.96.476v1.148zm.42 3.206c0-.742.672-1.344 1.498-1.344.798 0 1.498.602 1.498 1.344 0 .77-.672 1.372-1.498 1.372-.812 0-1.498-.602-1.498-1.372zm7.19-4.69h-1.162V174h1.162v-4.06c.042-1.05.672-1.75 1.722-1.75 1.064 0 1.722.756 1.722 1.834V174h1.162v-4.256c0-1.554-.994-2.702-2.562-2.702-.994 0-1.666.49-2.044 1.218v-1.078zm6.467 6.818h1.162v-2.086l1.008-1.176 1.82 3.262h1.372l-2.324-4.088 2.268-2.73h-1.4l-2.744 3.248v-6.09h-1.162V174zm10.023-6.608a3.654 3.654 0 0 0-1.568-.35c-1.498 0-2.31.812-2.31 1.876 0 .644.294 1.218 1.008 1.638l1.26.756c.518.308.7.574.7.924 0 .518-.42.882-1.19.882-.7 0-1.358-.336-1.708-.644v1.26c.42.21 1.064.406 1.764.406 1.442 0 2.338-.742 2.338-1.904 0-.644-.266-1.232-1.148-1.764l-1.204-.714c-.406-.252-.602-.448-.602-.812 0-.49.378-.868 1.106-.868.56 0 1.12.224 1.554.546v-1.232zm5.28 1.274c.546-.336 1.176-.56 1.848-.56.812 0 1.582.448 1.582 1.54v.784c-.336-.42-1.036-.798-1.778-.798-1.4 0-2.394.98-2.394 2.24 0 1.232.882 2.268 2.38 2.268.784 0 1.428-.35 1.792-.882V174h1.162v-4.34c0-1.834-1.092-2.618-2.632-2.618-.756 0-1.456.224-1.96.476v1.148zm.42 3.206c0-.742.672-1.344 1.498-1.344.798 0 1.498.602 1.498 1.344 0 .77-.672 1.372-1.498 1.372-.812 0-1.498-.602-1.498-1.372zm7.191-4.69h-1.162V174h1.162v-4.06c.042-1.05.672-1.75 1.722-1.75 1.064 0 1.722.756 1.722 1.834V174h1.162v-4.256c0-1.554-.994-2.702-2.562-2.702-.994 0-1.666.49-2.044 1.218v-1.078zM522.113 174h1.176v-9.66h-1.176v4.214c-.49-.91-1.414-1.512-2.562-1.512-1.974 0-3.388 1.554-3.388 3.542 0 2.016 1.414 3.556 3.388 3.556 1.148 0 2.072-.588 2.562-1.498V174zm0-3.416c0 1.344-1.008 2.408-2.366 2.408-1.344 0-2.38-1.064-2.38-2.408a2.372 2.372 0 0 1 2.38-2.394c1.358 0 2.366 1.078 2.366 2.394zM404.28 183.182l2.086 6.818h1.246l1.68-4.62 1.89 4.62h1.232l2.1-6.818h-1.218l-1.568 5.362-2.156-5.362h-1.19l.336.854-1.652 4.508-1.568-5.362h-1.218zm11.573 1.484c.546-.336 1.176-.56 1.848-.56.812 0 1.582.448 1.582 1.54v.784c-.336-.42-1.036-.798-1.778-.798-1.4 0-2.394.98-2.394 2.24 0 1.232.882 2.268 2.38 2.268.784 0 1.428-.35 1.792-.882V190h1.162v-4.34c0-1.834-1.092-2.618-2.632-2.618-.756 0-1.456.224-1.96.476v1.148zm.42 3.206c0-.742.672-1.344 1.498-1.344.798 0 1.498.602 1.498 1.344 0 .77-.672 1.372-1.498 1.372-.812 0-1.498-.602-1.498-1.372zm7.655 2.128v-5.81h1.344v-1.008h-1.344v-1.96l-1.106.294v1.666h-1.33v1.008h1.274V190h1.162zm7.266-1.596a2.877 2.877 0 0 1-1.764.602c-1.358 0-2.38-1.078-2.38-2.422 0-1.33 1.022-2.394 2.38-2.394.7 0 1.316.238 1.764.602v-1.288c-.476-.28-1.162-.462-1.764-.462-2.072 0-3.57 1.54-3.57 3.542 0 2.016 1.498 3.556 3.57 3.556.616 0 1.288-.182 1.764-.476v-1.26zm2.715-8.064h-1.162V190h1.162v-4.06c.042-1.05.672-1.75 1.722-1.75 1.064 0 1.722.756 1.722 1.834V190h1.162v-4.256c0-1.554-.994-2.702-2.562-2.702-.98 0-1.666.49-2.044 1.218v-3.92zm11.32 9.66v-5.81h1.344v-1.008h-1.344v-1.96l-1.106.294v1.666h-1.33v1.008h1.274V190h1.162zm3.651-9.66h-1.162V190h1.162v-4.06c.042-1.05.672-1.75 1.722-1.75 1.064 0 1.722.756 1.722 1.834V190h1.162v-4.256c0-1.554-.994-2.702-2.562-2.702-.98 0-1.666.49-2.044 1.218v-3.92zm12.669 6.678c.028-.14.056-.42.056-.63 0-1.862-1.33-3.346-3.29-3.346-1.946 0-3.402 1.554-3.402 3.542 0 2.072 1.498 3.556 3.472 3.556 1.05 0 1.946-.336 2.534-.714v-1.204c-.574.448-1.512.854-2.45.854-1.288 0-2.24-.854-2.38-2.058h5.46zm-3.234-2.968c1.19 0 2.142.812 2.156 2.044h-4.382c.084-1.148 1.008-2.044 2.226-2.044zm6.844-.868l2.716 6.818h1.232l2.73-6.818h-1.232l-2.114 5.39-2.1-5.39h-1.232zm7.158 3.402c0 2.016 1.554 3.556 3.542 3.556 2.016 0 3.542-1.54 3.542-3.556 0-1.988-1.526-3.542-3.542-3.542a3.502 3.502 0 0 0-3.542 3.542zm1.204 0c0-1.33 1.008-2.394 2.338-2.394 1.344 0 2.352 1.064 2.352 2.394 0 1.344-1.008 2.422-2.352 2.422-1.33 0-2.338-1.078-2.338-2.422zm8.95 3.416v-5.81h1.344v-1.008h-1.344v-1.96l-1.106.294v1.666h-1.33v1.008h1.274V190h1.162zm8.568-2.982c.028-.14.056-.42.056-.63 0-1.862-1.33-3.346-3.29-3.346-1.946 0-3.402 1.554-3.402 3.542 0 2.072 1.498 3.556 3.472 3.556 1.05 0 1.946-.336 2.534-.714v-1.204c-.574.448-1.512.854-2.45.854-1.288 0-2.24-.854-2.38-2.058h5.46zm-3.234-2.968c1.19 0 2.142.812 2.156 2.044h-4.382c.084-1.148 1.008-2.044 2.226-2.044zm8.217-.658a3.654 3.654 0 0 0-1.568-.35c-1.498 0-2.31.812-2.31 1.876 0 .644.294 1.218 1.008 1.638l1.26.756c.518.308.7.574.7.924 0 .518-.42.882-1.19.882-.7 0-1.358-.336-1.708-.644v1.26c.42.21 1.064.406 1.764.406 1.442 0 2.338-.742 2.338-1.904 0-.644-.266-1.232-1.148-1.764l-1.204-.714c-.406-.252-.602-.448-.602-.812 0-.49.378-.868 1.106-.868.56 0 1.12.224 1.554.546v-1.232zm6.247-.21h-1.162V190h1.162v-4.06c.042-1.05.532-1.75 1.512-1.75.308 0 .602.07.826.168v-1.246a2.681 2.681 0 0 0-.574-.07c-.868 0-1.442.434-1.764 1.064v-.924zm2.833 3.402c0 2.016 1.554 3.556 3.542 3.556 2.016 0 3.542-1.54 3.542-3.556 0-1.988-1.526-3.542-3.542-3.542a3.502 3.502 0 0 0-3.542 3.542zm1.204 0c0-1.33 1.008-2.394 2.338-2.394 1.344 0 2.352 1.064 2.352 2.394 0 1.344-1.008 2.422-2.352 2.422-1.33 0-2.338-1.078-2.338-2.422zm8.555-6.244h-1.162V190h1.162v-9.66zm3.131 0h-1.162V190h1.162v-9.66zm6.398 2.842h-1.162V190h1.162v-6.818zm-1.344-2.142c0 .434.336.756.756.756.462 0 .784-.322.784-.756s-.322-.77-.784-.77a.756.756 0 0 0-.756.77zm4.434 2.142h-1.162V190h1.162v-4.06c.042-1.05.672-1.75 1.722-1.75 1.064 0 1.722.756 1.722 1.834V190h1.162v-4.256c0-1.554-.994-2.702-2.562-2.702-.994 0-1.666.49-2.044 1.218v-1.078zM410.986 155l2.212-5.936V155h1.988v-9.52h-2.422l-2.632 6.986-2.646-6.986h-2.436V155h1.988v-5.936L409.25 155h1.736zm12.25 0h2.226l-3.528-9.52h-2.226L416.18 155h2.226l.714-2.03h3.402l.714 2.03zm-2.408-6.916l1.05 2.968h-2.1l1.05-2.968zm5.646 6.916h1.988v-2.828l.77-1.092 1.82 3.92h2.324l-2.716-5.614 2.576-3.906h-2.324l-2.45 3.85v-3.85h-1.988V155zm13.43 0v-1.918h-3.43v-1.918h3.15v-1.918h-3.15v-1.848h3.43v-1.918h-5.418V155h5.418zm10.375 0h2.226l-3.528-9.52h-2.226l-3.528 9.52h2.226l.714-2.03h3.402l.714 2.03zm-2.408-6.916l1.05 2.968h-2.1l1.05-2.968zm8.244 6.916h1.988v-3.486h1.26c1.862 0 3.136-1.134 3.136-3.024 0-1.876-1.274-3.01-3.136-3.01h-3.248V155zm4.34-6.496c0 .728-.476 1.092-1.12 1.092h-1.232v-2.198h1.232c.644 0 1.12.364 1.12 1.106zm2.892 1.736c0 2.786 2.114 4.914 4.9 4.914 2.786 0 4.9-2.128 4.9-4.914 0-2.786-2.114-4.914-4.9-4.914-2.786 0-4.9 2.128-4.9 4.914zm2.044 0c0-1.61 1.232-2.926 2.856-2.926 1.61 0 2.842 1.316 2.842 2.926 0 1.624-1.232 2.926-2.842 2.926-1.624 0-2.856-1.302-2.856-2.926zm14.68 4.76v-1.918h-3.43v-7.602h-1.988V155h5.418zm6.727 0v-1.918h-3.43v-7.602h-1.988V155h5.418z" fill="#005B9A"/><path d="M391.801 259.1v-15.2l-9.8 7.6 9.8 7.6z" fill="#FCB92C"/><path d="M389 251h12.9c4.2 0 7.6-3.5 7.6-7.7V209" stroke="#FCB92C" stroke-width="5" stroke-miterlimit="10"/><path fill="#F2F2F2" stroke="#E0E0E0" d="M7.5 440.5h185v24H7.5zM5.5 240.5h305v24H5.5z"/><path d="M19.59 256h1.988v-7.602h2.31v-1.918H17.28v1.918h2.31V256zm5.624 0h1.988v-9.52h-1.988V256zm5.628 0h1.988v-7.602h2.31v-1.918h-6.608v1.918h2.31V256zm11.042 0v-1.918h-3.43v-7.602h-1.988V256h5.418zm6.727 0v-1.918h-3.43v-1.918h3.15v-1.918h-3.15v-1.848h3.43v-1.918h-5.418V256h5.418z" fill="#005B9A"/><path fill="#F2F2F2" stroke="#E0E0E0" d="M7.5 289.5h185v126H7.5zM229.5 440.5h185v24h-185zM229.5 289.5h185v126h-185z"/><path d="M17.462 452.24c0 2.786 2.114 4.914 4.9 4.914 2.786 0 4.9-2.128 4.9-4.914 0-2.786-2.114-4.914-4.9-4.914-2.786 0-4.9 2.128-4.9 4.914zm2.044 0c0-1.61 1.232-2.926 2.856-2.926 1.61 0 2.842 1.316 2.842 2.926 0 1.624-1.232 2.926-2.842 2.926-1.624 0-2.856-1.302-2.856-2.926zm9.263 4.76h1.988v-3.486h1.26c1.862 0 3.136-1.134 3.136-3.024 0-1.876-1.274-3.01-3.136-3.01h-3.248V457zm4.34-6.496c0 .728-.476 1.092-1.12 1.092h-1.232v-2.198h1.232c.644 0 1.12.364 1.12 1.106zm5.02 6.496h1.988v-7.602h2.31v-1.918H35.82v1.918h2.31V457zm5.624 0h1.988v-9.52h-1.988V457zm3.5-4.76c0 2.786 2.114 4.914 4.9 4.914 2.786 0 4.9-2.128 4.9-4.914 0-2.786-2.114-4.914-4.9-4.914-2.786 0-4.9 2.128-4.9 4.914zm2.044 0c0-1.61 1.232-2.926 2.856-2.926 1.61 0 2.842 1.316 2.842 2.926 0 1.624-1.232 2.926-2.842 2.926-1.624 0-2.856-1.302-2.856-2.926zM64.482 457h1.988v-9.52h-1.988v6.062l-4.172-6.062h-2.352v.14l.658 1.05V457h1.988v-5.502L64.482 457zm15.641 0h2.226l-3.528-9.52h-2.226L73.067 457h2.226l.714-2.03h3.402l.714 2.03zm-2.408-6.916l1.05 2.968h-2.1l1.05-2.968zM240.462 452.24c0 2.786 2.114 4.914 4.9 4.914 2.786 0 4.9-2.128 4.9-4.914 0-2.786-2.114-4.914-4.9-4.914-2.786 0-4.9 2.128-4.9 4.914zm2.044 0c0-1.61 1.232-2.926 2.856-2.926 1.61 0 2.842 1.316 2.842 2.926 0 1.624-1.232 2.926-2.842 2.926-1.624 0-2.856-1.302-2.856-2.926zm9.263 4.76h1.988v-3.486h1.26c1.862 0 3.136-1.134 3.136-3.024 0-1.876-1.274-3.01-3.136-3.01h-3.248V457zm4.34-6.496c0 .728-.476 1.092-1.12 1.092h-1.232v-2.198h1.232c.644 0 1.12.364 1.12 1.106zm5.02 6.496h1.988v-7.602h2.31v-1.918h-6.608v1.918h2.31V457zm5.624 0h1.988v-9.52h-1.988V457zm3.5-4.76c0 2.786 2.114 4.914 4.9 4.914 2.786 0 4.9-2.128 4.9-4.914 0-2.786-2.114-4.914-4.9-4.914-2.786 0-4.9 2.128-4.9 4.914zm2.044 0c0-1.61 1.232-2.926 2.856-2.926 1.61 0 2.842 1.316 2.842 2.926 0 1.624-1.232 2.926-2.842 2.926-1.624 0-2.856-1.302-2.856-2.926zm15.185 4.76h1.988v-9.52h-1.988v6.062l-4.172-6.062h-2.352v.14l.658 1.05V457h1.988v-5.502l3.878 5.502zm10.101 0h3.388c1.834 0 3.15-1.064 3.15-2.632 0-1.12-.56-1.862-1.4-2.268.686-.364 1.134-1.05 1.134-2.086 0-1.512-1.232-2.534-2.968-2.534h-3.304V457zm4.494-2.912c0 .686-.476.994-1.106.994h-1.4v-2.002h1.4c.63 0 1.106.322 1.106 1.008zm-.266-3.808c0 .602-.406.882-.938.882h-1.302v-1.764h1.302c.532 0 .938.28.938.882zM94.467 365.921H82.04c-.86 0-1.672-.176-2.391-.683-1.13-.789-1.649-1.896-1.649-3.262v-4.182c0-6.937.012-13.863 0-20.79 0-1.519.613-2.673 1.873-3.474.66-.424 1.402-.53 2.179-.53h24.818c.153 0 .318 0 .471.012a3.791 3.791 0 0 1 3.57 3.569c.011.153.011.318.011.47v24.819c0 1.401-.495 2.544-1.65 3.368-.718.507-1.53.683-2.39.683H94.467zm13.922-11.931v-.377-16.573c0-1.025-.482-1.496-1.495-1.496H82.017c-1.013 0-1.485.471-1.485 1.473v19.14c0 .106.012.2.024.353.13-.118.212-.2.294-.27 2.498-2.498 5.007-4.995 7.504-7.492.706-.707 1.401-.707 2.12 0l5.041 5.041c.07.071.153.142.248.236.082-.094.153-.177.235-.26 1.696-1.695 3.38-3.391 5.077-5.076.212-.212.506-.365.8-.447.495-.13.884.117 1.226.459 1.66 1.673 3.333 3.333 4.994 4.994.07.083.153.165.295.295z" fill="#005B9A"/><path d="M113.457 339.36c1.237-.047 2.427 1.002 2.509 2.191.024.271.024.554.035.825v24.558c0 1.013-.235 1.944-.918 2.721-.825.943-1.897 1.343-3.134 1.343-7.82-.012-15.642 0-23.463 0-.613 0-1.213.012-1.826-.023-1.272-.083-2.297-1.19-2.297-2.521h27.48c.177 0 .354 0 .53-.024a1.216 1.216 0 0 0 1.072-1.083c.024-.165.024-.33.024-.495v-27.056c-.012-.141-.012-.282-.012-.435zM95.738 339.337c2.085 0 3.805 1.72 3.793 3.805 0 2.073-1.708 3.78-3.781 3.792-2.085.012-3.805-1.708-3.816-3.792a3.81 3.81 0 0 1 3.804-3.805zm1.26 3.805c0-.695-.577-1.273-1.272-1.273-.683 0-1.248.566-1.26 1.249-.012.683.577 1.272 1.272 1.272.672 0 1.26-.565 1.26-1.248zM319.467 365.921H307.04c-.86 0-1.672-.176-2.391-.683-1.13-.789-1.649-1.896-1.649-3.262v-4.182c0-6.937.012-13.863 0-20.79 0-1.519.613-2.673 1.873-3.474.66-.424 1.402-.53 2.179-.53h24.818c.153 0 .318 0 .471.012a3.791 3.791 0 0 1 3.57 3.569c.011.153.011.318.011.47v24.819c0 1.401-.495 2.544-1.65 3.368-.718.507-1.53.683-2.39.683h-12.415zm13.923-11.931v-.377-16.573c0-1.025-.483-1.496-1.496-1.496h-24.877c-1.013 0-1.485.471-1.485 1.473v19.14c0 .106.012.2.024.353.13-.118.212-.2.294-.27 2.498-2.498 5.007-4.995 7.504-7.492.706-.707 1.401-.707 2.12 0l5.041 5.041c.07.071.153.142.248.236.082-.094.153-.177.235-.26 1.696-1.695 3.38-3.391 5.077-5.076.212-.212.506-.365.8-.447.495-.13.884.117 1.226.459 1.66 1.673 3.333 3.333 4.994 4.994.07.083.153.165.294.295z" fill="#005B9A"/><path d="M338.457 339.36c1.237-.047 2.426 1.002 2.509 2.191.023.271.023.554.035.825v24.558c0 1.013-.236 1.944-.919 2.721-.824.943-1.896 1.343-3.133 1.343-7.821-.012-15.642 0-23.463 0-.613 0-1.214.012-1.826-.023-1.272-.083-2.297-1.19-2.297-2.521h27.48c.177 0 .354 0 .53-.024a1.216 1.216 0 0 0 1.072-1.083c.024-.165.024-.33.024-.495v-27.056c-.012-.141-.012-.282-.012-.435zM320.739 339.337c2.084 0 3.804 1.72 3.792 3.805 0 2.073-1.708 3.78-3.78 3.792-2.085.012-3.805-1.708-3.817-3.792a3.81 3.81 0 0 1 3.805-3.805zm1.26 3.805c0-.695-.577-1.273-1.272-1.273-.683 0-1.249.566-1.26 1.249-.012.683.577 1.272 1.272 1.272.671 0 1.26-.565 1.26-1.248z" fill="#005B9A"/></svg>