<svg width="420" height="436" fill="none" xmlns="http://www.w3.org/2000/svg"><path fill="#C4C4C4" d="M1 116h203v129H1z"/><path d="M78.62 190h3.975v-15.204h4.62v-3.836H74v3.836h4.62V190zm23.932 0h3.976v-19.04h-3.976v7.532h-8.708v-7.532h-3.976V190h3.976v-7.672h8.708V190zm8.152 0h3.976v-19.04h-3.976V190zm17.947-18.48c-1.176-.532-2.66-.868-4.088-.868-4.928 0-6.636 2.884-6.636 5.544 0 2.156.784 3.78 3.304 5.236l2.604 1.54c1.064.616 1.512 1.204 1.512 1.848 0 1.036-.84 1.764-2.352 1.764-1.764 0-3.612-.84-4.648-1.652v4.396c1.204.504 2.94.98 4.816.98 4.424 0 6.412-2.716 6.412-5.712 0-2.128-.98-3.78-3.444-5.264l-2.52-1.512c-.924-.532-1.428-1.12-1.428-1.736 0-.98.756-1.708 2.352-1.708 1.456 0 3.136.672 4.116 1.372v-4.228z" fill="#fff"/><path fill="#FCB92C" d="M216 116h203v129H216z"/><path d="M289.848 190h3.976v-15.204h4.62v-3.836h-13.216v3.836h4.62V190zm23.932 0h3.976v-19.04h-3.976v7.532h-8.708v-7.532h-3.976V190h3.976v-7.672h8.708V190zm20.052 0h4.452l-7.056-19.04h-4.452L319.72 190h4.452l1.428-4.06h6.804l1.428 4.06zm-4.816-13.832l2.1 5.936h-4.2l2.1-5.936zM342.184 190h3.976v-15.204h4.62v-3.836h-13.216v3.836h4.62V190z" fill="#fff"/><path d="M362.928 270.725c.147.323.234.587.352.822 3.426 7.457 6.823 14.914 10.25 22.372.907 1.996.38 3.405-1.582 4.315a789.885 789.885 0 0 1-7.233 3.318c-2.08.94-3.456.41-4.364-1.674-3.25-7.574-6.53-15.149-9.78-22.723-.088-.235-.206-.44-.323-.734-1.23 1.145-2.43 2.231-3.602 3.347-2.928 2.73-5.856 5.46-8.785 8.22-.937.91-1.991 1.233-3.192.734-1.23-.528-1.669-1.556-1.669-2.848v-60.86c0-1.234.38-2.203 1.552-2.731 1.2-.558 2.255-.264 3.221.646 8.58 8.044 17.19 16.088 25.77 24.133 6.091 5.695 12.182 11.362 18.244 17.087.527.499.967 1.203 1.142 1.879.352 1.438-.644 2.818-2.137 3.024-1.992.264-3.983.41-5.974.587-3.924.381-7.849.734-11.89 1.086zM3.24 30.156L5.028 36h1.068l1.44-3.96L9.156 36h1.056l1.8-5.844h-1.044l-1.344 4.596-1.848-4.596h-1.02l.288.732-1.416 3.864-1.344-4.596H3.24zm15.068 3.288c.024-.12.048-.36.048-.54 0-1.596-1.14-2.868-2.82-2.868-1.668 0-2.916 1.332-2.916 3.036 0 1.776 1.284 3.048 2.976 3.048.9 0 1.668-.288 2.172-.612v-1.032c-.492.384-1.296.732-2.1.732-1.104 0-1.92-.732-2.04-1.764h4.68zM15.536 30.9c1.02 0 1.836.696 1.848 1.752h-3.756c.072-.984.864-1.752 1.908-1.752zm5.003-.744h-.996V36h.996v-5.844zm-1.152-1.836c0 .372.288.648.648.648.396 0 .672-.276.672-.648a.646.646 0 0 0-.672-.66.648.648 0 0 0-.648.66zm7.472 1.836v1.152c-.42-.768-1.2-1.272-2.196-1.272-1.632 0-2.844 1.296-2.844 2.964 0 1.68 1.212 2.952 2.844 2.952.996 0 1.776-.492 2.196-1.224v.948c0 1.164-.864 1.956-2.028 1.956-.792 0-1.596-.3-2.064-.636v1.08c.42.24 1.188.504 2.052.504 1.812 0 3.036-1.128 3.036-3.024v-5.4h-.996zM26.811 33c0 1.116-.828 1.98-1.968 1.98-1.116 0-1.956-.864-1.956-1.98 0-1.104.84-1.968 1.956-1.968 1.14 0 1.968.864 1.968 1.968zm3.724-5.28h-.996V36h.996v-3.48c.036-.9.576-1.5 1.476-1.5.912 0 1.476.648 1.476 1.572V36h.996v-3.648c0-1.332-.852-2.316-2.196-2.316-.84 0-1.428.42-1.752 1.044v-3.36zm9.351 2.436h-.995V36h.995v-5.844zm-1.152-1.836c0 .372.288.648.648.648.397 0 .672-.276.672-.648a.646.646 0 0 0-.672-.66.648.648 0 0 0-.648.66zm3.8 1.836h-.995V36h.996v-3.48c.036-.9.576-1.5 1.476-1.5.912 0 1.476.648 1.476 1.572V36h.996v-3.648c0-1.332-.852-2.316-2.196-2.316-.852 0-1.428.42-1.752 1.044v-.924zm7.973 2.916c0 1.728 1.332 3.048 3.035 3.048 1.728 0 3.036-1.32 3.036-3.048 0-1.704-1.308-3.036-3.036-3.036a3.002 3.002 0 0 0-3.035 3.036zm1.032 0c0-1.14.864-2.052 2.003-2.052 1.152 0 2.017.912 2.017 2.052 0 1.152-.864 2.076-2.017 2.076-1.14 0-2.004-.924-2.004-2.076zm7.32-2.916h-.996V36h.996v-3.48c.036-.9.576-1.5 1.476-1.5.912 0 1.476.648 1.476 1.572V36h.996v-3.648c0-1.332-.852-2.316-2.196-2.316-.852 0-1.428.42-1.752 1.044v-.924zm7.972 2.916c0 1.728 1.332 3.048 3.036 3.048 1.728 0 3.036-1.32 3.036-3.048 0-1.704-1.308-3.036-3.036-3.036a3.002 3.002 0 0 0-3.036 3.036zm1.032 0c0-1.14.864-2.052 2.004-2.052 1.152 0 2.016.912 2.016 2.052 0 1.152-.864 2.076-2.016 2.076-1.14 0-2.004-.924-2.004-2.076zM75.534 36v-4.98h1.152v-.864h-1.152v-1.68l-.948.252v1.428h-1.14v.864h1.092V36h.996zm3.13-8.28h-.996V36h.996v-3.48c.036-.9.576-1.5 1.476-1.5.912 0 1.476.648 1.476 1.572V36h.996v-3.648c0-1.332-.852-2.316-2.196-2.316-.84 0-1.428.42-1.752 1.044v-3.36zm10.859 5.724c.024-.12.048-.36.048-.54 0-1.596-1.14-2.868-2.82-2.868-1.668 0-2.916 1.332-2.916 3.036 0 1.776 1.284 3.048 2.976 3.048.9 0 1.668-.288 2.172-.612v-1.032c-.492.384-1.296.732-2.1.732-1.104 0-1.92-.732-2.04-1.764h4.68zM86.75 30.9c1.02 0 1.836.696 1.848 1.752h-3.756c.072-.984.864-1.752 1.908-1.752zm5.003-.744h-.996V36h.996v-3.48c.036-.9.456-1.5 1.296-1.5.264 0 .516.06.708.144v-1.068a2.298 2.298 0 0 0-.492-.06c-.744 0-1.236.372-1.512.912v-.792zm3.743.564l.6-2.88h-1.14l-.372 2.88h.912zm4.812-.384a3.132 3.132 0 0 0-1.344-.3c-1.284 0-1.98.696-1.98 1.608 0 .552.252 1.044.864 1.404l1.08.648c.444.264.6.492.6.792 0 .444-.36.756-1.02.756-.6 0-1.164-.288-1.464-.552v1.08c.36.18.912.348 1.512.348 1.236 0 2.004-.636 2.004-1.632 0-.552-.228-1.056-.984-1.512l-1.032-.612c-.348-.216-.516-.384-.516-.696 0-.42.324-.744.948-.744.48 0 .96.192 1.332.468v-1.056zM4.824 44.156h-.996v8.304h.996v-3.624c.42.78 1.212 1.284 2.208 1.284 1.68 0 2.904-1.32 2.904-3.048 0-1.704-1.224-3.036-2.892-3.036-1.008 0-1.8.516-2.22 1.344v-1.224zm0 2.916c0-1.128.876-2.052 2.04-2.052 1.152 0 2.028.924 2.028 2.052 0 1.152-.876 2.064-2.028 2.064-1.164 0-2.04-.912-2.04-2.064zm6.015 0c0 1.728 1.332 3.048 3.036 3.048 1.728 0 3.036-1.32 3.036-3.048 0-1.704-1.308-3.036-3.036-3.036a3.002 3.002 0 0 0-3.036 3.036zm1.032 0c0-1.14.864-2.052 2.004-2.052 1.152 0 2.016.912 2.016 2.052 0 1.152-.864 2.076-2.016 2.076-1.14 0-2.004-.924-2.004-2.076zm7.332-5.352h-.996V50h.996v-8.28zm2.684 0h-.996V50h.996v-8.28zm4.711 2.616a3.132 3.132 0 0 0-1.344-.3c-1.284 0-1.98.696-1.98 1.608 0 .552.252 1.044.864 1.404l1.08.648c.444.264.6.492.6.792 0 .444-.36.756-1.02.756-.6 0-1.164-.288-1.464-.552v1.08c.36.18.912.348 1.512.348 1.236 0 2.004-.636 2.004-1.632 0-.552-.228-1.056-.984-1.512l-1.032-.612c-.348-.216-.516-.384-.516-.696 0-.42.324-.744.948-.744.48 0 .96.192 1.332.468v-1.056zm5.355 4.5c.42.78 1.224 1.284 2.22 1.284 1.668 0 2.892-1.32 2.892-3.048 0-1.704-1.224-3.036-2.892-3.036-.996 0-1.8.516-2.22 1.296V41.72h-.996V50h.996v-1.164zm0-1.764c0-1.128.876-2.052 2.04-2.052 1.152 0 2.028.924 2.028 2.052 0 1.152-.876 2.064-2.028 2.064-1.164 0-2.04-.912-2.04-2.064zm11.714.372c.024-.12.048-.36.048-.54 0-1.596-1.14-2.868-2.82-2.868-1.668 0-2.916 1.332-2.916 3.036 0 1.776 1.284 3.048 2.976 3.048.9 0 1.668-.288 2.172-.612v-1.032c-.492.384-1.296.732-2.1.732-1.104 0-1.92-.732-2.04-1.764h4.68zM40.895 44.9c1.02 0 1.836.696 1.848 1.752h-3.756c.072-.984.864-1.752 1.908-1.752zm5.015-3.18h-.996V50h.996v-8.28zm1.292 5.352c0 1.728 1.332 3.048 3.036 3.048 1.728 0 3.036-1.32 3.036-3.048 0-1.704-1.308-3.036-3.036-3.036a3.002 3.002 0 0 0-3.036 3.036zm1.032 0c0-1.14.864-2.052 2.004-2.052 1.152 0 2.016.912 2.016 2.052 0 1.152-.864 2.076-2.016 2.076-1.14 0-2.004-.924-2.004-2.076zm5.643-2.916L55.665 50h1.068l1.44-3.96 1.62 3.96h1.056l1.8-5.844h-1.044l-1.344 4.596-1.848-4.596h-1.02l.288.732-1.416 3.864-1.344-4.596h-1.044zm13.42 4.68c.42.78 1.224 1.284 2.22 1.284 1.668 0 2.892-1.32 2.892-3.048 0-1.704-1.224-3.036-2.892-3.036-.996 0-1.8.516-2.22 1.296V41.72H66.3V50h.996v-1.164zm0-1.764c0-1.128.876-2.052 2.04-2.052 1.152 0 2.028.924 2.028 2.052 0 1.152-.876 2.064-2.028 2.064-1.164 0-2.04-.912-2.04-2.064zm6.499 5.388h1.152l3.564-8.304h-1.14l-1.716 4.14-1.668-4.14h-1.14l2.256 5.4-1.308 2.904zM8.028 62.632c-.372.3-.924.516-1.512.516-1.164 0-2.04-.924-2.04-2.076 0-1.14.876-2.052 2.04-2.052.6 0 1.128.204 1.512.516v-1.104c-.408-.24-.996-.396-1.512-.396-1.776 0-3.06 1.32-3.06 3.036 0 1.728 1.284 3.048 3.06 3.048.528 0 1.104-.156 1.512-.408v-1.08zm2.34-6.912H9.37V64h.996v-8.28zm2.67 2.436h-.995V64h.996v-5.844zm-1.151-1.836c0 .372.288.648.648.648.396 0 .672-.276.672-.648a.646.646 0 0 0-.672-.66.648.648 0 0 0-.648.66zm7.004 6.312c-.372.3-.924.516-1.512.516-1.164 0-2.04-.924-2.04-2.076 0-1.14.876-2.052 2.04-2.052.6 0 1.128.204 1.512.516v-1.104c-.408-.24-.996-.396-1.512-.396-1.776 0-3.06 1.32-3.06 3.036 0 1.728 1.284 3.048 3.06 3.048.528 0 1.104-.156 1.512-.408v-1.08zM20.223 64h.996v-1.788l.864-1.008L23.643 64h1.176l-1.992-3.504 1.944-2.34h-1.2l-2.352 2.784v-5.22h-.996V64zm6.55-5.844h-.996V64h.996v-5.844zm-1.152-1.836c0 .372.288.648.648.648.396 0 .672-.276.672-.648a.646.646 0 0 0-.672-.66.648.648 0 0 0-.648.66zm3.8 1.836h-.995V64h.996v-3.48c.036-.9.576-1.5 1.476-1.5.912 0 1.476.648 1.476 1.572V64h.996v-3.648c0-1.332-.852-2.316-2.196-2.316-.852 0-1.428.42-1.752 1.044v-.924zm10.212 0v1.152c-.42-.768-1.2-1.272-2.196-1.272-1.632 0-2.844 1.296-2.844 2.964 0 1.68 1.212 2.952 2.844 2.952.996 0 1.776-.492 2.196-1.224v.948c0 1.164-.864 1.956-2.028 1.956-.792 0-1.596-.3-2.064-.636v1.08c.42.24 1.188.504 2.052.504 1.812 0 3.036-1.128 3.036-3.024v-5.4h-.996zM39.585 61c0 1.116-.828 1.98-1.968 1.98-1.116 0-1.956-.864-1.956-1.98 0-1.104.84-1.968 1.956-1.968 1.14 0 1.968.864 1.968 1.968zm5.708-1.572c.468-.288 1.008-.48 1.584-.48.696 0 1.356.384 1.356 1.32v.672c-.288-.36-.888-.684-1.524-.684-1.2 0-2.052.84-2.052 1.92 0 1.056.756 1.944 2.04 1.944.672 0 1.224-.3 1.536-.756V64h.996v-3.72c0-1.572-.936-2.244-2.256-2.244a3.85 3.85 0 0 0-1.68.408v.984zm.36 2.748c0-.636.576-1.152 1.284-1.152.684 0 1.284.516 1.284 1.152 0 .66-.576 1.176-1.284 1.176-.696 0-1.284-.516-1.284-1.176zm6.163-4.02h-.996V64h.996v-3.48c.036-.9.576-1.5 1.476-1.5.912 0 1.476.648 1.476 1.572V64h.996v-3.648c0-1.332-.852-2.316-2.196-2.316-.852 0-1.428.42-1.752 1.044v-.924zm7.972 2.916c0 1.728 1.332 3.048 3.036 3.048 1.728 0 3.036-1.32 3.036-3.048 0-1.704-1.308-3.036-3.036-3.036a3.002 3.002 0 0 0-3.036 3.036zm1.032 0c0-1.14.864-2.052 2.004-2.052 1.152 0 2.016.912 2.016 2.052 0 1.152-.864 2.076-2.016 2.076-1.14 0-2.004-.924-2.004-2.076zm7.32-2.916h-.996v8.304h.996v-3.624c.42.78 1.212 1.284 2.208 1.284 1.68 0 2.904-1.32 2.904-3.048 0-1.704-1.224-3.036-2.892-3.036-1.008 0-1.8.516-2.22 1.344v-1.224zm0 2.916c0-1.128.876-2.052 2.04-2.052 1.152 0 2.028.924 2.028 2.052 0 1.152-.876 2.064-2.028 2.064-1.164 0-2.04-.912-2.04-2.064zM75.886 64v-4.98h1.152v-.864h-1.152v-1.68l-.948.252v1.428h-1.14v.864h1.092V64h.996zm3.13-5.844h-.997V64h.996v-5.844zm-1.153-1.836c0 .372.288.648.648.648.396 0 .672-.276.672-.648a.646.646 0 0 0-.672-.66.648.648 0 0 0-.648.66zm2.42 4.752c0 1.728 1.333 3.048 3.037 3.048 1.728 0 3.036-1.32 3.036-3.048 0-1.704-1.308-3.036-3.036-3.036a3.002 3.002 0 0 0-3.036 3.036zm1.033 0c0-1.14.864-2.052 2.004-2.052 1.152 0 2.016.912 2.016 2.052 0 1.152-.864 2.076-2.016 2.076-1.14 0-2.004-.924-2.004-2.076zm7.32-2.916h-.995V64h.996v-3.48c.036-.9.576-1.5 1.476-1.5.912 0 1.476.648 1.476 1.572V64h.996v-3.648c0-1.332-.852-2.316-2.196-2.316-.852 0-1.428.42-1.752 1.044v-.924zM6.472 13h2.226l3.528-9.52H10l-2.408 7.21L5.17 3.48H2.944L6.472 13zm5.918-4.76c0 2.786 2.114 4.914 4.9 4.914 2.786 0 4.9-2.128 4.9-4.914 0-2.786-2.114-4.914-4.9-4.914-2.786 0-4.9 2.128-4.9 4.914zm2.044 0c0-1.61 1.232-2.926 2.856-2.926 1.61 0 2.842 1.316 2.842 2.926 0 1.624-1.232 2.926-2.842 2.926-1.624 0-2.856-1.302-2.856-2.926zM25.045 13h1.988V5.398h2.31V3.48h-6.608v1.918h2.31V13zm11.042 0v-1.918h-3.43V9.164h3.15V7.246h-3.15V5.398h3.43V3.48H30.67V13h5.418zM269.208 382.712v-.984h-3.12v-2.904h3.36v-.984h-4.392V386h1.032v-3.288h3.12zm1.072.36c0 1.728 1.332 3.048 3.036 3.048 1.728 0 3.036-1.32 3.036-3.048 0-1.704-1.308-3.036-3.036-3.036a3.002 3.002 0 0 0-3.036 3.036zm1.032 0c0-1.14.864-2.052 2.004-2.052 1.152 0 2.016.912 2.016 2.052 0 1.152-.864 2.076-2.016 2.076-1.14 0-2.004-.924-2.004-2.076zm7.333-5.352h-.996V386h.996v-8.28zm2.683 0h-.996V386h.996v-8.28zm1.292 5.352c0 1.728 1.332 3.048 3.036 3.048 1.728 0 3.036-1.32 3.036-3.048 0-1.704-1.308-3.036-3.036-3.036a3.002 3.002 0 0 0-3.036 3.036zm1.032 0c0-1.14.864-2.052 2.004-2.052 1.152 0 2.016.912 2.016 2.052 0 1.152-.864 2.076-2.016 2.076-1.14 0-2.004-.924-2.004-2.076zm5.643-2.916l1.788 5.844h1.068l1.44-3.96 1.62 3.96h1.056l1.8-5.844h-1.044l-1.344 4.596-1.848-4.596h-1.02l.288.732-1.416 3.864-1.344-4.596h-1.044zm13.77 5.844v-4.98h1.152v-.864h-1.152v-1.68l-.948.252v1.428h-1.14v.864h1.092V386h.996zm1.645-2.928c0 1.728 1.332 3.048 3.036 3.048 1.728 0 3.036-1.32 3.036-3.048 0-1.704-1.308-3.036-3.036-3.036a3.002 3.002 0 0 0-3.036 3.036zm1.032 0c0-1.14.864-2.052 2.004-2.052 1.152 0 2.016.912 2.016 2.052 0 1.152-.864 2.076-2.016 2.076-1.14 0-2.004-.924-2.004-2.076zm9.137 2.928h.996v-1.788l.864-1.008 1.56 2.796h1.176l-1.992-3.504 1.944-2.34h-1.2l-2.352 2.784v-5.22h-.996V386zm10.695-2.556c.024-.12.048-.36.048-.54 0-1.596-1.14-2.868-2.82-2.868-1.668 0-2.916 1.332-2.916 3.036 0 1.776 1.284 3.048 2.976 3.048.9 0 1.668-.288 2.172-.612v-1.032c-.492.384-1.296.732-2.1.732-1.104 0-1.92-.732-2.04-1.764h4.68zm-2.772-2.544c1.02 0 1.836.696 1.848 1.752h-3.756c.072-.984.864-1.752 1.908-1.752zm9.322 2.544c.024-.12.048-.36.048-.54 0-1.596-1.14-2.868-2.82-2.868-1.667 0-2.915 1.332-2.915 3.036 0 1.776 1.284 3.048 2.976 3.048.9 0 1.668-.288 2.172-.612v-1.032c-.492.384-1.296.732-2.1.732-1.104 0-1.92-.732-2.04-1.764h4.68zm-2.772-2.544c1.02 0 1.837.696 1.849 1.752h-3.756c.072-.984.864-1.752 1.908-1.752zm5.003-.744h-.996v8.304h.996v-3.624c.42.78 1.212 1.284 2.208 1.284 1.68 0 2.904-1.32 2.904-3.048 0-1.704-1.224-3.036-2.892-3.036-1.008 0-1.8.516-2.22 1.344v-1.224zm0 2.916c0-1.128.876-2.052 2.04-2.052 1.152 0 2.028.924 2.028 2.052 0 1.152-.876 2.064-2.028 2.064-1.164 0-2.04-.912-2.04-2.064zM344.913 386v-4.98h1.152v-.864h-1.152v-1.68l-.948.252v1.428h-1.14v.864h1.092V386h.996zm2.267-4.572c.468-.288 1.008-.48 1.584-.48.696 0 1.356.384 1.356 1.32v.672c-.288-.36-.888-.684-1.524-.684-1.2 0-2.052.84-2.052 1.92 0 1.056.756 1.944 2.04 1.944.672 0 1.224-.3 1.536-.756V386h.996v-3.72c0-1.572-.936-2.244-2.256-2.244a3.85 3.85 0 0 0-1.68.408v.984zm.36 2.748c0-.636.576-1.152 1.284-1.152.684 0 1.284.516 1.284 1.152 0 .66-.576 1.176-1.284 1.176-.696 0-1.284-.516-1.284-1.176zm6.163.66c.42.78 1.224 1.284 2.22 1.284 1.668 0 2.892-1.32 2.892-3.048 0-1.704-1.224-3.036-2.892-3.036-.996 0-1.8.516-2.22 1.296v-3.612h-.996V386h.996v-1.164zm0-1.764c0-1.128.876-2.052 2.04-2.052 1.152 0 2.028.924 2.028 2.052 0 1.152-.876 2.064-2.028 2.064-1.164 0-2.04-.912-2.04-2.064zm9.434-2.736a3.132 3.132 0 0 0-1.344-.3c-1.284 0-1.98.696-1.98 1.608 0 .552.252 1.044.864 1.404l1.08.648c.444.264.6.492.6.792 0 .444-.36.756-1.02.756-.6 0-1.164-.288-1.464-.552v1.08c.36.18.912.348 1.512.348 1.236 0 2.004-.636 2.004-1.632 0-.552-.228-1.056-.984-1.512l-1.032-.612c-.348-.216-.516-.384-.516-.696 0-.42.324-.744.948-.744.48 0 .96.192 1.332.468v-1.056zm3.975 2.736c0 1.728 1.332 3.048 3.036 3.048 1.728 0 3.036-1.32 3.036-3.048 0-1.704-1.308-3.036-3.036-3.036a3.002 3.002 0 0 0-3.036 3.036zm1.032 0c0-1.14.864-2.052 2.004-2.052 1.152 0 2.016.912 2.016 2.052 0 1.152-.864 2.076-2.016 2.076-1.14 0-2.004-.924-2.004-2.076zm7.321-2.916h-.996V386h.996v-3.48c.036-.9.576-1.5 1.476-1.5.912 0 1.476.648 1.476 1.572V386h.996v-3.648c0-1.332-.852-2.316-2.196-2.316-.852 0-1.428.42-1.752 1.044v-.924zm-109.641 14h-.996v8.304h.996v-3.624c.42.78 1.212 1.284 2.208 1.284 1.68 0 2.904-1.32 2.904-3.048 0-1.704-1.224-3.036-2.892-3.036-1.008 0-1.8.516-2.22 1.344v-1.224zm0 2.916c0-1.128.876-2.052 2.04-2.052 1.152 0 2.028.924 2.028 2.052 0 1.152-.876 2.064-2.028 2.064-1.164 0-2.04-.912-2.04-2.064zm6.015 0c0 1.728 1.332 3.048 3.036 3.048 1.728 0 3.036-1.32 3.036-3.048 0-1.704-1.308-3.036-3.036-3.036a3.002 3.002 0 0 0-3.036 3.036zm1.032 0c0-1.14.864-2.052 2.004-2.052 1.152 0 2.016.912 2.016 2.052 0 1.152-.864 2.076-2.016 2.076-1.14 0-2.004-.924-2.004-2.076zm7.332-5.352h-.996V400h.996v-8.28zm2.684 0h-.996V400h.996v-8.28zm4.711 2.616a3.132 3.132 0 0 0-1.344-.3c-1.284 0-1.98.696-1.98 1.608 0 .552.252 1.044.864 1.404l1.08.648c.444.264.6.492.6.792 0 .444-.36.756-1.02.756-.6 0-1.164-.288-1.464-.552v1.08c.36.18.912.348 1.512.348 1.236 0 2.004-.636 2.004-1.632 0-.552-.228-1.056-.984-1.512l-1.032-.612c-.348-.216-.516-.384-.516-.696 0-.42.324-.744.948-.744.48 0 .96.192 1.332.468v-1.056zm4.527 1.092c.468-.288 1.008-.48 1.584-.48.696 0 1.356.384 1.356 1.32v.672c-.288-.36-.888-.684-1.524-.684-1.2 0-2.052.84-2.052 1.92 0 1.056.756 1.944 2.04 1.944.672 0 1.224-.3 1.536-.756V400h.996v-3.72c0-1.572-.936-2.244-2.256-2.244a3.85 3.85 0 0 0-1.68.408v.984zm.36 2.748c0-.636.576-1.152 1.284-1.152.684 0 1.284.516 1.284 1.152 0 .66-.576 1.176-1.284 1.176-.696 0-1.284-.516-1.284-1.176zm6.163-4.02h-.996V400h.996v-3.48c.036-.9.576-1.5 1.476-1.5.912 0 1.476.648 1.476 1.572V400h.996v-3.648c0-1.332-.852-2.316-2.196-2.316-.852 0-1.428.42-1.752 1.044v-.924zM308.92 400h1.008v-8.28h-1.008v3.612c-.42-.78-1.212-1.296-2.196-1.296-1.692 0-2.904 1.332-2.904 3.036 0 1.728 1.212 3.048 2.904 3.048.984 0 1.776-.504 2.196-1.284V400zm0-2.928c0 1.152-.864 2.064-2.028 2.064-1.152 0-2.04-.912-2.04-2.064 0-1.128.888-2.052 2.04-2.052 1.164 0 2.028.924 2.028 2.052zm8.323-2.916h-1.464v-.672c0-.564.288-.9.864-.9.276 0 .552.072.672.132v-1.02a2.864 2.864 0 0 0-.696-.096c-1.128 0-1.836.66-1.836 1.824v.732h-.912v.864h.912V400h.996v-4.98h1.464v-.864zm2.292 0h-.996V400h.996v-5.844zm-1.152-1.836c0 .372.288.648.648.648.396 0 .672-.276.672-.648a.646.646 0 0 0-.672-.66.648.648 0 0 0-.648.66zm3.81 1.836h-.997V400h.996v-3.48c.036-.9.576-1.5 1.476-1.5.912 0 1.476.648 1.476 1.572V400h.996v-3.648c0-1.332-.852-2.316-2.196-2.316-.852 0-1.428.42-1.752 1.044v-.924zm10.27 5.844h1.008v-8.28h-1.008v3.612c-.42-.78-1.212-1.296-2.196-1.296-1.692 0-2.904 1.332-2.904 3.036 0 1.728 1.212 3.048 2.904 3.048.984 0 1.776-.504 2.196-1.284V400zm0-2.928c0 1.152-.864 2.064-2.028 2.064-1.152 0-2.04-.912-2.04-2.064 0-1.128.888-2.052 2.04-2.052 1.164 0 2.028.924 2.028 2.052zm5.095 0c0 1.728 1.332 3.048 3.036 3.048 1.728 0 3.036-1.32 3.036-3.048 0-1.704-1.308-3.036-3.036-3.036a3.002 3.002 0 0 0-3.036 3.036zm1.032 0c0-1.14.864-2.052 2.004-2.052 1.152 0 2.016.912 2.016 2.052 0 1.152-.864 2.076-2.016 2.076-1.14 0-2.004-.924-2.004-2.076zM348.802 400h1.008v-5.844h-1.008v3.504c-.036.888-.576 1.488-1.464 1.488-.924 0-1.464-.648-1.464-1.572v-3.42h-.996v3.648c0 1.344.852 2.316 2.184 2.316.852 0 1.44-.408 1.74-1.032V400zm4.15 0v-4.98h1.152v-.864h-1.152v-1.68l-.948.252v1.428h-1.14v.864h1.092V400h.996zm6.188 0v-4.98h1.152v-.864h-1.152v-1.68l-.948.252v1.428h-1.14v.864h1.092V400h.996zm3.13-8.28h-.997V400h.996v-3.48c.036-.9.576-1.5 1.476-1.5.912 0 1.476.648 1.476 1.572V400h.996v-3.648c0-1.332-.852-2.316-2.196-2.316-.84 0-1.428.42-1.752 1.044v-3.36zm10.858 5.724c.024-.12.048-.36.048-.54 0-1.596-1.14-2.868-2.82-2.868-1.668 0-2.916 1.332-2.916 3.036 0 1.776 1.284 3.048 2.976 3.048.9 0 1.668-.288 2.172-.612v-1.032c-.492.384-1.296.732-2.1.732-1.104 0-1.92-.732-2.04-1.764h4.68zm-2.772-2.544c1.02 0 1.836.696 1.848 1.752h-3.756c.072-.984.864-1.752 1.908-1.752zm-102.684 13.256h-1.464v-.672c0-.564.288-.9.864-.9.276 0 .552.072.672.132v-1.02a2.864 2.864 0 0 0-.696-.096c-1.128 0-1.836.66-1.836 1.824v.732h-.912v.864h.912V414h.996v-4.98h1.464v-.864zm2.292 0h-.996V414h.996v-5.844zm-1.152-1.836c0 .372.288.648.648.648.396 0 .672-.276.672-.648a.646.646 0 0 0-.672-.66.648.648 0 0 0-.648.66zm3.809 1.836h-.996V414h.996v-3.48c.036-.9.576-1.5 1.476-1.5.912 0 1.476.648 1.476 1.572V414h.996v-3.648c0-1.332-.852-2.316-2.196-2.316-.852 0-1.428.42-1.752 1.044v-.924zm5.71 1.272c.469-.288 1.009-.48 1.585-.48.696 0 1.356.384 1.356 1.32v.672c-.288-.36-.888-.684-1.524-.684-1.2 0-2.052.84-2.052 1.92 0 1.056.756 1.944 2.04 1.944.672 0 1.224-.3 1.536-.756V414h.996v-3.72c0-1.572-.936-2.244-2.256-2.244a3.85 3.85 0 0 0-1.68.408v.984zm.36 2.748c0-.636.577-1.152 1.285-1.152.684 0 1.284.516 1.284 1.152 0 .66-.576 1.176-1.284 1.176-.696 0-1.284-.516-1.284-1.176zm6.176-6.456h-.996V414h.996v-8.28zm5.484 2.436h-.996V414h.996v-3.48c.036-.9.456-1.5 1.296-1.5.264 0 .516.06.708.144v-1.068a2.298 2.298 0 0 0-.492-.06c-.744 0-1.236.372-1.512.912v-.792zm8.129 3.288c.024-.12.048-.36.048-.54 0-1.596-1.14-2.868-2.82-2.868-1.668 0-2.916 1.332-2.916 3.036 0 1.776 1.284 3.048 2.976 3.048.9 0 1.668-.288 2.172-.612v-1.032c-.492.384-1.296.732-2.1.732-1.104 0-1.92-.732-2.04-1.764h4.68zm-2.772-2.544c1.02 0 1.836.696 1.848 1.752H293.8c.072-.984.864-1.752 1.908-1.752zm7.043-.564a3.132 3.132 0 0 0-1.344-.3c-1.284 0-1.98.696-1.98 1.608 0 .552.252 1.044.864 1.404l1.08.648c.444.264.6.492.6.792 0 .444-.36.756-1.02.756-.6 0-1.164-.288-1.464-.552v1.08c.36.18.912.348 1.512.348 1.236 0 2.004-.636 2.004-1.632 0-.552-.228-1.056-.984-1.512l-1.032-.612c-.348-.216-.516-.384-.516-.696 0-.42.324-.744.948-.744.48 0 .96.192 1.332.468v-1.056zm5.434 5.664h1.008v-5.844h-1.008v3.504c-.036.888-.576 1.488-1.464 1.488-.924 0-1.464-.648-1.464-1.572v-3.42h-.996v3.648c0 1.344.852 2.316 2.184 2.316.852 0 1.44-.408 1.74-1.032V414zm3.694-8.28h-.996V414h.996v-8.28zm3.14 8.28v-4.98h1.152v-.864h-1.152v-1.68l-.948.252v1.428h-1.14v.864h1.092V414h.996zm5.17-5.664a3.132 3.132 0 0 0-1.345-.3c-1.284 0-1.98.696-1.98 1.608 0 .552.252 1.044.864 1.404l1.08.648c.444.264.6.492.6.792 0 .444-.36.756-1.02.756-.6 0-1.164-.288-1.464-.552v1.08c.36.18.912.348 1.512.348 1.236 0 2.004-.636 2.004-1.632 0-.552-.228-1.056-.984-1.512l-1.032-.612c-.348-.216-.516-.384-.516-.696 0-.42.324-.744.948-.744.48 0 .96.192 1.332.468v-1.056zM270.188 359.57v-1.918h-3.15v-2.254h3.43v-1.918h-5.418V363h1.988v-3.43h3.15zm1.274-1.33c0 2.786 2.114 4.914 4.9 4.914 2.786 0 4.9-2.128 4.9-4.914 0-2.786-2.114-4.914-4.9-4.914-2.786 0-4.9 2.128-4.9 4.914zm2.044 0c0-1.61 1.232-2.926 2.856-2.926 1.61 0 2.842 1.316 2.842 2.926 0 1.624-1.232 2.926-2.842 2.926-1.624 0-2.856-1.302-2.856-2.926zm14.68 4.76v-1.918h-3.43v-7.602h-1.987V363h5.418zm6.727 0v-1.918h-3.43v-7.602h-1.988V363h5.418zm.557-4.76c0 2.786 2.114 4.914 4.9 4.914 2.786 0 4.9-2.128 4.9-4.914 0-2.786-2.114-4.914-4.9-4.914-2.786 0-4.9 2.128-4.9 4.914zm2.044 0c0-1.61 1.232-2.926 2.856-2.926 1.61 0 2.842 1.316 2.842 2.926 0 1.624-1.232 2.926-2.842 2.926-1.624 0-2.856-1.302-2.856-2.926zm10.763 4.76h2.226l1.974-5.67 1.68 5.67h2.226l2.548-9.52h-2.212l-1.596 7.028-1.946-7.028h-2.002l.322 1.162-1.946 5.866-1.61-7.028h-2.212l2.548 9.52zM245.304 264.06v-1.644h-2.7v-1.932h2.94v-1.644H240.9V267h1.704v-2.94h2.7zm.903-.048c0 1.752 1.356 3.12 3.108 3.12s3.108-1.368 3.108-3.12-1.356-3.108-3.108-3.108-3.108 1.356-3.108 3.108zm1.656 0c0-.828.624-1.512 1.452-1.512.84 0 1.44.684 1.44 1.512s-.6 1.524-1.44 1.524c-.828 0-1.452-.696-1.452-1.524zm7.227-5.292h-1.644V267h1.644v-8.28zm3.011 0h-1.644V267h1.644v-8.28zm1.02 5.292c0 1.752 1.356 3.12 3.108 3.12s3.108-1.368 3.108-3.12-1.356-3.108-3.108-3.108-3.108 1.356-3.108 3.108zm1.656 0c0-.828.624-1.512 1.452-1.512.84 0 1.44.684 1.44 1.512s-.6 1.524-1.44 1.524c-.828 0-1.452-.696-1.452-1.524zm4.901-2.988l1.764 5.976h1.716l1.104-3.276L271.45 267h1.704l1.776-5.976h-1.692l-1.032 3.972-1.392-3.972h-1.62l.288.816-1.056 3.156-1.056-3.972h-1.692zM226.5 256l1.684 5.182h5.449l-4.409 3.203 1.684 5.183-4.408-3.203-4.408 3.203 1.683-5.183-4.408-3.203h5.45L226.5 256z" fill="#005B9A"/><path d="M148.19 63h-15.2l7.6 9.8 7.6-9.8z" fill="#61B7F2"/><path d="M140.99 64V11.673c0-3.688-3.333-6.673-7.333-6.673H120.99" stroke="#61B7F2" stroke-width="5" stroke-miterlimit="10"/><path d="M218.999 323.8h15.2l-7.6-9.8-7.6 9.8z" fill="#61B7F2"/><path d="M226.199 322.8v52.327c0 3.688 3.333 6.673 7.333 6.673H246.2" stroke="#61B7F2" stroke-width="5" stroke-miterlimit="10"/></svg>