<svg width="533" height="465" viewBox="0 0 533 465" fill="none" xmlns="http://www.w3.org/2000/svg">
<path d="M2.128 6.182H0.966V13H2.128V8.772C2.17 7.75 2.8 7.19 3.71 7.19C4.606 7.19 5.25 7.778 5.25 8.87V13H6.412V8.87C6.412 7.792 7.07 7.19 7.98 7.19C8.89 7.19 9.534 7.778 9.534 8.87V13H10.696V8.59C10.696 7.022 9.66 6.042 8.302 6.042C7.252 6.042 6.524 6.588 6.216 7.456C5.852 6.546 5.026 6.042 4.018 6.042C3.136 6.042 2.492 6.462 2.128 7.12V6.182ZM12.7557 7.666C13.3018 7.33 13.9317 7.106 14.6038 7.106C15.4158 7.106 16.1858 7.554 16.1858 8.646V9.43C15.8497 9.01 15.1498 8.632 14.4078 8.632C13.0078 8.632 12.0137 9.612 12.0137 10.872C12.0137 12.104 12.8958 13.14 14.3938 13.14C15.1778 13.14 15.8217 12.79 16.1858 12.258V13H17.3478V8.66C17.3478 6.826 16.2558 6.042 14.7158 6.042C13.9597 6.042 13.2598 6.266 12.7557 6.518V7.666ZM13.1757 10.872C13.1757 10.13 13.8477 9.528 14.6737 9.528C15.4718 9.528 16.1717 10.13 16.1717 10.872C16.1717 11.642 15.4998 12.244 14.6737 12.244C13.8618 12.244 13.1757 11.642 13.1757 10.872ZM19.2043 13H20.3663V10.914L21.3743 9.738L23.1943 13H24.5663L22.2423 8.912L24.5103 6.182H23.1103L20.3663 9.43V3.34H19.2043V13ZM31.6817 10.018C31.7097 9.878 31.7377 9.598 31.7377 9.388C31.7377 7.526 30.4077 6.042 28.4477 6.042C26.5017 6.042 25.0457 7.596 25.0457 9.584C25.0457 11.656 26.5437 13.14 28.5177 13.14C29.5677 13.14 30.4637 12.804 31.0517 12.426V11.222C30.4777 11.67 29.5397 12.076 28.6017 12.076C27.3137 12.076 26.3617 11.222 26.2217 10.018H31.6817ZM28.4477 7.05C29.6377 7.05 30.5897 7.862 30.6037 9.094H26.2217C26.3057 7.946 27.2297 7.05 28.4477 7.05ZM36.5995 7.666C37.1455 7.33 37.7755 7.106 38.4475 7.106C39.2595 7.106 40.0295 7.554 40.0295 8.646V9.43C39.6935 9.01 38.9935 8.632 38.2515 8.632C36.8515 8.632 35.8575 9.612 35.8575 10.872C35.8575 12.104 36.7395 13.14 38.2375 13.14C39.0215 13.14 39.6655 12.79 40.0295 12.258V13H41.1915V8.66C41.1915 6.826 40.0995 6.042 38.5595 6.042C37.8035 6.042 37.1035 6.266 36.5995 6.518V7.666ZM37.0195 10.872C37.0195 10.13 37.6915 9.528 38.5175 9.528C39.3155 9.528 40.0155 10.13 40.0155 10.872C40.0155 11.642 39.3435 12.244 38.5175 12.244C37.7055 12.244 37.0195 11.642 37.0195 10.872ZM47.4913 6.182H46.3293V15.87H47.4913V11.642C47.9813 12.552 48.9053 13.14 50.0673 13.14C52.0273 13.14 53.4553 11.6 53.4553 9.584C53.4553 7.596 52.0273 6.042 50.0813 6.042C48.9053 6.042 47.9813 6.644 47.4913 7.61V6.182ZM47.4913 9.584C47.4913 8.268 48.5133 7.19 49.8713 7.19C51.2153 7.19 52.2373 8.268 52.2373 9.584C52.2373 10.928 51.2153 11.992 49.8713 11.992C48.5133 11.992 47.4913 10.928 47.4913 9.584ZM54.5082 9.584C54.5082 11.6 56.0622 13.14 58.0502 13.14C60.0662 13.14 61.5922 11.6 61.5922 9.584C61.5922 7.596 60.0662 6.042 58.0502 6.042C56.0622 6.042 54.5082 7.596 54.5082 9.584ZM55.7122 9.584C55.7122 8.254 56.7202 7.19 58.0502 7.19C59.3942 7.19 60.4022 8.254 60.4022 9.584C60.4022 10.928 59.3942 12.006 58.0502 12.006C56.7202 12.006 55.7122 10.928 55.7122 9.584ZM64.267 3.34H63.105V13H64.267V3.34ZM67.3979 3.34H66.2359V13H67.3979V3.34ZM74.2052 13V7.19H75.5493V6.182H74.2052V4.222L73.0993 4.516V6.182H71.7693V7.19H73.0433V13H74.2052ZM77.8565 3.34H76.6945V13H77.8565V8.94C77.8985 7.89 78.5285 7.19 79.5785 7.19C80.6425 7.19 81.3005 7.946 81.3005 9.024V13H82.4625V8.744C82.4625 7.19 81.4685 6.042 79.9005 6.042C78.9205 6.042 78.2345 6.532 77.8565 7.26V3.34ZM84.5194 7.666C85.0654 7.33 85.6954 7.106 86.3674 7.106C87.1794 7.106 87.9494 7.554 87.9494 8.646V9.43C87.6134 9.01 86.9134 8.632 86.1714 8.632C84.7714 8.632 83.7774 9.612 83.7774 10.872C83.7774 12.104 84.6594 13.14 86.1574 13.14C86.9414 13.14 87.5854 12.79 87.9494 12.258V13H89.1114V8.66C89.1114 6.826 88.0194 6.042 86.4794 6.042C85.7234 6.042 85.0234 6.266 84.5194 6.518V7.666ZM84.9394 10.872C84.9394 10.13 85.6114 9.528 86.4374 9.528C87.2354 9.528 87.9354 10.13 87.9354 10.872C87.9354 11.642 87.2634 12.244 86.4374 12.244C85.6254 12.244 84.9394 11.642 84.9394 10.872ZM92.5939 13V7.19H93.9379V6.182H92.5939V4.222L91.4879 4.516V6.182H90.1579V7.19H91.4319V13H92.5939ZM97.7934 9.584C97.7934 11.6 99.3474 13.14 101.335 13.14C103.351 13.14 104.877 11.6 104.877 9.584C104.877 7.596 103.351 6.042 101.335 6.042C99.3474 6.042 97.7934 7.596 97.7934 9.584ZM98.9974 9.584C98.9974 8.254 100.005 7.19 101.335 7.19C102.679 7.19 103.687 8.254 103.687 9.584C103.687 10.928 102.679 12.006 101.335 12.006C100.005 12.006 98.9974 10.928 98.9974 9.584ZM107.947 13V7.19H109.291V6.182H107.947V4.222L106.841 4.516V6.182H105.511V7.19H106.785V13H107.947ZM111.599 3.34H110.437V13H111.599V8.94C111.641 7.89 112.271 7.19 113.321 7.19C114.385 7.19 115.043 7.946 115.043 9.024V13H116.205V8.744C116.205 7.19 115.211 6.042 113.643 6.042C112.663 6.042 111.977 6.532 111.599 7.26V3.34ZM124.268 10.018C124.296 9.878 124.324 9.598 124.324 9.388C124.324 7.526 122.994 6.042 121.034 6.042C119.088 6.042 117.632 7.596 117.632 9.584C117.632 11.656 119.13 13.14 121.104 13.14C122.154 13.14 123.05 12.804 123.638 12.426V11.222C123.064 11.67 122.126 12.076 121.188 12.076C119.9 12.076 118.948 11.222 118.808 10.018H124.268ZM121.034 7.05C122.224 7.05 123.176 7.862 123.19 9.094H118.808C118.892 7.946 119.816 7.05 121.034 7.05ZM126.87 6.182H125.708V13H126.87V8.94C126.912 7.89 127.402 7.19 128.382 7.19C128.69 7.19 128.984 7.26 129.208 7.358V6.112C129.026 6.07 128.816 6.042 128.634 6.042C127.766 6.042 127.192 6.476 126.87 7.106V6.182ZM5.502 29H6.678V22.182H5.502V26.27C5.46 27.306 4.83 28.006 3.794 28.006C2.716 28.006 2.086 27.25 2.086 26.172V22.182H0.924V26.438C0.924 28.006 1.918 29.14 3.472 29.14C4.466 29.14 5.152 28.664 5.502 27.936V29ZM12.1779 22.392C11.7859 22.196 11.2119 22.042 10.6099 22.042C9.11192 22.042 8.29992 22.854 8.29992 23.918C8.29992 24.562 8.59392 25.136 9.30792 25.556L10.5679 26.312C11.0859 26.62 11.2679 26.886 11.2679 27.236C11.2679 27.754 10.8479 28.118 10.0779 28.118C9.37792 28.118 8.71992 27.782 8.36992 27.474V28.734C8.78992 28.944 9.43392 29.14 10.1339 29.14C11.5759 29.14 12.4719 28.398 12.4719 27.236C12.4719 26.592 12.2059 26.004 11.3239 25.472L10.1199 24.758C9.71392 24.506 9.51792 24.31 9.51792 23.946C9.51792 23.456 9.89592 23.078 10.6239 23.078C11.1839 23.078 11.7439 23.302 12.1779 23.624V22.392ZM20.1836 26.018C20.2116 25.878 20.2396 25.598 20.2396 25.388C20.2396 23.526 18.9096 22.042 16.9496 22.042C15.0036 22.042 13.5476 23.596 13.5476 25.584C13.5476 27.656 15.0456 29.14 17.0196 29.14C18.0696 29.14 18.9656 28.804 19.5536 28.426V27.222C18.9796 27.67 18.0416 28.076 17.1036 28.076C15.8156 28.076 14.8636 27.222 14.7236 26.018H20.1836ZM16.9496 23.05C18.1396 23.05 19.0916 23.862 19.1056 25.094H14.7236C14.8076 23.946 15.7316 23.05 16.9496 23.05ZM22.7862 22.182H21.6242V29H22.7862V24.94C22.8282 23.89 23.3182 23.19 24.2982 23.19C24.6062 23.19 24.9002 23.26 25.1242 23.358V22.112C24.9422 22.07 24.7322 22.042 24.5502 22.042C23.6822 22.042 23.1082 22.476 22.7862 23.106V22.182ZM29.8557 22.392C29.4637 22.196 28.8897 22.042 28.2877 22.042C26.7897 22.042 25.9777 22.854 25.9777 23.918C25.9777 24.562 26.2717 25.136 26.9857 25.556L28.2457 26.312C28.7637 26.62 28.9457 26.886 28.9457 27.236C28.9457 27.754 28.5257 28.118 27.7557 28.118C27.0557 28.118 26.3977 27.782 26.0477 27.474V28.734C26.4677 28.944 27.1117 29.14 27.8117 29.14C29.2537 29.14 30.1497 28.398 30.1497 27.236C30.1497 26.592 29.8837 26.004 29.0017 25.472L27.7977 24.758C27.3917 24.506 27.1957 24.31 27.1957 23.946C27.1957 23.456 27.5737 23.078 28.3017 23.078C28.8617 23.078 29.4217 23.302 29.8557 23.624V22.392ZM39.8406 27.404C39.4066 27.754 38.7626 28.006 38.0766 28.006C36.7186 28.006 35.6966 26.928 35.6966 25.584C35.6966 24.254 36.7186 23.19 38.0766 23.19C38.7766 23.19 39.3926 23.428 39.8406 23.792V22.504C39.3646 22.224 38.6786 22.042 38.0766 22.042C36.0046 22.042 34.5066 23.582 34.5066 25.584C34.5066 27.6 36.0046 29.14 38.0766 29.14C38.6926 29.14 39.3646 28.958 39.8406 28.664V27.404ZM41.5487 23.666C42.0947 23.33 42.7247 23.106 43.3967 23.106C44.2087 23.106 44.9787 23.554 44.9787 24.646V25.43C44.6427 25.01 43.9427 24.632 43.2007 24.632C41.8007 24.632 40.8067 25.612 40.8067 26.872C40.8067 28.104 41.6887 29.14 43.1867 29.14C43.9707 29.14 44.6147 28.79 44.9787 28.258V29H46.1407V24.66C46.1407 22.826 45.0487 22.042 43.5087 22.042C42.7527 22.042 42.0527 22.266 41.5487 22.518V23.666ZM41.9687 26.872C41.9687 26.13 42.6407 25.528 43.4667 25.528C44.2647 25.528 44.9647 26.13 44.9647 26.872C44.9647 27.642 44.2927 28.244 43.4667 28.244C42.6547 28.244 41.9687 27.642 41.9687 26.872ZM49.1592 22.182H47.9972V29H49.1592V24.94C49.2013 23.89 49.8313 23.19 50.8813 23.19C51.9453 23.19 52.6033 23.946 52.6033 25.024V29H53.7653V24.744C53.7653 23.19 52.7712 22.042 51.2033 22.042C50.2092 22.042 49.5373 22.532 49.1592 23.26V22.182ZM57.7956 22.182L60.5116 29H61.7436L64.4736 22.182H63.2416L61.1276 27.572L59.0276 22.182H57.7956ZM64.9535 25.584C64.9535 27.6 66.5075 29.14 68.4955 29.14C70.5115 29.14 72.0375 27.6 72.0375 25.584C72.0375 23.596 70.5115 22.042 68.4955 22.042C66.5075 22.042 64.9535 23.596 64.9535 25.584ZM66.1575 25.584C66.1575 24.254 67.1655 23.19 68.4955 23.19C69.8395 23.19 70.8475 24.254 70.8475 25.584C70.8475 26.928 69.8395 28.006 68.4955 28.006C67.1655 28.006 66.1575 26.928 66.1575 25.584ZM75.1076 29V23.19H76.4516V22.182H75.1076V20.222L74.0016 20.516V22.182H72.6716V23.19H73.9456V29H75.1076ZM83.6758 26.018C83.7038 25.878 83.7318 25.598 83.7318 25.388C83.7318 23.526 82.4018 22.042 80.4418 22.042C78.4958 22.042 77.0398 23.596 77.0398 25.584C77.0398 27.656 78.5378 29.14 80.5118 29.14C81.5618 29.14 82.4578 28.804 83.0458 28.426V27.222C82.4718 27.67 81.5338 28.076 80.5958 28.076C79.3078 28.076 78.3558 27.222 78.2158 26.018H83.6758ZM80.4418 23.05C81.6318 23.05 82.5838 23.862 82.5978 25.094H78.2158C78.2998 23.946 79.2238 23.05 80.4418 23.05ZM87.9496 25.584C87.9496 27.6 89.5036 29.14 91.4916 29.14C93.5076 29.14 95.0336 27.6 95.0336 25.584C95.0336 23.596 93.5076 22.042 91.4916 22.042C89.5036 22.042 87.9496 23.596 87.9496 25.584ZM89.1536 25.584C89.1536 24.254 90.1616 23.19 91.4916 23.19C92.8356 23.19 93.8436 24.254 93.8436 25.584C93.8436 26.928 92.8356 28.006 91.4916 28.006C90.1616 28.006 89.1536 26.928 89.1536 25.584ZM97.6944 22.182H96.5324V29H97.6944V24.94C97.7364 23.89 98.3664 23.19 99.4164 23.19C100.48 23.19 101.138 23.946 101.138 25.024V29H102.3V24.744C102.3 23.19 101.306 22.042 99.7384 22.042C98.7444 22.042 98.0724 22.532 97.6944 23.26V22.182Z" transform="translate(120 124)" fill="#005B9A"/>
<path d="M7.532 10.396C7.028 10.844 6.244 11.166 5.362 11.166C3.724 11.166 2.506 9.864 2.506 8.24C2.506 6.63 3.738 5.314 5.362 5.314C6.244 5.314 7 5.636 7.532 6.098V3.816C6.888 3.508 6.146 3.326 5.362 3.326C2.576 3.326 0.462 5.454 0.462 8.24C0.462 11.026 2.576 13.154 5.362 13.154C6.146 13.154 6.888 12.972 7.532 12.664V10.396ZM9.19844 13H11.1864V9.458H11.6764C12.8384 9.458 13.6504 10.928 13.9864 13H16.0444C15.8204 10.956 15.1064 9.276 13.9164 8.66C14.8544 8.394 15.6384 7.61 15.6384 6.252C15.6384 4.488 14.3504 3.48 12.4884 3.48H9.19844V13ZM13.5944 6.476C13.5944 7.162 13.1184 7.54 12.4884 7.54H11.1864V5.398H12.4884C13.1184 5.398 13.5944 5.776 13.5944 6.476ZM22.9153 13V11.082H19.4853V9.164H22.6353V7.246H19.4853V5.398H22.9153V3.48H17.4973V13H22.9153ZM30.6797 13H32.9057L29.3777 3.48H27.1517L23.6237 13H25.8497L26.5637 10.97H29.9657L30.6797 13ZM28.2717 6.084L29.3217 9.052H27.2217L28.2717 6.084ZM34.8556 13H36.8436V5.398H39.1536V3.48H32.5456V5.398H34.8556V13ZM45.8977 13V11.082H42.4677V9.164H45.6177V7.246H42.4677V5.398H45.8977V3.48H40.4797V13H45.8977ZM50.7336 13H54.1216C55.9556 13 57.2716 11.936 57.2716 10.368C57.2716 9.248 56.7116 8.506 55.8716 8.1C56.5576 7.736 57.0056 7.05 57.0056 6.014C57.0056 4.502 55.7736 3.48 54.0376 3.48H50.7336V13ZM55.2276 10.088C55.2276 10.774 54.7516 11.082 54.1216 11.082H52.7216V9.08H54.1216C54.7516 9.08 55.2276 9.402 55.2276 10.088ZM54.9616 6.28C54.9616 6.882 54.5556 7.162 54.0236 7.162H52.7216V5.398H54.0236C54.5556 5.398 54.9616 5.678 54.9616 6.28ZM64.021 3.48V9.584C64.021 10.55 63.391 11.222 62.369 11.222C61.361 11.222 60.731 10.55 60.731 9.584V3.48H58.743V9.416C58.743 11.754 60.143 13.154 62.369 13.154C64.595 13.154 66.009 11.754 66.009 9.416V3.48H64.021ZM69.5412 13H71.5292V5.398H73.8392V3.48H67.2312V5.398H69.5412V13ZM76.7052 13H78.6932V5.398H81.0032V3.48H74.3952V5.398H76.7052V13ZM81.5499 8.24C81.5499 11.026 83.6639 13.154 86.4499 13.154C89.2359 13.154 91.3499 11.026 91.3499 8.24C91.3499 5.454 89.2359 3.326 86.4499 3.326C83.6639 3.326 81.5499 5.454 81.5499 8.24ZM83.5939 8.24C83.5939 6.63 84.8259 5.314 86.4499 5.314C88.0599 5.314 89.2919 6.63 89.2919 8.24C89.2919 9.864 88.0599 11.166 86.4499 11.166C84.8259 11.166 83.5939 9.864 83.5939 8.24ZM98.7786 13H100.767V3.48H98.7786V9.542L94.6066 3.48H92.2546V3.62L92.9126 4.67V13H94.9006V7.498L98.7786 13Z" transform="translate(120 105)" fill="#005B9A"/>
<path d="M2.61876 6.84554C2.12542 6.76291 1.63207 6.51503 1.22095 6.1019C-0.25908 4.77987 -0.423528 2.71421 0.892056 1.22693C2.20764 -0.260349 4.26324 -0.425602 5.74327 0.896423C6.15439 1.22693 6.48329 1.72269 6.64774 2.13582L5.57883 3.37522C5.4966 2.87946 5.24993 2.3837 4.75659 1.97057C3.93435 1.22693 2.61876 1.30956 1.87874 2.21845C1.13873 3.04471 1.13873 4.36674 2.04319 5.11038C2.53654 5.52351 3.11211 5.68876 3.52323 5.68876L2.61876 6.84554Z" transform="translate(4 73)" fill="#005B9A"/>
<path d="M3.78231 0L5.67346 1.32202C6.74237 2.06566 7.15349 3.13981 6.41347 4.21395C5.92013 5.04022 5.09789 5.12285 4.4401 4.95759C4.93344 5.78386 4.68677 7.02326 3.94675 8.34528L2.71339 7.51902C3.37119 6.19699 3.45341 4.95759 2.71339 4.54446L2.54894 4.29658L1.15114 6.36224L0 5.61861L3.78231 0ZM4.93344 2.4788L4.19343 1.90041L3.37119 3.13981L4.1112 3.63557C4.4401 3.88345 4.93344 3.88345 5.18011 3.47032C5.42679 3.13981 5.26234 2.72668 4.93344 2.4788Z" transform="translate(7.76953 75.4663)" fill="#005B9A"/>
<path d="M0 6.03174L3.04229 0L6.4957 1.73516L5.92013 2.97456L3.7823 1.90041L3.20674 3.05718L5.18011 4.0487L4.52232 5.20547L2.54894 4.21395L1.97338 5.45335L4.1112 6.5275L3.53563 7.7669L0 6.03174Z" transform="translate(13.1152 78.5235)" fill="#005B9A"/>
<path d="M4.68677 5.70123L2.46672 4.87497L1.48003 6.03174L0 5.53598L4.60455 0L6.08458 0.49576L6.1668 7.68427L4.68677 7.18851V5.70123ZM3.28896 3.7182L4.68677 4.21395V1.98304L3.28896 3.7182Z" transform="translate(17.4727 81.25)" fill="#005B9A"/>
<path d="M1.56226 1.73516L0 1.32203L0.328896 0L4.85122 1.07415L4.52232 2.39617L2.96006 2.06566L1.7267 7.27114L0.328896 6.94063L1.56226 1.73516Z" transform="translate(25.1191 82.407)" fill="#005B9A"/>
<path d="M0 6.69275L0.822242 0L4.60455 0.413133L4.4401 1.81778L2.0556 1.5699L1.89115 2.89193L4.1112 3.13981L3.94675 4.46183L1.7267 4.21395L1.56226 5.53598L3.94675 5.78386L3.78231 7.18851L0 6.69275Z" transform="translate(29.8047 83.5638)" fill="#005B9A"/>
<path d="M4.35787 5.20547L1.97337 5.45335L1.56225 6.94063L0 7.10588L1.89115 0.165253L3.45341 0L6.4957 6.5275L4.93344 6.69275L4.35787 5.20547ZM2.30227 4.0487L3.7823 3.88345L2.87784 1.81778L2.30227 4.0487Z" transform="translate(38.8496 83.8941)" fill="#005B9A"/>
<path d="M0 0.803856L2.22005 0.142843C3.45341 -0.270289 4.60455 0.22547 4.93344 1.46487C5.34456 2.70427 4.68677 3.77841 3.45341 4.19155L2.63117 4.43943L3.37118 6.75297L2.0556 7.24873L0 0.803856ZM2.63117 1.38224L1.80893 1.63012L2.30227 3.1174L3.12451 2.86952C3.53563 2.70427 3.78231 2.37376 3.61786 1.878C3.45341 1.38224 3.04229 1.29962 2.63117 1.38224Z" transform="translate(48.8008 81.8508)" fill="#005B9A"/>
<path d="M1.96557 0.351711C3.69228 -0.474555 5.74788 0.186458 6.57012 2.00424C7.39236 3.82203 6.73457 5.80506 5.00786 6.63133C3.19893 7.45759 1.22556 6.79658 0.403318 4.9788C-0.501146 3.16101 0.156644 1.17798 1.96557 0.351711ZM4.35007 5.3093C5.33676 4.81355 5.74788 3.57415 5.25454 2.58263C4.76119 1.59111 3.61005 1.09535 2.54114 1.59111C1.47223 2.08687 1.14333 3.32627 1.63668 4.31779C2.13002 5.39193 3.36338 5.80506 4.35007 5.3093Z" transform="translate(54.4805 79.3286)" fill="#005B9A"/>
<path d="M3.70008 6.36225L0 0.743639L1.15113 0L4.1112 4.46183L6.1668 3.13981L6.90681 4.29658L3.70008 6.36225Z" transform="translate(60.1465 77.0364)" fill="#005B9A"/>
<path d="M4.27565 6.11437L0 0.908892L1.06891 0L4.44009 4.13133L6.33125 2.56142L7.15349 3.63557L4.27565 6.11437Z" transform="translate(63.8477 74.3096)" fill="#005B9A"/>
<rect width="75" height="75" rx="37.5" fill="#FCB92C"/>
<path d="M29.3364 24.648H35.4204V30.948H39.4884V24.648H45.6444V20.832H39.4884V14.532H35.4204V20.832H29.3364V24.648Z" transform="translate(0 14.8155)" fill="#00548F"/>
<path d="M7.62939e-07 15.2V-3.8147e-07L9.8 7.6L7.62939e-07 15.2Z" transform="translate(106.801 58.1995) rotate(-180)" fill="#FCB92C"/>
<path d="M20.5 42H7.6C3.4 42 0 38.5 0 34.3V0" transform="translate(124.5 93.0995) rotate(-180)" stroke="#FCB92C" stroke-width="5" stroke-miterlimit="10"/>
<path d="M6.076 9.164V8.016H2.436V4.628H6.356V3.48H1.232V13H2.436V9.164H6.076ZM9.10066 6.182H7.93866V13H9.10066V6.182ZM7.75666 4.04C7.75666 4.474 8.09266 4.796 8.51266 4.796C8.97466 4.796 9.29666 4.474 9.29666 4.04C9.29666 3.606 8.97466 3.27 8.51266 3.27C8.09266 3.27 7.75666 3.606 7.75666 4.04ZM12.2045 3.34H11.0425V13H12.2045V3.34ZM15.3354 3.34H14.1734V13H15.3354V3.34ZM21.7335 6.182H20.5715V13H21.7335V6.182ZM20.3895 4.04C20.3895 4.474 20.7255 4.796 21.1455 4.796C21.6075 4.796 21.9295 4.474 21.9295 4.04C21.9295 3.606 21.6075 3.27 21.1455 3.27C20.7255 3.27 20.3895 3.606 20.3895 4.04ZM24.8233 6.182H23.6613V13H24.8233V8.94C24.8653 7.89 25.4953 7.19 26.5453 7.19C27.6093 7.19 28.2673 7.946 28.2673 9.024V13H29.4293V8.744C29.4293 7.19 28.4353 6.042 26.8673 6.042C25.8733 6.042 25.2013 6.532 24.8233 7.26V6.182ZM36.1427 13V7.19H37.4868V6.182H36.1427V4.222L35.0368 4.516V6.182H33.7068V7.19H34.9808V13H36.1427ZM39.794 3.34H38.632V13H39.794V8.94C39.836 7.89 40.466 7.19 41.516 7.19C42.58 7.19 43.238 7.946 43.238 9.024V13H44.4V8.744C44.4 7.19 43.406 6.042 41.838 6.042C40.858 6.042 40.172 6.532 39.794 7.26V3.34ZM52.4629 10.018C52.4909 9.878 52.5189 9.598 52.5189 9.388C52.5189 7.526 51.1889 6.042 49.2289 6.042C47.2829 6.042 45.8269 7.596 45.8269 9.584C45.8269 11.656 47.3249 13.14 49.2989 13.14C50.3489 13.14 51.2449 12.804 51.8329 12.426V11.222C51.2589 11.67 50.3209 12.076 49.3829 12.076C48.0949 12.076 47.1429 11.222 47.0029 10.018H52.4629ZM49.2289 7.05C50.4189 7.05 51.3709 7.862 51.3849 9.094H47.0029C47.0869 7.946 48.0109 7.05 49.2289 7.05ZM58.3467 11.642C58.8368 12.552 59.7748 13.14 60.9368 13.14C62.8828 13.14 64.3108 11.6 64.3108 9.584C64.3108 7.596 62.8828 6.042 60.9368 6.042C59.7748 6.042 58.8368 6.644 58.3467 7.554V3.34H57.1847V13H58.3467V11.642ZM58.3467 9.584C58.3467 8.268 59.3687 7.19 60.7267 7.19C62.0708 7.19 63.0927 8.268 63.0927 9.584C63.0927 10.928 62.0708 11.992 60.7267 11.992C59.3687 11.992 58.3467 10.928 58.3467 9.584ZM66.9877 3.34H65.8257V13H66.9877V3.34ZM69.1386 7.666C69.6846 7.33 70.3146 7.106 70.9866 7.106C71.7986 7.106 72.5686 7.554 72.5686 8.646V9.43C72.2326 9.01 71.5326 8.632 70.7906 8.632C69.3906 8.632 68.3966 9.612 68.3966 10.872C68.3966 12.104 69.2786 13.14 70.7766 13.14C71.5606 13.14 72.2046 12.79 72.5686 12.258V13H73.7306V8.66C73.7306 6.826 72.6386 6.042 71.0986 6.042C70.3426 6.042 69.6426 6.266 69.1386 6.518V7.666ZM69.5586 10.872C69.5586 10.13 70.2306 9.528 71.0566 9.528C71.8546 9.528 72.5546 10.13 72.5546 10.872C72.5546 11.642 71.8826 12.244 71.0566 12.244C70.2446 12.244 69.5586 11.642 69.5586 10.872ZM76.7491 6.182H75.5871V13H76.7491V8.94C76.7911 7.89 77.4211 7.19 78.4711 7.19C79.5351 7.19 80.1931 7.946 80.1931 9.024V13H81.3551V8.744C81.3551 7.19 80.3611 6.042 78.7931 6.042C77.7991 6.042 77.1271 6.532 76.7491 7.26V6.182ZM83.216 13H84.378V10.914L85.386 9.738L87.206 13H88.578L86.254 8.912L88.522 6.182H87.122L84.378 9.43V3.34H83.216V13ZM93.2385 6.392C92.8465 6.196 92.2725 6.042 91.6705 6.042C90.1725 6.042 89.3605 6.854 89.3605 7.918C89.3605 8.562 89.6545 9.136 90.3685 9.556L91.6285 10.312C92.1465 10.62 92.3285 10.886 92.3285 11.236C92.3285 11.754 91.9085 12.118 91.1385 12.118C90.4385 12.118 89.7805 11.782 89.4305 11.474V12.734C89.8505 12.944 90.4945 13.14 91.1945 13.14C92.6365 13.14 93.5325 12.398 93.5325 11.236C93.5325 10.592 93.2665 10.004 92.3845 9.472L91.1805 8.758C90.7745 8.506 90.5785 8.31 90.5785 7.946C90.5785 7.456 90.9565 7.078 91.6845 7.078C92.2445 7.078 92.8045 7.302 93.2385 7.624V6.392ZM98.5194 7.666C99.0654 7.33 99.6954 7.106 100.367 7.106C101.179 7.106 101.949 7.554 101.949 8.646V9.43C101.613 9.01 100.913 8.632 100.171 8.632C98.7714 8.632 97.7774 9.612 97.7774 10.872C97.7774 12.104 98.6594 13.14 100.157 13.14C100.941 13.14 101.585 12.79 101.949 12.258V13H103.111V8.66C103.111 6.826 102.019 6.042 100.479 6.042C99.7234 6.042 99.0234 6.266 98.5194 6.518V7.666ZM98.9394 10.872C98.9394 10.13 99.6114 9.528 100.437 9.528C101.235 9.528 101.935 10.13 101.935 10.872C101.935 11.642 101.263 12.244 100.437 12.244C99.6254 12.244 98.9394 11.642 98.9394 10.872ZM106.13 6.182H104.968V13H106.13V8.94C106.172 7.89 106.802 7.19 107.852 7.19C108.916 7.19 109.574 7.946 109.574 9.024V13H110.736V8.744C110.736 7.19 109.742 6.042 108.174 6.042C107.18 6.042 106.508 6.532 106.13 7.26V6.182ZM118.113 13H119.289V3.34H118.113V7.554C117.623 6.644 116.699 6.042 115.551 6.042C113.577 6.042 112.163 7.596 112.163 9.584C112.163 11.6 113.577 13.14 115.551 13.14C116.699 13.14 117.623 12.552 118.113 11.642V13ZM118.113 9.584C118.113 10.928 117.105 11.992 115.747 11.992C114.403 11.992 113.367 10.928 113.367 9.584C113.367 8.268 114.403 7.19 115.747 7.19C117.105 7.19 118.113 8.268 118.113 9.584ZM0.28 22.182L2.366 29H3.612L5.292 24.38L7.182 29H8.414L10.514 22.182H9.296L7.728 27.544L5.572 22.182H4.382L4.718 23.036L3.066 27.544L1.498 22.182H0.28ZM11.8534 23.666C12.3994 23.33 13.0294 23.106 13.7014 23.106C14.5134 23.106 15.2834 23.554 15.2834 24.646V25.43C14.9474 25.01 14.2474 24.632 13.5054 24.632C12.1054 24.632 11.1114 25.612 11.1114 26.872C11.1114 28.104 11.9934 29.14 13.4914 29.14C14.2754 29.14 14.9194 28.79 15.2834 28.258V29H16.4454V24.66C16.4454 22.826 15.3534 22.042 13.8134 22.042C13.0574 22.042 12.3574 22.266 11.8534 22.518V23.666ZM12.2734 26.872C12.2734 26.13 12.9454 25.528 13.7714 25.528C14.5694 25.528 15.2694 26.13 15.2694 26.872C15.2694 27.642 14.5974 28.244 13.7714 28.244C12.9594 28.244 12.2734 27.642 12.2734 26.872ZM19.9279 29V23.19H21.2719V22.182H19.9279V20.222L18.8219 20.516V22.182H17.4919V23.19H18.7659V29H19.9279ZM27.1941 27.404C26.7601 27.754 26.1161 28.006 25.4301 28.006C24.0721 28.006 23.0501 26.928 23.0501 25.584C23.0501 24.254 24.0721 23.19 25.4301 23.19C26.1301 23.19 26.7461 23.428 27.1941 23.792V22.504C26.7181 22.224 26.0321 22.042 25.4301 22.042C23.3581 22.042 21.8601 23.582 21.8601 25.584C21.8601 27.6 23.3581 29.14 25.4301 29.14C26.0461 29.14 26.7181 28.958 27.1941 28.664V27.404ZM29.9092 19.34H28.7472V29H29.9092V24.94C29.9513 23.89 30.5813 23.19 31.6313 23.19C32.6953 23.19 33.3533 23.946 33.3533 25.024V29H34.5153V24.744C34.5153 23.19 33.5212 22.042 31.9533 22.042C30.9733 22.042 30.2873 22.532 29.9092 23.26V19.34ZM41.2287 29V23.19H42.5727V22.182H41.2287V20.222L40.1227 20.516V22.182H38.7927V23.19H40.0667V29H41.2287ZM44.88 19.34H43.718V29H44.88V24.94C44.922 23.89 45.552 23.19 46.602 23.19C47.666 23.19 48.324 23.946 48.324 25.024V29H49.486V24.744C49.486 23.19 48.492 22.042 46.924 22.042C45.944 22.042 45.258 22.532 44.88 23.26V19.34ZM57.5489 26.018C57.5769 25.878 57.6049 25.598 57.6049 25.388C57.6049 23.526 56.2749 22.042 54.3149 22.042C52.3689 22.042 50.9129 23.596 50.9129 25.584C50.9129 27.656 52.4109 29.14 54.3849 29.14C55.4349 29.14 56.3309 28.804 56.9189 28.426V27.222C56.3449 27.67 55.4069 28.076 54.4689 28.076C53.1809 28.076 52.2289 27.222 52.0889 26.018H57.5489ZM54.3149 23.05C55.5049 23.05 56.4569 23.862 56.4709 25.094H52.0889C52.1729 23.946 53.0969 23.05 54.3149 23.05ZM61.1589 22.182L63.8749 29H65.1069L67.8369 22.182H66.6049L64.4909 27.572L62.3909 22.182H61.1589ZM68.3168 25.584C68.3168 27.6 69.8708 29.14 71.8588 29.14C73.8748 29.14 75.4008 27.6 75.4008 25.584C75.4008 23.596 73.8748 22.042 71.8588 22.042C69.8708 22.042 68.3168 23.596 68.3168 25.584ZM69.5208 25.584C69.5208 24.254 70.5288 23.19 71.8588 23.19C73.2028 23.19 74.2108 24.254 74.2108 25.584C74.2108 26.928 73.2028 28.006 71.8588 28.006C70.5288 28.006 69.5208 26.928 69.5208 25.584ZM78.4709 29V23.19H79.8149V22.182H78.4709V20.222L77.3649 20.516V22.182H76.0349V23.19H77.3089V29H78.4709ZM87.0391 26.018C87.0671 25.878 87.0951 25.598 87.0951 25.388C87.0951 23.526 85.7651 22.042 83.8051 22.042C81.8591 22.042 80.4031 23.596 80.4031 25.584C80.4031 27.656 81.9011 29.14 83.8751 29.14C84.9251 29.14 85.8211 28.804 86.4091 28.426V27.222C85.8351 27.67 84.8971 28.076 83.9591 28.076C82.6711 28.076 81.7191 27.222 81.5791 26.018H87.0391ZM83.8051 23.05C84.9951 23.05 85.9471 23.862 85.9611 25.094H81.5791C81.6631 23.946 82.5871 23.05 83.8051 23.05ZM92.0217 22.392C91.6297 22.196 91.0557 22.042 90.4537 22.042C88.9557 22.042 88.1437 22.854 88.1437 23.918C88.1437 24.562 88.4377 25.136 89.1517 25.556L90.4117 26.312C90.9297 26.62 91.1117 26.886 91.1117 27.236C91.1117 27.754 90.6917 28.118 89.9217 28.118C89.2217 28.118 88.5637 27.782 88.2137 27.474V28.734C88.6337 28.944 89.2777 29.14 89.9777 29.14C91.4197 29.14 92.3157 28.398 92.3157 27.236C92.3157 26.592 92.0497 26.004 91.1677 25.472L89.9637 24.758C89.5577 24.506 89.3617 24.31 89.3617 23.946C89.3617 23.456 89.7397 23.078 90.4677 23.078C91.0277 23.078 91.5877 23.302 92.0217 23.624V22.392ZM98.2686 22.182H97.1066V29H98.2686V24.94C98.3106 23.89 98.8006 23.19 99.7806 23.19C100.089 23.19 100.383 23.26 100.607 23.358V22.112C100.425 22.07 100.215 22.042 100.033 22.042C99.1646 22.042 98.5906 22.476 98.2686 23.106V22.182ZM101.102 25.584C101.102 27.6 102.656 29.14 104.644 29.14C106.66 29.14 108.186 27.6 108.186 25.584C108.186 23.596 106.66 22.042 104.644 22.042C102.656 22.042 101.102 23.596 101.102 25.584ZM102.306 25.584C102.306 24.254 103.314 23.19 104.644 23.19C105.988 23.19 106.996 24.254 106.996 25.584C106.996 26.928 105.988 28.006 104.644 28.006C103.314 28.006 102.306 26.928 102.306 25.584ZM110.861 19.34H109.699V29H110.861V19.34ZM113.992 19.34H112.83V29H113.992V19.34ZM120.39 22.182H119.228V29H120.39V22.182ZM119.046 20.04C119.046 20.474 119.382 20.796 119.802 20.796C120.264 20.796 120.586 20.474 120.586 20.04C120.586 19.606 120.264 19.27 119.802 19.27C119.382 19.27 119.046 19.606 119.046 20.04ZM123.48 22.182H122.318V29H123.48V24.94C123.522 23.89 124.152 23.19 125.202 23.19C126.266 23.19 126.924 23.946 126.924 25.024V29H128.086V24.744C128.086 23.19 127.092 22.042 125.524 22.042C124.53 22.042 123.858 22.532 123.48 23.26V22.182Z" transform="translate(404 161)" fill="#005B9A"/>
<path d="M6.986 13L9.198 7.064V13H11.186V3.48H8.764L6.132 10.466L3.486 3.48H1.05V13H3.038V7.064L5.25 13H6.986ZM19.2363 13H21.4623L17.9343 3.48H15.7083L12.1803 13H14.4063L15.1203 10.97H18.5223L19.2363 13ZM16.8283 6.084L17.8783 9.052H15.7783L16.8283 6.084ZM22.4738 13H24.4618V10.172L25.2318 9.08L27.0518 13H29.3758L26.6598 7.386L29.2358 3.48H26.9118L24.4618 7.33V3.48H22.4738V13ZM35.9035 13V11.082H32.4735V9.164H35.6235V7.246H32.4735V5.398H35.9035V3.48H30.4855V13H35.9035ZM46.2793 13H48.5053L44.9773 3.48H42.7513L39.2233 13H41.4493L42.1633 10.97H45.5653L46.2793 13ZM43.8713 6.084L44.9213 9.052H42.8213L43.8713 6.084ZM52.1145 13H54.1025V9.514H55.3625C57.2245 9.514 58.4985 8.38 58.4985 6.49C58.4985 4.614 57.2245 3.48 55.3625 3.48H52.1145V13ZM56.4545 6.504C56.4545 7.232 55.9785 7.596 55.3345 7.596H54.1025V5.398H55.3345C55.9785 5.398 56.4545 5.762 56.4545 6.504ZM59.3468 8.24C59.3468 11.026 61.4608 13.154 64.2468 13.154C67.0328 13.154 69.1468 11.026 69.1468 8.24C69.1468 5.454 67.0328 3.326 64.2468 3.326C61.4608 3.326 59.3468 5.454 59.3468 8.24ZM61.3908 8.24C61.3908 6.63 62.6228 5.314 64.2468 5.314C65.8568 5.314 67.0888 6.63 67.0888 8.24C67.0888 9.864 65.8568 11.166 64.2468 11.166C62.6228 11.166 61.3908 9.864 61.3908 8.24ZM76.0715 13V11.082H72.6415V3.48H70.6535V13H76.0715ZM82.7981 13V11.082H79.3681V3.48H77.3801V13H82.7981Z" transform="translate(404 142)" fill="#005B9A"/>
<path d="M7.62939e-07 15.2V-3.8147e-07L9.8 7.6L7.62939e-07 15.2Z" transform="translate(391.801 243.9) scale(-1 1)" fill="#FCB92C"/>
<path d="M20.5 42H7.6C3.4 42 0 38.5 0 34.3V0" transform="translate(409.5 209) scale(-1 1)" stroke="#FCB92C" stroke-width="5" stroke-miterlimit="10"/>
<rect x="0.5" y="0.5" width="185" height="24" transform="translate(7 440)" fill="#F2F2F2" stroke="#E0E0E0"/>
<rect x="0.5" y="0.5" width="305" height="24" transform="translate(5 240)" fill="#F2F2F2" stroke="#E0E0E0"/>
<path d="M2.59 13H4.578V5.398H6.888V3.48H0.28V5.398H2.59V13ZM8.21406 13H10.2021V3.48H8.21406V13ZM13.842 13H15.83V5.398H18.14V3.48H11.532V5.398H13.842V13ZM24.884 13V11.082H21.454V3.48H19.466V13H24.884ZM31.6106 13V11.082H28.1806V9.164H31.3306V7.246H28.1806V5.398H31.6106V3.48H26.1926V13H31.6106Z" transform="translate(17 243)" fill="#005B9A"/>
<rect x="0.5" y="0.5" width="185" height="126" transform="translate(7 289)" fill="#F2F2F2" stroke="#E0E0E0"/>
<rect x="0.5" y="0.5" width="185" height="24" transform="translate(229 440)" fill="#F2F2F2" stroke="#E0E0E0"/>
<rect x="0.5" y="0.5" width="185" height="126" transform="translate(229 289)" fill="#F2F2F2" stroke="#E0E0E0"/>
<path d="M0.462 8.24C0.462 11.026 2.576 13.154 5.362 13.154C8.148 13.154 10.262 11.026 10.262 8.24C10.262 5.454 8.148 3.326 5.362 3.326C2.576 3.326 0.462 5.454 0.462 8.24ZM2.506 8.24C2.506 6.63 3.738 5.314 5.362 5.314C6.972 5.314 8.204 6.63 8.204 8.24C8.204 9.864 6.972 11.166 5.362 11.166C3.738 11.166 2.506 9.864 2.506 8.24ZM11.7688 13H13.7567V9.514H15.0168C16.8787 9.514 18.1528 8.38 18.1528 6.49C18.1528 4.614 16.8787 3.48 15.0168 3.48H11.7688V13ZM16.1087 6.504C16.1087 7.232 15.6328 7.596 14.9888 7.596H13.7567V5.398H14.9888C15.6328 5.398 16.1087 5.762 16.1087 6.504ZM21.1291 13H23.1171V5.398H25.4271V3.48H18.8191V5.398H21.1291V13ZM26.7531 13H28.7411V3.48H26.7531V13ZM30.253 8.24C30.253 11.026 32.367 13.154 35.153 13.154C37.939 13.154 40.053 11.026 40.053 8.24C40.053 5.454 37.939 3.326 35.153 3.326C32.367 3.326 30.253 5.454 30.253 8.24ZM32.297 8.24C32.297 6.63 33.529 5.314 35.153 5.314C36.763 5.314 37.995 6.63 37.995 8.24C37.995 9.864 36.763 11.166 35.153 11.166C33.529 11.166 32.297 9.864 32.297 8.24ZM47.4818 13H49.4698V3.48H47.4818V9.542L43.3098 3.48H40.9578V3.62L41.6158 4.67V13H43.6038V7.498L47.4818 13ZM63.123 13H65.349L61.821 3.48H59.595L56.067 13H58.293L59.007 10.97H62.409L63.123 13ZM60.715 6.084L61.765 9.052H59.665L60.715 6.084Z" transform="translate(17 444)" fill="#005B9A"/>
<path d="M0.462 8.24C0.462 11.026 2.576 13.154 5.362 13.154C8.148 13.154 10.262 11.026 10.262 8.24C10.262 5.454 8.148 3.326 5.362 3.326C2.576 3.326 0.462 5.454 0.462 8.24ZM2.506 8.24C2.506 6.63 3.738 5.314 5.362 5.314C6.972 5.314 8.204 6.63 8.204 8.24C8.204 9.864 6.972 11.166 5.362 11.166C3.738 11.166 2.506 9.864 2.506 8.24ZM11.7688 13H13.7567V9.514H15.0168C16.8787 9.514 18.1528 8.38 18.1528 6.49C18.1528 4.614 16.8787 3.48 15.0168 3.48H11.7688V13ZM16.1087 6.504C16.1087 7.232 15.6328 7.596 14.9888 7.596H13.7567V5.398H14.9888C15.6328 5.398 16.1087 5.762 16.1087 6.504ZM21.1291 13H23.1171V5.398H25.4271V3.48H18.8191V5.398H21.1291V13ZM26.7531 13H28.7411V3.48H26.7531V13ZM30.253 8.24C30.253 11.026 32.367 13.154 35.153 13.154C37.939 13.154 40.053 11.026 40.053 8.24C40.053 5.454 37.939 3.326 35.153 3.326C32.367 3.326 30.253 5.454 30.253 8.24ZM32.297 8.24C32.297 6.63 33.529 5.314 35.153 5.314C36.763 5.314 37.995 6.63 37.995 8.24C37.995 9.864 36.763 11.166 35.153 11.166C33.529 11.166 32.297 9.864 32.297 8.24ZM47.4818 13H49.4698V3.48H47.4818V9.542L43.3098 3.48H40.9578V3.62L41.6158 4.67V13H43.6038V7.498L47.4818 13ZM57.5832 13H60.9712C62.8052 13 64.1212 11.936 64.1212 10.368C64.1212 9.248 63.5612 8.506 62.7212 8.1C63.4072 7.736 63.8552 7.05 63.8552 6.014C63.8552 4.502 62.6232 3.48 60.8872 3.48H57.5832V13ZM62.0772 10.088C62.0772 10.774 61.6012 11.082 60.9712 11.082H59.5712V9.08H60.9712C61.6012 9.08 62.0772 9.402 62.0772 10.088ZM61.8112 6.28C61.8112 6.882 61.4052 7.162 60.8732 7.162H59.5712V5.398H60.8732C61.4052 5.398 61.8112 5.678 61.8112 6.28Z" transform="translate(240 444)" fill="#005B9A"/>
<path d="M16.4669 32.9215C12.3207 32.9215 8.18633 32.9215 4.04016 32.9215C3.1803 32.9215 2.36756 32.7448 1.64904 32.2383C0.518271 31.4492 0 30.342 0 28.9756C0 27.5857 0 26.1841 0 24.7942C0 17.8565 0.0117789 10.9306 0 4.00476C0 2.48531 0.612502 1.33099 1.87284 0.530042C2.53246 0.106008 3.27453 0 4.05194 0C12.3207 0 20.6013 0 28.87 0C29.0232 0 29.1881 0 29.3412 0.0117787C31.2612 0.117787 32.8042 1.6608 32.9102 3.58073C32.922 3.73385 32.922 3.89875 32.922 4.05188C32.922 12.3205 32.922 20.601 32.922 28.8696C32.922 30.2713 32.4273 31.4138 31.2729 32.2383C30.5544 32.7448 29.7417 32.9215 28.8818 32.9215C24.7474 32.9215 20.613 32.9215 16.4669 32.9215ZM30.3895 20.9897C30.3895 20.8012 30.3895 20.707 30.3895 20.6127C30.3895 15.0885 30.3895 9.56432 30.3895 4.0401C30.3895 3.01535 29.9066 2.5442 28.8936 2.5442C20.6013 2.5442 12.3089 2.5442 4.0166 2.5442C3.00362 2.5442 2.53246 3.01535 2.53246 4.01654C2.53246 10.4006 2.53246 16.7729 2.53246 23.157C2.53246 23.263 2.54424 23.3572 2.55602 23.5103C2.68559 23.3925 2.76804 23.3101 2.85049 23.2394C5.34761 20.7423 7.85652 18.2452 10.3536 15.7481C11.0604 15.0414 11.7553 15.0414 12.4738 15.7481C14.1582 17.4325 15.8308 19.1051 17.5152 20.7894C17.5859 20.8601 17.6683 20.9308 17.7626 21.025C17.845 20.9308 17.9157 20.8483 17.9981 20.7659C19.6943 19.0697 21.3787 17.3736 23.0748 15.6892C23.2869 15.4772 23.5813 15.3241 23.8758 15.2417C24.3705 15.1121 24.7592 15.3594 25.1008 15.701C26.7616 17.3736 28.4342 19.0344 30.095 20.6952C30.1657 20.7777 30.2482 20.8601 30.3895 20.9897Z" transform="translate(78 333)" fill="#005B9A"/>
<path d="M29.0938 0.00152946C30.3306 -0.0455854 31.5203 1.00272 31.6027 2.19237C31.6263 2.46328 31.6263 2.74597 31.6381 3.01688C31.6381 11.2031 31.6381 19.3893 31.6381 27.5755C31.6381 28.5885 31.4025 29.519 30.7193 30.2964C29.8948 31.2387 28.8229 31.6391 27.5861 31.6391C19.765 31.6274 11.9438 31.6391 4.12261 31.6391C3.51011 31.6391 2.90938 31.6509 2.29688 31.6156C1.02476 31.5331 0 30.4259 0 29.0949C0.129568 29.0949 0.259135 29.0949 0.388703 29.0949C9.42311 29.0949 18.4457 29.0949 27.4801 29.0949C27.6568 29.0949 27.8335 29.0949 28.0102 29.0714C28.5873 29.0007 29.0114 28.5649 29.0821 27.9877C29.1056 27.8228 29.1056 27.6579 29.1056 27.493C29.1056 18.4705 29.1056 9.44806 29.1056 0.437342C29.0938 0.295997 29.0938 0.154653 29.0938 0.00152946Z" transform="translate(84.3633 339.359)" fill="#005B9A"/>
<path d="M3.80458 -8.98645e-08C5.88944 -8.98645e-08 7.60916 1.71969 7.59738 3.80452C7.59738 5.87758 5.88944 7.58549 3.81636 7.59727C1.7315 7.60905 0.0117792 5.88936 3.59463e-07 3.80452C3.59463e-07 1.70791 1.70794 -8.98645e-08 3.80458 -8.98645e-08ZM5.06492 3.80452C5.06492 3.10958 4.48775 2.53242 3.7928 2.53242C3.10963 2.53242 2.54424 3.0978 2.53246 3.78097C2.52068 4.46413 3.10963 5.05307 3.80458 5.05307C4.47598 5.05307 5.06492 4.48769 5.06492 3.80452Z" transform="translate(91.9336 339.337)" fill="#005B9A"/>
<path d="M16.4669 32.9215C12.3207 32.9215 8.18633 32.9215 4.04016 32.9215C3.1803 32.9215 2.36756 32.7448 1.64904 32.2383C0.518271 31.4492 0 30.342 0 28.9756C0 27.5857 0 26.1841 0 24.7942C0 17.8565 0.0117789 10.9306 0 4.00476C0 2.48531 0.612502 1.33099 1.87284 0.530042C2.53246 0.106008 3.27453 0 4.05194 0C12.3207 0 20.6013 0 28.87 0C29.0232 0 29.1881 0 29.3412 0.0117787C31.2612 0.117787 32.8042 1.6608 32.9102 3.58073C32.922 3.73385 32.922 3.89875 32.922 4.05188C32.922 12.3205 32.922 20.601 32.922 28.8696C32.922 30.2713 32.4273 31.4138 31.2729 32.2383C30.5544 32.7448 29.7417 32.9215 28.8818 32.9215C24.7474 32.9215 20.613 32.9215 16.4669 32.9215ZM30.3895 20.9897C30.3895 20.8012 30.3895 20.707 30.3895 20.6127C30.3895 15.0885 30.3895 9.56432 30.3895 4.0401C30.3895 3.01535 29.9066 2.5442 28.8936 2.5442C20.6013 2.5442 12.3089 2.5442 4.0166 2.5442C3.00362 2.5442 2.53246 3.01535 2.53246 4.01654C2.53246 10.4006 2.53246 16.7729 2.53246 23.157C2.53246 23.263 2.54424 23.3572 2.55602 23.5103C2.68559 23.3925 2.76804 23.3101 2.85049 23.2394C5.34761 20.7423 7.85652 18.2452 10.3536 15.7481C11.0604 15.0414 11.7553 15.0414 12.4738 15.7481C14.1582 17.4325 15.8308 19.1051 17.5152 20.7894C17.5859 20.8601 17.6683 20.9308 17.7626 21.025C17.845 20.9308 17.9157 20.8483 17.9981 20.7659C19.6943 19.0697 21.3787 17.3736 23.0748 15.6892C23.2869 15.4772 23.5813 15.3241 23.8758 15.2417C24.3705 15.1121 24.7592 15.3594 25.1008 15.701C26.7616 17.3736 28.4342 19.0344 30.095 20.6952C30.1657 20.7777 30.2482 20.8601 30.3895 20.9897Z" transform="translate(303 333)" fill="#005B9A"/>
<path d="M29.0938 0.00152946C30.3306 -0.0455854 31.5203 1.00272 31.6027 2.19237C31.6263 2.46328 31.6263 2.74597 31.6381 3.01688C31.6381 11.2031 31.6381 19.3893 31.6381 27.5755C31.6381 28.5885 31.4025 29.519 30.7193 30.2964C29.8948 31.2387 28.8229 31.6391 27.5861 31.6391C19.765 31.6274 11.9438 31.6391 4.12261 31.6391C3.51011 31.6391 2.90938 31.6509 2.29688 31.6156C1.02476 31.5331 0 30.4259 0 29.0949C0.129568 29.0949 0.259135 29.0949 0.388703 29.0949C9.42311 29.0949 18.4457 29.0949 27.4801 29.0949C27.6568 29.0949 27.8335 29.0949 28.0102 29.0714C28.5873 29.0007 29.0114 28.5649 29.0821 27.9877C29.1056 27.8228 29.1056 27.6579 29.1056 27.493C29.1056 18.4705 29.1056 9.44806 29.1056 0.437342C29.0938 0.295997 29.0938 0.154653 29.0938 0.00152946Z" transform="translate(309.363 339.359)" fill="#005B9A"/>
<path d="M3.80458 -8.98645e-08C5.88944 -8.98645e-08 7.60916 1.71969 7.59738 3.80452C7.59738 5.87758 5.88944 7.58549 3.81636 7.59727C1.7315 7.60905 0.0117792 5.88936 3.59463e-07 3.80452C3.59463e-07 1.70791 1.70794 -8.98645e-08 3.80458 -8.98645e-08ZM5.06492 3.80452C5.06492 3.10958 4.48775 2.53242 3.7928 2.53242C3.10963 2.53242 2.54424 3.0978 2.53246 3.78097C2.52068 4.46413 3.10963 5.05307 3.80458 5.05307C4.47598 5.05307 5.06492 4.48769 5.06492 3.80452Z" transform="translate(316.934 339.337)" fill="#005B9A"/>
</svg>
