<svg width="25" height="27" fill="none" xmlns="http://www.w3.org/2000/svg"><path d="M2.805 6.123c-.558 0-1.097.009-1.636 0-.167 0-.343-.029-.5-.075a.933.933 0 0 1-.666-.986c.03-.404.353-.76.784-.854.137-.028.274-.038.411-.038H7.51V2.697c0-.507.088-.995.382-1.436C8.401.51 9.096.04 10.047.02c1.636-.018 3.263-.037 4.9 0 1.362.038 2.43 1.07 2.508 2.375.03.573.01 1.155.01 1.765h6.311c.137 0 .274.01.411.037.49.094.813.489.813.958 0 .46-.323.835-.803.93a2.036 2.036 0 0 1-.412.037h-1.577c-.03.516-.069 1.013-.098 1.51-.167 2.967-.343 5.933-.51 8.899l-.382 6.514c-.127 2.159-1.96 3.886-4.272 3.923-3.019.047-6.047.038-9.065-.01-2.028-.027-3.87-1.698-4.056-3.641-.118-1.248-.167-2.516-.245-3.773-.128-2.15-.255-4.29-.373-6.44-.108-1.81-.206-3.622-.313-5.434-.03-.497-.06-1.013-.089-1.548zm2.068.009c0 .272-.01.507 0 .75.167 2.958.343 5.914.52 8.87.137 2.375.274 4.75.401 7.115.069 1.267 1.137 2.178 2.381 2.178 2.881-.01 5.762 0 8.643-.01.343 0 .725-.075 1.039-.215.892-.395 1.303-1.117 1.352-2.046.069-1.277.147-2.563.216-3.84l.382-6.485c.088-1.549.186-3.107.274-4.656.03-.553.06-1.098.088-1.661H4.873zm10.573-1.971V2.687c0-.497-.245-.732-.764-.732H10.234c-.344 0-.648.216-.657.516-.03.564-.01 1.117-.01 1.69h5.88z" fill="#005B9A"/><path d="M10.723 20.906h-1.99V10.27h1.99v10.635zM16.27 20.915h-1.99V10.281h1.99v10.634z" fill="#005B9A"/></svg>