<svg width="15" height="15" fill="none" xmlns="http://www.w3.org/2000/svg"><path d="M6.5 12.995H1.595c-.34 0-.66-.07-.944-.27-.446-.31-.651-.748-.651-1.287v-1.65c0-2.74.005-5.473 0-8.207C0 .98.242.525.74.209 1 .042 1.292 0 1.6 0h9.796c.06 0 .125 0 .186.005.758.041 1.367.65 1.409 1.408.004.06.004.126.004.186v9.797c0 .553-.195 1.004-.65 1.33-.284.2-.605.27-.944.27H6.5zm5.496-4.71V1.595c0-.405-.19-.59-.59-.59h-9.82c-.4 0-.586.185-.586.58v7.556c0 .042.004.079.009.14.051-.047.084-.08.116-.108.986-.985 1.976-1.97 2.962-2.957.279-.279.553-.279.837 0l1.99 1.99c.028.028.06.056.097.093.033-.037.06-.07.093-.102.67-.67 1.335-1.339 2.004-2.004a.734.734 0 0 1 .317-.177c.195-.05.348.047.483.182.656.66 1.316 1.316 1.972 1.971.027.033.06.065.116.116z" fill="#fff"/><path d="M13.996 2.51c.488-.018.958.396.99.866.01.106.01.218.014.325v9.694c0 .4-.093.767-.362 1.074-.326.372-.749.53-1.237.53-3.087-.004-6.175 0-9.262 0-.242 0-.479.005-.72-.01-.503-.032-.907-.469-.907-.994h10.847c.07 0 .14 0 .21-.01a.48.48 0 0 0 .422-.427c.01-.065.01-.13.01-.195V2.683c-.005-.056-.005-.112-.005-.172zm-6.994-.009c.823 0 1.502.68 1.497 1.502 0 .819-.674 1.493-1.493 1.497A1.51 1.51 0 0 1 5.5 4.003c0-.827.674-1.502 1.502-1.502zm.497 1.502a.506.506 0 0 0-.502-.502.503.503 0 0 0-.497.493.506.506 0 0 0 .502.502.503.503 0 0 0 .497-.493z" fill="#fff"/></svg>